<svg xmlns="http://www.w3.org/2000/svg" viewBox="0 0 7456 4283"><defs><style>.prefix__cls-3{fill:#eaf3fa}.prefix__cls-4{fill:#fa9746}.prefix__cls-5{fill:#ed7d2b}.prefix__cls-6{fill:#82b479}.prefix__cls-7{fill:#79aceb}.prefix__cls-9{fill:#d7e9ff}.prefix__cls-10{fill:#233863}.prefix__cls-11{fill:#e0ebfd}.prefix__cls-13{fill:#c7dcfb}.prefix__cls-17{fill:#a8d2a0}.prefix__cls-22{fill:#fff}.prefix__cls-23{fill:#fffefc}.prefix__cls-24{fill:#fffefd}.prefix__cls-26{fill:#dfe9fb}.prefix__cls-36{fill:#aecdfb}.prefix__cls-44{fill:#fdb17f}</style></defs><g id="prefix__Layer_2" data-name="Layer 2"><g id="prefix__Layer_1-2" data-name="Layer 1"><path d="M452 4283c-4.66-4.15-4.16-9.51-3.49-14.9a7.34 7.34 0 016.9-3c154.65-.08 309.38 3 463.92-1.05 113.87-3 227.7-2.66 341.51-3 248.61-.67 497.22.23 745.82.23 42.66 0 85.32.35 128-.27 56.12-.77 112.25-.4 168.38-.15 7.92 0 15.85 1 23.61-1.46a33.53 33.53 0 0111.82 0c10.48 2.81 21.2 1.84 31.83 1.87 209.26.7 418.52-1.39 627.78-.85 784.41 2 1568.83.4 2353.24.8 69.54-1.24 139.08-1 208.62-.2 103.75-.69 207.51 1 311.26.23 32.52-1 65.05-.92 97.58-.31q152.88.55 305.75-.31c155.22-1 310.52-2.14 465.63 1.69 148.46 3.66 296.84.5 445.23 2.77 5.91.09 12-1.34 17.67 1.69 6.55 5 3.82 10.6 1 16.19z" fill="#2e3552"/><path class="prefix__cls-3" d="M3560 1747.59c1.51-2.17 2.66-4.76 4.6-6.44 19.66-17.13 35.49-37.86 52.46-57.36 19.54-22.46 40.46-43.87 57.7-68.35 5.71-8.1 13.4-14.53 19.31-22.74 17.42-24.2 36.09-47.49 54.17-71.22 8.84-11.6 17.9-23.09 26.1-35.13 33.29-48.85 67.6-97.07 98.93-147.15 21.54-34.43 45.61-66.86 69.52-99.47 10.15-13.86 23.41-25.42 33.93-39 22.52-29.14 50.09-53.35 76-79.18 14-14 29.91-26.17 45.34-38.71 7.19-5.84 14.43-11.77 21.51-17.65 31.79-26.41 66.59-48.47 101-70.88 22.77-14.81 46.16-29 71-40.4 14.52-6.66 28.78-14 42.88-21.48 33.54-17.89 69.28-30.6 104.37-44.85 63.58-25.81 129.91-42.52 196.36-58.58 25-6.05 50.79-9 76.24-13.25q34.22-5.72 68.48-11.11a102.77 102.77 0 0113.94-.75c6.66-.13 13.33.24 19.68-2.5a13 13 0 015.81-1.25c24.68 1.73 48.76-6.12 73.49-4.43 12.61.86 25.32.16 38 .12a142.36 142.36 0 0023.67-2.44 148.19 148.19 0 0151.62.16 120.76 120.76 0 0021.7 2.29c13.33 0 26.66-.1 40 .06 12.59.14 25.23-1.1 37.59 3.25 4.19 1.48 9.24.6 13.9.69 11.27.21 22.68-1.07 33.53 3.4a8.38 8.38 0 003.95.44c18.12-2.12 35.58 3.54 53.46 4.64 19.07 1.17 38 5 56.92 8.15 21.53 3.57 43.17 6.76 64.4 11.67 41.3 9.56 83 17.36 123.82 29.1 40.21 11.54 80.57 22.55 120 36.53 33.79 12 67.2 25.06 100.59 38.15 24.75 9.7 48.72 21.27 73.06 31.93 27.49 12 54.29 25.36 80.82 39.2 24.71 12.9 48.26 28 72.9 41.09 22.38 11.86 43 26.41 64.5 39.65 20.31 12.53 39.69 26.61 59.08 40.57 19.89 14.33 39.45 29.15 58.86 44.12 11 8.5 20.93 18.51 32.3 26.48 18.58 13 32.13 31.8 51.33 44 2.21 1.4 3.94 3.57 5.83 5.45 26.87 26.85 54.83 52.73 80.24 80.89 19 21.1 38.72 41.83 55.1 65.35 10.2 14.65 22.46 27.86 33.26 42.12 20.85 27.51 40.09 56.08 58.61 85.28a1327.28 1327.28 0 0169.94 125.31 1096.66 1096.66 0 0163.85 161.06c9.19 29.79 19.5 59.3 25.75 89.9 6.62 32.39 14.35 64.53 19.28 97.31 2 13.64 1.93 27.77 6.6 41.12 1.47 4.2.62 9.24.71 13.9.11 6 .21 11.86 2.12 17.74 1.41 4.32 1.66 9.13 1.81 13.74.37 11.93-.59 23.87 3.48 35.57 1.45 4.19.56 9.24.56 13.9v155.93c0 7.31.46 14.64-2.48 21.68a22 22 0 00-1.33 7.81c-.35 14.59.8 29.3-4 43.47 1.42 26.75-6.43 52.51-8.62 78.9-1.41 17.06-6 33.84-9 50.77-7.64 43.08-18.84 85.32-29.19 127.78-7.84 32.14-14.88 64.55-20.09 97.19-2.37 14.9-3.78 30.27-5.83 45.26-2.9 21.22-1.17 42.6-4.2 63.46a349.18 349.18 0 00-3.14 45.57c-.05 3.33-.69 6.9.27 10 5.35 16.92 3.52 34.3 3.61 51.52.07 13.36 3.36 26.31 5.1 39.38 3.41 25.5 8.92 50.82 15.06 75.85 6.79 27.69 16 54.69 25.49 81.66 11.11 31.47 24.81 61.75 39.59 91.37 10.32 20.69 20.46 41.71 32.9 61.49 10.23 16.27 19.06 33.46 29.38 49.75 9.24 14.59 17.52 29.77 26.72 44.38 23.72 37.64 48.12 74.85 71.47 112.71a1076 1076 0 0167.45 126.78c17.28 38.8 32.12 78.74 40.67 120.58 4.76 23.31 10.82 46.49 10.29 70.6a22.06 22.06 0 00.21 6c7.23 26.89 2.27 54.33 3.7 81.48a38 38 0 01-2.38 15.68 23 23 0 00-1.39 7.8c-.52 42.84-11.54 83.92-21.8 125-9.84 39.32-23.79 77.4-38.85 115.08s-33 74.11-51.44 110.25c-6 4.39-12.9 2.14-19.33 2.16-83.33.17-166.67.52-250-.08-33.23-.24-65.61-11-99.17-9.41-5.93.28-12.54-2.48-14.76-8.63-2.8-7.75 3.57-12.25 8.73-16.22 22.75-17.47 46.76-33.13 70.58-49.08 11.25-7.53 21.19-16.32 26.3-29.29 4.88-12.37.72-21-11.88-24.84-15.89-4.9-30-2-42.47 9.76-22.05 20.75-33.12 48-45.41 74.62-4.19 9.07-7.18 18.68-11.78 27.57-3.35 6.48-8.12 10.56-16.1 8.15-8.59-2.59-11-8.82-10.2-17a49.86 49.86 0 013.12-11.55c15.41-43.45 32.73-85.93 60-123.66 8.19-11.3 16.2-22.89 21.16-36.15 4.12-11 7.24-22.33-4.39-30.77-11.19-8.11-23.63-9.49-35.6-1.82-14.53 9.3-23.5 23.25-30.11 38.93-19.92 47.28-26.81 97.45-32.88 147.78-3.1 25.71-4 27-29.28 25.17-15.8-1.14-29.21 2.74-37.84 16.94-4.25 7-9.65 9.88-18 9.86-87.34-.24-174.67-.1-262-.16-2.72 0-5.27-.43-7.43-2.21 6-28.5 13.61-56.15 34.23-78.47 26.71-28.93 26.71-37.41 3.5-68.78-6.2-8.38-15.47-15.12-16.15-26.92 3.39-46.43-7.19-91.51-14.27-136.76-15.64-100.1-33.31-199.87-64.1-296.71-13.56-42.66-33.9-81.66-57.11-120.37-60-100.06-96.81-208.59-103.33-326.27-1.84-33.21-6.29-66.25-8.9-99.43-.42-5.31-1.46-10.59.07-15.89 14.7-28.16 4.83-57.73 2.85-86.09-3.63-51.88-.65-103.61-1.47-155.39-.09-5.84-.24-13.35 6.21-15.51 6.79-2.27 10 4.89 13.88 9.18 32.21 35.84 45.74 77.1 36.26 125a18.92 18.92 0 00-.44 4c1.11 53.1-4 106.1-2.77 159.15.49 10.76-5.47 18.85-11.44 26.95-8.65 11.73-13.57 24.41-9.79 39.6 4.48 2.5 4.74-2.54 6.75-4.13 3.05-2.42 5.72-6.39 10.14-3.88 4 2.29 3.68 6.78 3.25 10.77-1.4 13.12-5.78 25.79-7.2 43.2 24.15-23.35 45.57-43.57 51-75 .91-5.26 1.91-10.52 5.11-15a56.48 56.48 0 009.72-21.74c15.11-66.87 31.6-133.44 42.18-201.28 2.56-16.4-.09-31.84-3-47.45-8.32-43.83-18.51-87.27-28.54-130.73-2.09-9.07-5.08-18-4.86-27.43.09-11.88 8.62-16.75 17.57-21.74 21.05-11.76 22.53-20.49 6.07-38.17-17.59-18.89-36.81-36.18-54.36-55.16-5.54-9.07-10.24-18.33-6.93-29.47 8-9 14.78-1.05 20.89 2.31a339 339 0 0085.48 32.82c22.7 5.41 43.51 1.94 64.22-6.8a161 161 0 0042.29-26.27c46.14-39.57 78.64-89.3 109-146-27.89 3.1-52.08 1.62-76.22-2.17-41.17-6.45-80.62-17.84-117-38.55-10.95-6.24-25-13.05-23.31-27.17 1.95-16.41 19.23-18.44 31.62-18.76 47.76-1.23 95.35-11 143.32-3.22 24.11 3.92 48.05-.71 71.27-5.58 19.78-4.16 32.35-20.36 41.87-37.7 31.35-57.13 29-116.67 9.14-176-10.31-30.84-36.48-48.63-65.23-61.25-46.78-20.53-96.57-23.39-146.74-22.64-19.42.3-33.08 9.94-44.65 25.64-43.47 59-90.2 115.36-141.58 167.74-10.78 11-22.4 21.13-36 28.29-16.95 8.94-27.6 1.86-26.5-17.14.87-15 7.76-28.2 14.18-41.3 19.38-39.51 42.2-77.07 65.84-114.14 7.12-11.16 15.16-21.8 20.94-35.75-16.83-4.27-32.89-2.6-48.9 0-48.8 8-95.71 23.2-142.84 37.61-7.35 1.58-14.38.61-21.45-1.94-54.44-19.69-109.94-14.77-164.57-3.3-45.81 9.62-57 42.44-31.6 82.12 11.57 9.18 11.28 17.12-1.2 25.91-18.35 12.92-36.23 26.54-52.09 42.63-4.3 4.36-9.7 10.1-17 3.62-10-19.28-9.83-40.91-13.53-61.54-5.35-29.82-14.13-59.16-14.34-89.8 4.83-12.39 17.16-13.93 27.3-17.78 36.69-13.93 72.69-29.11 106-50.2 11.31-7.17 21.79-15.19 30.73-25.12 13.79-15.32 12.82-27.9-4-40.11-20-14.54-43.09-23.41-65.59-33.18a411.89 411.89 0 00-39-15.1c-10.72-3.4-17.18-9.69-16.78-21.57a26.38 26.38 0 012.07-9.17c5.74-12.14 16.3-9.9 26-8 31.73 6.34 63.83 4.85 95.67 3.51 64.16-2.69 107.58-38.19 137.63-92.31 39.44-71 57.83-148.55 69.09-228.17.28-2-.07-4-2.85-6.62-37.19 18.26-76.89 30.93-118.71 36.46-51 6.74-102 11.33-152.75-2.13-11.46-3-25.69-4.65-28.6-18.4-3.19-15.08 10.5-21.82 20.61-28.8 23.78-16.39 50.82-26.29 77.51-36.67 47.81-18.6 96.55-34.71 144.55-52.8 73.44-27.68 96.58-60.37 92.32-139.15-3.54-65.43-27.45-124.59-69.77-175.2-38.91-46.54-92-56.09-148.54-52.11-57.69 4.06-112.48 20.53-165.69 42.86-18 7.54-28 19.09-33.81 38.34-30.78 102.77-64.28 204.64-112.45 301-6.87 13.73-14 27.37-25.28 38.12-16.28 15.52-31.05 11.64-36.64-10-7-27.26-.08-54.47 3.24-81.24 7.71-62.14 19.76-123.63 34.65-184.51 1.11-4.53 2-9.12 2.88-13.69 2.17-10.7-1.9-13.61-11.8-9.84-18.7 7.14-37 15.15-54.18 25.49-76.82 46.12-147.12 101-214.85 159.35-10.59 9.12-21.34 18.06-31.85 27.3-14 12.33-15.73 24.78-9.48 42.53 28.13 79.83 53.06 160.64 66.78 244.46 2.82 17.25 2.91 34.57 1.38 51.8-1.64 18.46-8.39 24.13-28.22 26.48-9.55-1.21-16-6.65-20.3-15-37.63-74.51-48.07-156-60.75-236.94-1.54-9.87-3.93-19.63-4.45-29.64-.75-14.51-7.16-13.23-16.31-6.31-20.45 15.48-36.17 35.48-51.66 55.42-31.65 40.73-58 85.18-76.61 133-22 56.48-15.18 112.41 15 165.4 4.19 7.35 15.46 15.9 1.74 25.24-29.6 4.88-59.39 2.09-89.06 2.14s-59.48 2.52-89.05-1.84c-11.16-4.21-9.69-14.83-11.51-23.55-10.72-51.52-48.39-87-100.65-94.46-45.22-6.46-94.57 20.16-117.44 63.32a101.73 101.73 0 00-10.37 32.11c-1.47 9.29-3.26 18.62-13.79 22.53a1594.18 1594.18 0 01-182.24 0c-11.16-4.22-9.57-14.87-11.54-23.58-10.66-47-37.89-78.69-85.18-90.94-46.6-12.07-85.17 3.16-117.26 37.31-14.64 15.58-21.61 34.94-25.43 55.57-1.74 9.41-3.58 18.57-14.55 21.81a1732.29 1732.29 0 01-181.74-.07c-8.6-2.69-9.14-10.12-10.44-17.38-8.67-48.47-35.22-81.66-83-96.67-6.12-2-13.15-2.82-15.81-10.31zM943.94 4262.78c-9.9-15.79-22.49-29.48-34.05-44-9.49-11.93-19-23.9-27.77-36.35-31.81-45-62-91-90-138.59-14.82-25.23-29.3-50.59-42.31-76.81-5.31-10.69-12.43-20.52-17.4-31.34-20.8-45.26-42-90.34-60.05-136.83-13.7-35.34-25.58-71.31-36.64-107.5-14.52-47.52-26.92-95.63-36-144.56-5-26.66-9-53.41-12.25-80.34-3.54-28.93-4.89-58.07-8.26-86.87-4.29-36.61-2-73-3.16-109.51-.27-8.6-.86-17.33 2.79-25.6a13.14 13.14 0 00.92-5.87c-1.29-22.66 1.82-45 4.28-67.44q2.37-21.67 5.76-43.23c3.19-20.23 6.22-40.53 10.47-60.56 5.49-25.9 11.34-51.77 18.44-77.26q11.47-41.24 25.68-81.69c9.65-27.55 19.38-55.11 31.71-81.67 9.23-19.87 17.28-40.28 26.49-60.16 5.57-12 10.94-24.23 18.72-35.2 3.82-5.38 6.4-11.64 9.44-17.56 14-27.2 29.44-53.54 45.72-79.4 10.26-16.29 20.16-32.86 31.29-48.55 27.23-38.39 54-77.23 83.15-114.11 14.75-18.63 29.15-37.78 45.57-55.21 10.41-11 19.25-23.58 28.79-35.45a23.11 23.11 0 012.43-3.15c16.61-14.51 28.8-33 44.31-48.55 20.26-20.26 41-40 60.62-60.91 20.08-21.42 42.3-40.53 64.49-59.43 34.26-29.18 68.78-58.09 105.91-83.91 41.48-28.86 83.67-56.31 127.55-81.36 20.26-11.57 40.79-22.54 61.9-32.28 27.72-12.78 55.26-26.1 84.34-35.78 16.38-5.45 32.44-11.86 48.86-17.18 40.38-13.08 81.27-24.23 123.21-31.26 21.51-3.6 42.83-9.07 64.47-10.84 20.45-1.68 40.61-6.65 61.41-5.14 11.17.81 22.39-1.33 33.57-2.49 21.66-2.24 43.81-3.94 65.49 1.41 7.27 1.8 14.57 1 21.86 1.28 13.89.56 28-1.74 41.55 3.39 2.37.9 5.28.66 7.92.56 18.08-.69 35.43 4 53.09 6.64 17 2.51 33.91 5.49 50.83 8.63 26.13 4.85 51.64 12 77.32 18.49 21.86 5.48 43.24 12.94 64.69 20 36 11.83 71.16 25.83 105.82 41q40.17 17.64 79.3 37.64c24.23 12.41 47.68 26.32 71.48 39.57 6.37 6.07 4.45 13.53 3.09 20.63q-31 160.85-62.15 321.66a34.29 34.29 0 01-5.11 12.92c-2.84 3.72-6.31 6.22-11.29 5.66-7.86-6.65-8.19-16.38-10-25.38-11.69-57.46-25.32-114.41-44-170.07-8.27-24.7-19-48.31-31-71.38a112.18 112.18 0 00-18.44-26c-9.58-10-21.15-17.78-35.49-12.09-14 5.57-12.1 19.29-12 31.14.26 26.56 10.17 50.79 19.54 75 30.93 79.84 75.35 152.73 117.87 226.57 4.65 8.07 10.05 15.73 12.75 24.81-1.48 30.1-6.38 59.59-16.18 88.16-12.12 8.63-16.92-2.93-21.76-9.26q-50.91-66.72-106.19-129.81c-63.58-72.59-129-143.5-207.13-201.2-25.89-19.11-53.37-35.14-84.28-44.71-17-5.26-34.2-5.57-51.12-.1-20.92 6.76-27.83 20.59-20.42 42.2 9.78 28.53 30.15 50.3 50.72 70.87 52.83 52.85 112.2 98 172.73 141.64 78.34 56.48 159 109.55 240.6 161.11 10.49 6.63 17.21 14.42 16.61 27.29-7.67 57.94-22.17 114.61-31.78 172.18-1 5.93-2.93 11.6-7.62 15.84-11.55 3.65-16.67-5.93-23.19-11.8-39.2-35.31-79.53-69-127.34-92.47-4.19-2.06-8.31-4.28-12.61-6.08-16.58-7-19.57-5.16-16.59 12.16 7.1 41.39 13.11 82.95 17.12 124.7 4.83 50.28 11.54 100.68 2.27 151.24-1.57 8.56-3.42 17-7.33 24.83-4.68 9.38-11.09 16.79-22.43 17.56-12.35.84-20.1-6.29-25.24-16.31-12.39-24.19-16.56-50.8-18.93-77.23-5.45-61-9.37-122.09-8.7-183.36.31-27.92 5.42-55.62 4.05-83.72-.58-11.86-4-20-15.55-25.06-106.85-46.84-213.71-93.57-328.09-119.87-16.95-3.9-34.12-6-51.27-8.29-6.23-.84-14.39-3.4-18.51 3.23-3.64 5.86 2.5 11.15 5.32 16.09 32.69 57.33 62.53 116.15 91.71 175.32 10.33 21 18.57 42.77 26.91 64.55a116.05 116.05 0 016.55 25.11c1.59 11.26 3.81 23.52-8 30.71-10.73 6.54-20.85.74-29.64-5.47-25.24-17.81-46-40.41-65.93-63.72-65.4-76.69-124-158.46-179-242.82-12.29-18.87-27.51-25.95-49.18-28-61.44-5.88-122.34-5.76-182.82 7.87-31.54 7.11-61.18 18.58-87.41 37.84-31.15 22.86-52.63 52.18-61.73 90.39-12.28 51.57-20.21 103.25-10.49 156.27 4.73 25.81 13 50.24 25.91 73.12 22.12 39.21 54.6 58.25 100.61 60.61 86.33 4.43 173 5.72 258.66 19.69 11.21 1.83 22.35 4 32.58 9.19 17.54 8.87 19.63 20.14 6.26 34.77-9.18 10-21.31 15.91-33.31 21.71-46.14 22.27-95.49 33.23-145.78 40.65-43 6.35-86.1 6.47-128.44-1.76-4.27 6.06-.69 10.23 1.12 14 37.39 77.87 80 152.27 144 212 29.3 27.32 62.33 47.33 102.59 54.64 21.79 4 42.48-.94 63.4-4.24 65.54-10.33 122.23-41.89 175.7-78.47 67.12-45.93 139.91-50.46 216.4-37.25a72.82 72.82 0 0127.69 11.11c16 10.53 16.52 23.75 1.63 35.41-10.78 8.45-23.5 12.2-36.74 14.75-49.13 9.46-99 13.19-148.59 19.26-85.88 10.53-148.61 58.15-203.36 119.94-16 18-13.11 31.67 8 43.75 29.53 16.91 62.6 23.18 95.61 27.12 102.47 12.22 204.74 13 305.58-13.24 49.57-12.89 96.25-31.61 131.82-71 6.87-7.61 9.81-19.59 22.2-21.62 27.64 14.06 41.39 39.56 54.21 65.86-.3 24.09-7.07 47.2-11.56 70.55-18 93.83-36.45 187.58-54.38 281.42-1.49 7.81-2.75 15.72-6.71 22.8-22.72 9.65-56.65-14.3-55.42-41.18 1.1-23.95 1.75-47.61-.68-71.54-5.74-56.48-38-100.18-91.23-110.35-51.71-9.88-102.64-.23-151.36 22.17 5 10.35 13.22 12.43 19.72 16.62 34.19 22 68.42 43.95 97 73.35 4.18 4.3 8.56 8.45 11.62 13.67 3.93 6.71 5.42 14 1.27 20.87-4.51 7.5-12.42 7.26-19.69 6-14.92-2.63-26.59-12-38.68-20.18a633.5 633.5 0 01-92.53-76c-15.58-15.45-29.12-20.07-50.72-9.4-51.46 25.44-102 52-148.64 85.71-8.47 6.12-17.33 12.31-22 22.68 6.53 6.39 15 5.78 22.58 7.26 34 6.66 67.69 14.79 100.91 24.78 11.51 3.46 22.89 7.35 33.32 13.36 6.45 3.71 12.55 8.6 11.16 17.24-1.22 7.61-7.86 10.21-14.22 12.51-7.64 2.77-15.64 3-23.66 3.19a1101.64 1101.64 0 01-187.21-10.6c-11.31-1.61-21-.12-29.48 8.07-22.59 21.84-43.52 44.93-58.8 72.74-36.93 67.23-16.46 102.63 23.35 145.73 16.72 18.1 37.43 32.15 62.16 38.49 27.84 7.15 52.78 3.88 72.71-19.31 23-26.79 47.43-52.28 72.77-76.89a196.7 196.7 0 0132.71-26.16c7-4.38 14.79-7.16 22.29-1.13 6.75 5.43 5.79 13 4 20.31-10.76 45.07-32.65 84.19-63.67 118.38-5.36 5.91-11.77 10.8-18 18.47 21 8.46 42.47 12.16 63.72 14.81 34.35 4.29 69 6.11 103.22-2.59 19.51-5 34.44-15.92 46.07-32.75 19.07-27.62 29-58.19 33.59-91 5-35.15 10.82-69.93 36.31-97.64 11.37-12.35 22.85-24.43 38.1-31.82 15.61-7.58 24.6-.86 22.89 16.41-.82 8.25-4.84 15.14-9.24 21.87-12.39 19-24.82 37.91-37.65 56.58-25.51 37.09-32 78.38-27.58 122.06 2 19.86 10.56 24.78 28.34 15.7 35.85-18.32 61-49.11 87.6-77.92 15.84-17.15 28.36-37 40.8-56.73 3.82-6.06 6.45-13.44 14.69-15.4 6.46 2.1 7 7.72 7.89 13.14 1 11.42-2 22.38-4.28 33.37-10.08 49.3-18.9 98.84-28.76 148.19-6.53 32.64 0 60.36 27.66 81.27 4.38 3.29 10.8 6.32 7.84 14.08-6.57 1.7-13.27.85-19.9.85-222 .05-444-.22-666 .51-18.7.07-33.3-7.43-48.87-14.59-5.53-2.54-7.74-7-6.85-13 .48-3.3 1.62-6.49 2-9.78 1-9.46 6.31-21.6-7.79-24.83-12.49-2.87-19.25 6.52-23.47 17.21-2.73 6.92-2.58 14.4-4.14 21.55-1.36 6.27-4.11 11.32-11.38 12-6.87.67-11.4-2.82-14.59-8.43-3.7-6.5-4.43-13.92-6.29-21-13.48-51-27.29-101.85-58.21-145.88-10.93-15.57-23.79-28.89-42.45-34.91-8.4-2.71-17.58-4.41-24.56 2.56-7.31 7.3-4.18 16.3-.81 24.36 10.36 24.72 24.49 47.26 40.2 68.92 25.84 35.64 54.1 69.35 81.82 103.45 2.51 5.23 3.28 10.5-2.79 13.62-6.84 3.52-12.82.92-17.87-4.23-10.62-10.87-20.22-22.71-31.83-32.66-11.34-9.72-24.11-16.36-38.83-18.62-6.81-1-14.24-3.31-21.71 3.44 15.46 12.45 33.47 18.54 50.46 26.59 9.06 4.3 21.09 5.52 22.86 18.89-2.67 4.23-7 5.7-11.42 7.12-22.78 4.61-45.6 7.95-69 7.85-77-.33-154-.06-230.93-.24-6.93.01-14.42 2.19-21.19-2.03z"/><path class="prefix__cls-4" d="M5368.65 2091.37c2.64 16.93 5.07 33.9 8 50.78 5.17 29.94 10.58 59.84 16.05 89.73.95 5.18 2.69 10.22 4.07 15.32 12.88 22.25 13.73 47.17 15.59 71.8a12 12 0 01-6.51 11.42c-9.45 4.39-19.57 3.55-29.51 3.55q-1368 .09-2736.07 0c-9.31 0-18.69.47-27.74-2.3-14-6.31-13.89-20.1-16.09-32.11-19.31-105.72-39.13-211.34-57.92-317.15-3.23-18.2-7.31-36.3-7.75-54.9-.06-2.67.36.73.05-1.92-1.53.7-.6 2-.72 3.12a6.23 6.23 0 01-3.32 4c-3.63.17-5-2.38-6.21-5 2.62-14 4.72-28 8-41.83 2.68-11.23 10.82-17.29 22.3-18.73 7.81-5.79 16.83-5.81 25.94-5.44 63 0 126.09-2.47 189.06 1.25 9.06 2.62 10.12 9.51 8.91 17.38-4.29 28-16.48 51.89-38.49 70.05-12.85 10.6-26.77 16.95-44.16 9.57-10.54-4.47-19.83-.41-25.68 9.35-5.21 8.68-2.9 17.08 4.26 23.4 8.95 7.9 18.79 6.39 27.12-1 10.09-9 21.75-15.2 33.18-22 31-18.43 50-45.18 55.69-81.08 1.23-7.83 1.47-16.11 9-21.28l190.87-.2c7.86-5.68 16.85-5.9 26-5.44 61.67-.43 123.35-1.55 185 .52 10.87 1.71 13.77 8.44 12.46 18.7-4.44 34.8-21.88 60.84-52 78.55-9.47 5.57-19.08 4.4-28.85.62-11.65-4.51-21.13-1.57-27.11 9.56-4.68 8.72-3.18 17.32 4.56 23.35 10 7.79 20.24 6 28.57-3 7-7.6 15.92-11.74 24.78-16.4 35.35-18.58 56.94-47.28 62.76-87.2 1.05-7.18.68-15 8.55-19l190.94-.19c8-5.46 16.92-6.16 26.16-5.51 62 .08 123.95-2.6 185.85 1.4 12.52 4.69 11.56 15.57 9.88 25.19-5.75 33-24.07 57.08-53.83 72.43-8.46 4.36-16.79 2.49-25.12-.58-12.75-4.71-22.3-.69-28.07 11.35-3.89 8.12-2.37 16 5 21.4 11 8 21.3 5.61 30.23-3.89a57.12 57.12 0 0117.73-12.64c40.72-19 63.45-51.1 69-95.58.63-5-.15-11 6.6-13.1q83.57-.12 167.14-.27c7.95 0 15.9-.31 23.86-.47 7.84-4.91 16.52-5.58 25.44-5.09 62.74-.15 125.5-2.71 188.18 1.28 12.47 4.75 11.29 15.58 9.82 25.24-5.11 33.59-26.26 55.73-54.17 72.41-8.16 4.87-16.72 2.34-25-.76-12.73-4.75-22.33-.46-28.3 11.19-4.15 8.08-2.05 16 5.07 21.39 10.79 8.24 21.29 6.21 30.23-3.28 6.1-6.46 13.48-10.5 21.24-14.47 36.83-18.87 58.92-48.6 65.34-89.74 1-6.21-.75-13.74 6.9-17.4q83.52-.14 167-.3c7.95 0 15.9-.29 23.85-.44 7.6-6.19 16.67-5.08 25.5-5.18 62.85 0 125.72-2.66 188.51 1.34 13.33 5.44 11.53 17.13 9.46 27.22-6.38 31.23-25.28 53.56-52.66 69.05-8.81 5-17.77 3.76-27 .46-11.18-4-21.48-2.64-27.39 8.91-4.84 9.49-2.6 18.64 6.15 24.71 10.2 7.07 20.54 5.49 28.61-3.8 7.74-8.91 18.34-13.05 28-18.74 33.7-19.82 53.77-48.67 59.14-87.58.79-5.72 0-12.29 6.47-15.73q82.4-.11 164.81-.24c7.26 0 14.51-.56 21.77-.86a15.57 15.57 0 016.28-3.39c8.33-1.87 16.82-1.1 25.26-1.39 62.44.09 124.9-2.66 187.28 1.45 11.52 4.39 10.9 14.24 9.31 23.41-5.28 30.51-21.74 53.8-47.82 70.24-8.76 5.52-18.22 8-28.5 4.06a38.61 38.61 0 00-9.62-2.55c-10.44-1.1-18.52 2.56-22.13 12.77-3.19 9.05-.82 17.46 6.94 23.09s17.57 5.84 23.81-1.13c11.09-12.37 26-18.22 39.44-26.51 29.75-18.3 45.22-45.72 51.53-79.31 1.63-8.69.13-19.32 11.24-23.79 34.25-4.75 68.63-1.55 102.93-2.1 27.08-.44 54.19-.78 81.26.33 8.4.11 16.83-.38 25.23.25 3.51.08 7-.38 10.52-.1 21.31.68 42.63 0 63.94 0 31.84-.1 56.76 12.2 73.94 39.36 6.71 14.15 11.56 28.72 9.59 44.73-5.75 15.33-17 19.23-32 15.08-3.2-.89-6.32-2.13-9.61-2.6-10.32-1.48-18.67 1.66-22.93 11.59-3.76 8.74-2.67 17.43 5.22 23.39 9.07 6.86 19 6.47 27.28-1.36s16-16.16 27.73-18.48c4.08-.8 8-.31 10.62 3.59 9.82 33 14 67 19.94 100.76a21.46 21.46 0 01-1.66 13.44z"/><path class="prefix__cls-5" d="M2520.55 1927.72q1.89 2.27 3.79 4.52c12.24 18.66 2.29 38.08 0 56.28-12.52 98.39-25 196.8-38 295.13-44.39 334.85-87.53 669.86-131.46 1004.77q-52 396.36-103.65 792.75c-2.77 21.1-5.63 42.18-5.46 63.65.39 47.32 22.49 80.9 62.9 103.7 7.35 4.14 16.76 5.63 20.07 15.15-3.5 2.42-7.52 2.33-11.5 2.33q-90.69-.15-181.37-.33c-2.53-.75-5.47-.42-7.43-2.73-2.61-1.94-5.11-4-7.84-5.79-30.2-19.42-41.71-47.35-35.52-82 7.69-43.05 16.85-85.83 24.92-128.81 3.66-19.51 9-38.74 10.38-58.66 4.28-6.68-.74-13.61.49-20.38 1.54-5.85 1.95-11.86 2.53-17.86 3.52-18.2 7.18-36.36 10.78-54.54 1.12-8.08 4.34-15.76 4.6-24 3-11.68.95-25.08 11.65-34.11q30.26-155.25 60.46-310.52c4.53-23.41 8.38-46.95 12.55-70.44-5.36-20.87 5.32-39.91 6.91-60 .67-8.51 2.71-16.85 4.27-25.25 7.7-35.75 14.58-71.66 21.47-107.57 25.37-133.47 51.42-266.81 77.06-400.23 1.85-9.64 2.12-20.1 10.29-27.48 3.53-16.8 7.23-33.57 10.55-50.42q13-66.14 25.77-132.33c.63-3.24.91-6.55 1.35-9.83 1-17.56-3.88-36.27 10-51.34 5.51-27.36 11.07-54.71 16.47-82.1.63-3.22.43-6.62.61-9.93-3.12-13.5 1.42-26.29 3.6-39.3 1.08-6.23 5.43-10.93 7.79-16.57 5.4-26.68 11-53.33 16.19-80.05q25.51-131 50.75-262.07c.87-4.52.87-9.2 1.28-13.81 6.59-18.22 8.11-37.54 12.07-56.33 7.18-34.47 13.79-69.01 20.68-103.5z"/><path class="prefix__cls-6" d="M5974.69 4259.3c1.56 1.14 3 3 4.71 3.28a69.54 69.54 0 0011.9.81q123.95.06 247.9 0c2.66 0 5.33 0 8-.14 3.55-.21 6.5-1.56 7.54-5.28 2.65-9.54 8.29-16.62 17.25-20.86 10.5-5 21.36-7.47 32.91-4a16.24 16.24 0 001.94.5c14.86 2.46 15.73 1.62 17-13.26 3.91-45.15 10.84-89.78 24.52-133.11 3.19-10.13 7.4-20 11.52-29.77a87.69 87.69 0 0118.7-28.11c14.87-15 29.77-18 49.16-9.75 12.8 5.42 18.21 15.47 14.94 28.86a89.91 89.91 0 01-10.75 25.72c-4.87 7.94-9.6 16-15.1 23.53-23.88 32.55-40.15 68.89-53.76 106.6-3.6 10-7.47 19.93-10.82 30-1.56 4.69.37 7.35 5.21 8.85 7 2.18 9.93 1.65 11.84-3 3.8-9.22 7-18.68 10.87-27.88 8.72-20.92 18.32-41.39 31.06-60.27 6-8.93 13.34-16.58 21.22-23.79 16.94-15.5 41.07-10.67 54.18-3 8 4.65 11.21 13.27 8.59 22.5a57.16 57.16 0 01-12.81 22.36c-7.61 8.55-17 14.89-26.37 21.24q-32.28 21.8-64.29 44c-3.71 2.57-8.28 4.45-9.83 10.46 4.73 3.46 10.36 4.45 16.21 4.6 8.65.21 17.33.57 26 .3a110.22 110.22 0 0146.8 8.44 53.44 53.44 0 0021.34 4.26q132.94-.21 265.88-.18a52.24 52.24 0 005.95-.64c7.95.3 15.89.84 23.84.84l394.23.18c7 0 14.67-2.68 20.88 3.13-8 .09-16 .28-23.95.28q-337.45 0-674.92-.13c-72.54-.05-145.08-.82-217.62-.79-97.84 0-195.67.54-293.5.81-8 0-16-.25-23.95-.39-2.48-5.64 1.02-6.82 5.58-7.2zM2128.41 4262.94c2.85-.11 5.47.44 7.43 2.74-7.29.44-14.57 1.27-21.86 1.27q-337.87.11-675.76 0c-61.3 0-122.6-.85-183.9-.8q-389.83.32-779.69.93c-7.32 0-14.65-.27-22-.41-1.29-1-1.62-1.8-1-2.4a2.39 2.39 0 011.65-.75h468.74c7.29 0 14.59-.48 21.89-.74 6 .21 11.93.61 17.9.61 77.76 0 155.52-.06 233.27.12 12.76 0 25.15-1.09 37.23-5.38 11.34-4 23.26-5.21 35.11-6.68 3.42 2.33 7.34 1.26 11 1.62 9.77-.31 19 3.37 28.61 3.89 8 .43 8 .05 7.85-9.74-11.93-8.9-19.8-21.49-29.2-32.63-26.19-31.05-51.15-63.09-73.24-97.24-9.77-15.09-18.76-30.64-25.07-47.6-2.12-5.7-3.66-11.37-3.46-17.49.35-10.24 5.56-16.21 15.64-17.23 12.34-1.24 23.76 1.71 34.36 8.1 12.17 7.33 21.94 17.14 30.38 28.5 17.27 23.23 29.15 49.23 39 76.19a640.61 640.61 0 0124.76 86.22c.83 3.89 1.93 7.73 3 11.55 1.31 4.55 4.56 6.15 9.1 5.77s7.34-2.63 7.51-7.44c.21-6-.15-12.05.68-17.95 2.72-19.33 15.43-31.48 32.64-31.78 9.82-.18 14.62 4.13 15.43 14.23 1 12.14-1.06 23.8-7.08 33.19 2 4.55 4.77 4.72 7.34 4.7 7.23-.06 13.26 2.85 17.24 8.52 5.32 7.58 12.46 9.2 20.89 8.63 3.31-.23 6.66 0 10 0h657.56c8.73-.06 17.39-.36 26.05-.52z"/><path class="prefix__cls-7" d="M3447.23 1866.89a40 40 0 01-25 .31c1.91-12.4 2-25 6.46-37.1 15.07-41.17 44-66.73 85.87-78.58 15-4.25 30.2-3.54 45.42-3.93 3.76 1.26 7.45 2.83 11.29 3.75 48.86 11.71 77.59 43.79 91.18 90.72 2.36 8.16 2.22 17.06 3.24 25.61-1.87 12.43-1.23 25.08-5.43 37.35-11.3 33-31.65 58.12-63.1 73.58-9 4.41-16.69 9.1-23.44 17.19-12.14 14.58-34.91 9.9-42.79-7.3-4.78-10.44-2-19.54 4.9-27.67 6.52-7.73 15.08-10.59 25.08-8.38 1.92.43 4.09 1 5.49 2.24 10.47 9.28 19.66 4 28.85-2.21 30.22-20.37 47.38-47.65 45-85.22-4.47-3.75-4.76-9.18-6-14.33-12.56-53.92-53.6-81.86-108.92-74.18-35.81 7.31-58 29.68-70.07 63.29-3.72 7.97.44 18.47-8.03 24.86zM3011.47 1867a39.58 39.58 0 01-24.86.17c.64-24.55 8.33-46.67 22-67.07 37.47-55.92 123.3-74.25 183-19 22.35 20.7 35.1 46.28 37 76.92.21 3.35.57 6.61 2.7 9.38-.83 4.57-2 9.11-2.44 13.72-4.52 44.81-27.81 76.79-67.19 97.38-8.83 4.62-16.73 9-23.55 17.15-13.45 16.07-37.85 9.24-44-11-3.13-10.27.71-18.34 7.49-25.38 6.48-6.75 14.64-8.94 23.8-6.77a13.57 13.57 0 015.51 2.26c10.47 8.81 19.8 3.86 29-2.21q44-29 46.17-81.68c0-1.2-.91-2.44-1.41-3.65-5.65-4-5.09-10.36-6.23-16.13-8.22-41.61-44.82-72.76-87.12-74.24s-80.66 26.94-92.12 68.12c-2.07 7.48-.77 16.24-7.75 22.03zM2575.74 1866.93a39.47 39.47 0 01-24.87.23 129.41 129.41 0 0121.92-67.13c30.43-46.07 101.86-72.4 164.08-33.49 25.7 16.07 43.52 38.58 52.24 67.84a88.12 88.12 0 013.09 15.52c.65 6 1 11.91 3.53 17.45-1 5.9-2.17 11.77-2.95 17.69-5.68 42.88-28.67 73.52-66.53 93.31-8.84 4.62-17.36 8.49-23.59 17.26-7 9.83-18.24 10.47-28.95 6.56-10.39-3.79-15.33-12.72-16.3-23.21-1.49-16 16.38-30.45 32.16-26.48 1.91.48 4.09 1 5.5 2.22 10.41 9.11 19.79 4.06 29-2 30.45-20.2 46.54-48.25 46.11-85.2-5.56-6.31-6.35-14.37-8.35-22.07-10.63-40.88-46.74-68.43-89.63-68.64-39.24-.19-78.2 29.72-88.92 68-2.14 7.43-.94 16.13-7.54 22.14z"/><path class="prefix__cls-3" d="M453.31 4263.54a9.19 9.19 0 00-.66 3.15l-4.14 1.41a5.22 5.22 0 014.8-4.56z"/><path d="M2527.63 1930.13v-17.65c7.4 12.64 8.66 26.45 11.13 39.82 14.23 77 27.89 154 41.83 231q11.88 65.59 24.08 131.13c.72 3.88 2.3 7.6 3.49 11.4 8.74 11.77 9.93 26 12.42 39.66q105.06 577.14 211 1154.14 57.48 314.59 114.93 629.19c5 27.55 14.93 52.14 34.68 72.73 22.89 23.87 49.2 35.7 83.26 35.67q989.69-.81 1979.37-.4 138 0 275.92.06c9.92 0 20.06-1.2 29.53 3.25 2.6 1.4 3.23 3.42 1.91 6.06-8 .18-16 .52-24 .52H3063.25q-353 0-706-.52c-7.19 0-14.71 1.84-21.51-2.3 7.53-9 18.08-7.16 27.77-7.25 46.47-.46 92.93-.11 139.39.34 59.8 0 119.66-1.79 170.27.64-20.12-4.91-41-24.22-58.17-47.64-17.73-24.13-28.23-51.39-29.13-81.62-1.11-37.26-2.84-74.61-3.16-111.74-.64-72.61-4.25-145.1-5.7-217.65-2-101.15-5.16-202.29-8.2-303.42q-3.78-125.73-7.5-251.47-4.4-149.7-8.42-299.42c-2.35-87.15-5.37-174.29-7.78-261.45q-4-146.72-8.18-293.42-3.84-134.72-8.07-269.42c-1.86-58.57-1.91-117.05-1.91-175.57-.95-4.91-1.86-9.86.68-14.67z" fill="#5388d8"/><path class="prefix__cls-7" d="M2527.63 1930.13q.3 6.8.62 13.59c4.9 39.16-.61 78.27-1.12 117.38-.72 55.81-5.32 111.53-8.81 167.27q-5.73 91.58-10.88 183.2-4.67 80.67-9.32 161.35-5.14 88.62-10.54 177.23-4.8 79.67-9.36 159.35-5.34 90.61-10.74 181.23-4.71 79.67-9.28 159.35-5.29 90.61-10.77 181.23-4.79 77.66-9.11 155.36c-3.52 61.74-7.57 123.46-10.92 185.21-3 54.46-6.47 108.88-9.34 163.35-2.93 55.79-5.07 111.68-10.11 167.28-5.21 57.47 22.71 114.22 73.41 142.34 8.21 4.56 19.85 5.5 22.31 17.6q-72 .2-144 .45c-8 0-15.94.67-23.9 1l-7.1-.27c-4.92-2-10-3.73-14.76-6-48.36-23.12-74.21-61-75-115.07-.32-21.41 4.11-42.38 6.58-63.51 4.39-37.65 9.74-75.19 14.75-112.76 4.74-35.6 9.68-71.18 14.34-106.79s9-71.28 13.61-106.9 9.48-71.2 14.15-106.81c4.58-35 9-69.93 13.61-104.88 4.76-36.27 9.64-72.52 14.41-108.79q6.75-51.43 13.38-102.9 7.36-56.38 14.79-112.76c4.54-35 8.93-69.94 13.47-104.9q7.06-54.42 14.27-108.81 6.85-52.44 13.65-104.87 7.14-54.41 14.35-108.81c4.58-35 9-69.92 13.61-104.88 4.83-36.93 9.75-73.85 14.55-110.78 4.62-35.62 9.11-71.26 13.71-106.88q6.76-52.46 13.63-104.88 7.11-54.4 14.31-108.81 7-53.4 14.12-106.81c3.29-25.07 6.47-50.14 9.75-75.2q7.11-54.4 14.34-108.8c1.33-9.91 2.66-19.79 2-29.81a41.74 41.74 0 003.34-2.09z"/><path class="prefix__cls-9" d="M5871.28 4266.41c-4.64-.29-9.28-.83-13.92-.83q-141-.15-281.93-.15c-4.64 0-9.28.55-13.92.85a9.43 9.43 0 01-5.27-9.74c2.87-21.31-.77-43.08 4.58-64.2 12-17.45 16.18-37.91 21.18-57.85 28.38-113.25 50.76-227.58 60.82-344.1 1.26-14.54 5.06-28.86 3.33-43.64 1-17.44 1.47-35 8.85-51.3 14 .76 11.21 13.11 12.78 20.72 10.35 50.21 18.72 100.8 28 151.22 14.51 78.56 29.74 157 43.26 235.75 10.32 60.12-4.46 110.93-57.08 146.79-7.08 4.82-14.15 9.78-23.34 10.25 7.44-1.54 14.65-3 22.14-3 56.61 0 113.23-.09 169.84.07 6.65 0 13.37 0 19.47 3.37q3.63 2.3 1.21 5.79z"/><path class="prefix__cls-10" d="M5871.28 4266.41a6.5 6.5 0 00.91-3.13c-2-12 4.85-19.27 14.7-22.75 30.77-10.9 38-35.71 39.64-64.22.91-15.72-1.78-31.62 2.15-47.22 19.93-19.2 44-30.71 70.49-37.81 5.18 6 10.38 12 15.52 18 7.3 8.59 14.11 17.43 18.5 28 4.15 10 3.91 19.55-2 28.37a155.45 155.45 0 01-16.11 20.07c-12.5 13.2-22.64 27.34-25.55 46-1.65 10.62-7 19.9-14.79 27.56-4 .84-4.89 4-5.61 7.32zM5563.54 4191.6c.69 22.4 2.63 44.84-3 67-.59 2.33.61 5.12 1 7.7-8.6.23-17.19.65-25.78.66q-81.37.09-162.76 0c-7.26 0-14.53-.46-21.79-.71a6.67 6.67 0 00-.37-2.77c-.7-19.36 14.55-23.42 28.07-27.84 13.1-4.28 26.93-6.07 40-11.15 22-8.56 41.83-19.52 54.57-40.42 2.05-3.36 4.87-6.26 8.93-7.47 26.5 7.71 55 4.96 81.13 15z"/><path class="prefix__cls-11" d="M5163.88 1867l-145.22.42q-22.87.07-45.76.21c-4-2.06-5-6-5.58-9.87a134 134 0 00-29.3-66c-3.67-4.46-7.86-9.1-6.83-15.78 20.12-1.9 23.77-6 24.88-25.71 1.74-30.82-3.91-60.74-10-90.65-7.18-35.13-17.19-69.48-27.8-103.69-7.87-25.35-14.92-51-22.85-76.28-3.76-12-8.44-23.79-13.23-35.46-3.53-8.58-2-15.44 4.8-21.53 10.88-9.72 20.09-21 32.44-29.47 11.41-7.78 20.89-18.32 31.64-27.25 19.9-16.52 40.56-32.06 60.42-48.58 35.33-29.38 73.78-54.21 111.83-79.7a398.59 398.59 0 0179.56-41.08 118 118 0 0113.34-4.06 5.68 5.68 0 017 7c-3 13.57-6.26 27.09-9.34 40.64-6.88 30.33-13.46 60.71-18.1 91.5-2.67 17.64-7.3 35-9.75 52.66-2.36 17-6.65 33.82-6.08 51.22.2 5.93.52 12.33-1.35 17.78-5.32 15.48-1.82 30.25 2 45.07 2.21 8.66 11.65 12.18 18.88 6.81a76.25 76.25 0 0014.22-13.93 123.75 123.75 0 0011.69-18.52 849.91 849.91 0 0046.84-103.53c11.06-29.9 23.62-59.3 33.3-89.63 6.24-19.54 15.19-38.17 19.18-58.55 2.28-11.59 7.39-22.62 11-34 4-12.65 8.2-25.27 11.37-38.13 2.61-10.55 8.21-17.14 18.14-22 35.47-17.19 72.46-29.85 110.65-39.14a379.82 379.82 0 0150.82-8.78c13.85-1.44 27.6-3 41.55-3.44 30.5-1 59.16 6.51 87 17.95 5.45 2.24 10.38 5.93 15.24 9.39a171.75 171.75 0 0142.12 42c18.21 26.35 33.56 54.26 42.6 85.27 2.05 7 4.51 13.92 6.67 20.91 10.35 33.44 13.85 67.16 7 102-2.31 11.85-6 23.1-9.39 34.5-5.81 19.47-20.14 33-35.39 44.73-9.21 7.06-21.33 10.61-32.51 14.75-33 12.24-66.33 23.67-99.3 36-41.06 15.35-82.7 29.33-121.89 49.28-13.13 6.68-25.39 14.6-34.89 26.14-3.07 3.72-2.75 7.09.41 10.64a23.2 23.2 0 0011.83 6.92c21.77 5.9 43.41 12.22 66.35 11.53 10.66-.32 21.34.07 32-.08 13.25-.2 26.39.49 39.61-3.16 10-2.78 20.94-2.43 31.44-3.8 39.42-5.13 76.22-17.47 111.47-35.26 2.93-1.48 5.83-3.28 9.66-2.36 3.25 5.39 2.34 11.58 1.43 17.15-3.53 21.53-7.53 43-11.79 64.38-4.94 24.73-11.84 48.9-19.51 73a515.89 515.89 0 01-37.31 88c-16 29.72-37.24 54.89-65.2 74.15-15.09 10.39-32.42 15.08-49.77 19.74-16.24 4.36-32.82 4.47-49.46 4.13-8-.16-16-.37-24 0a214.21 214.21 0 01-61.19-6c-7.46-1.79-9.17 3.29-13.22 5.9-6.85-6.23-4.84-14.71-5.56-22.42-8-86.79-97.81-134.83-173.53-92.15-28.31 16-46.85 40.54-55.2 72.41-2.4 9.09-2.96 18.81-10.08 25.81z"/><path d="M5871.35 2724.38c4.94 22 10 44 14.8 66.12q10.52 48.75 20.62 97.59a149.52 149.52 0 01.83 59.35c-12.93 68-28.6 135.32-44 202.74-1.44 6.3-5.09 8.91-11.08 9.24-20.52 2-38.25-2.85-50.69-20.66-5.19-6.77-5.93-14.51-5.3-22.7 3.86-50.52 3.31-101.2 5.35-151.79a463.74 463.74 0 00-.67-55.92c-.55-6.85-2.32-13-6.29-18.58q-17.32-24.46-34.39-49.1c-.94-1.35-1.83-2-3.38-1.34-3.59 3-2 7.2-2.08 10.85a1956.15 1956.15 0 007.45 211.6 35.05 35.05 0 00.39 4c2.48 12.19-.85 22.28-10.78 30-4 6.45-9.7 10.69-16.6 13.69-81.64 35.55-165.92 55.86-255.72 44.4-11.87-1.51-23.93-.09-35.75-2.43-18.37-4.2-38-.08-55.78-8.18-12.68-7.71-13.93-20.93-13.87-33.28.34-70.9-3.05-141.81 2.13-212.74 2.54-34.86 4.2-70.1-1.46-105 12.21-43.16 8.46-88.1 14.36-132 3.27-24.34 6.58-48.72 9.5-73.11 7.58-32.67 18.49-64 36.86-92.44 19.5-28.45 42.53-53.61 70-74.6 7-5.33 14.16-9.81 23.54-7.62 25.89 4 49.64-2.87 72.76-13.73 19.64-9.22 38.55-20.39 60.5-23.77 63.81 25.86 115 66.17 143.19 130.49 11.05 25.21 25 50 25.56 78.81a83.08 83.08 0 008.78 27.24c17.98 35.49 28.1 73.21 31.22 112.87z" fill="#2b468b"/><path class="prefix__cls-13" d="M5831.34 2584.2c-4.64-4.45-4.58-10.89-6.52-16.38q-11-30.93-23.91-61a206.92 206.92 0 00-57.86-77.32c-23.94-20.14-49.78-37.43-78.09-50.9-31.94-25.55-42.31-74.4-23.21-109.17 36.58-38.68 45.49-86.2 45.11-137.22-.1-14.18-12.15-25.31-8-39.9 34.68-11.36 69.44-22.51 105.05-30.66 29.14-6.67 58.42-12.39 88.59-10.15 2.6.19 5.19.5 7.46.72a7.78 7.78 0 01-.5 8.09q-8.88 14.4-18 28.64-25.78 40.26-49.49 81.79a551.29 551.29 0 00-32.65 66 44.39 44.39 0 00-3.38 17.43c.1 13 5.94 16.79 17.66 10.18 10.95-6.18 21.37-13.49 30.1-22.68 15.09-15.87 31-30.84 45.12-47.81 11.81-14.2 24.45-28 36.52-42.09 18.95-22.13 36.53-45.43 54.68-68.24 9.08-11.42 18.18-22.82 27.18-34.3 2.1-2.69 4.19-4.9 7.85-5.48 20.36-3.24 41-6.55 61.4-3.78 26.83 3.63 54.06 4.63 80.45 11.61 28.74 7.61 54.85 20.78 76.7 40.49 14.26 12.87 25 29.74 28.8 49.2 5.06 26 10.95 52 9.47 78.69-1.89 34.26-9.83 67.09-28.56 96.19-9 14-21 25.82-37.17 32.19-2.47 1-5 2.73-7.45 2.65-22-.7-43.67 8.08-65.38 3.9-21.24-4.1-42.35-2.72-63.55-3.3-3.32-.1-6.89-.67-9.95.26-18.92 5.77-38.33 3.39-57.52 3.43-11.57 0-22.22 3.54-33.18 5.95-3.1.69-6 2.87-8.71 4.7-3.66 2.42-4.19 6.83-1.11 10.34 5.27 6 10.59 11.84 17.83 15.75 31.2 16.83 63.81 29.59 98.9 35.61 20.86 3.57 41.59 8.16 62.94 7.81 9.94-.17 19.94.78 29.55-3.23 3-1.25 7-1.22 9.12 1.79s-.12 6.42-1.69 9.24c-4.51 8.12-9.37 16.05-13.89 24.17-15.53 27.92-34.15 53.69-54.33 78.39-4.62 5.64-8.59 11.84-13.52 17.18a233.91 233.91 0 01-67.9 51.47c-12.67 6.32-26.38 8.93-39.86 12.33-4.35 1.1-9.38.77-13.87-.1-27.37-5.37-54.51-11.84-79.86-23.79-12-5.64-23.2-12.85-34.66-19.53-2.73-1.61-4.78-1.79-6.71.84z"/><path class="prefix__cls-4" d="M5444.08 3146.68c11.28.47 22.66.18 33.84 1.52 83.38 10 162.75-5.34 239.53-37.34 11.63-4.85 23.12-10.05 34.66-15.09 5.2 17.41 3.75 35.64 6.52 53.4a417.71 417.71 0 014.9 57.6c.74 47.67 10.19 93.7 23.75 139.11 14.29 47.84 30.48 95 52.09 140.07 10.09 21.05 21.49 41.22 35.74 59.85 19.25 25.16 30.41 54.5 40.9 84 19 53.34 32.12 108.28 43.92 163.56 12.08 56.55 21.82 113.53 30.76 170.63 5.44 34.78 9.18 69.83 13.85 104.74 1.12 8.33-.21 15.84-5.37 22.56-21.43 14.32-44.84 24.94-67.9 36.21-13.7 2.71-16.06-9.34-20.8-17-36.86-59.39-71-120.37-106.19-180.76-45.23-77.67-88.22-156.54-127.32-237.49-5.73-11.87-12.61-23.21-15.68-36.12 2 6.16 4 11.66-6.33 10.89-17.18-79.5-61.62-147.74-92.11-221.74-38.3-92.95-79.9-184.55-117-278-2.59-6.49-7.43-13.22-1.76-20.6z"/><path class="prefix__cls-11" d="M4728.12 1867l-4.37-.44c-7.12-12.74-14.44-25.39-21.32-38.25a126.83 126.83 0 01-14.24-49.34c-.75-8.65-4.22-16.55-4.46-25.41-.46-16.81 4.54-32.74 5.92-49.19 1.3-15.69 8.63-29 15.23-42.77 14.07-29.4 29.33-58.2 47.29-85.32 9.81-14.82 19.07-30.28 32-43 9-8.8 15.45-19.76 24.49-28.74 9.5-9.44 20.3-17.06 30.51-25.5 4.75-3.93 10.7-1.44 12 4.66a27.43 27.43 0 01.7 5.91c-.08 16.67 3.83 32.74 7 49a356.75 356.75 0 014.92 37.32 146.17 146.17 0 003.28 19.5c6.08 27.08 10.73 54.49 17.33 81.44 5.5 22.48 12.19 44.73 22.88 65.55 3.59 7 8.74 13.55 8.34 22.11-8.45 4.3-15.43-1.23-22.71-3.67-71.54-23.91-138.7 13.28-155.91 86.59-1.66 7.12-3.06 14.28-8.88 19.55z"/><path d="M5678.87 2092.27c16.33 23.4 16.36 49.6 12.48 76.19-2.48 17.06-6.84 33.76-11.84 50.29-6.56 21.66-19 39.18-36.19 53.61-18.25-5.79-20.26-20.91-20.31-36.55 0-13.64.11-24.74-19.14-15.36-9 4.37-15.4-3.79-18.29-11.25-15.83-40.85-37.38-44.26-80.68-29.24-6.28 2.18-12.63 4.19-19.38 4.59a63.54 63.54 0 01-25.25-5.68c-5.61-7.42-11-14.95-14-23.92-7.95-23.37-1.31-44.14 19.35-57.33a84.54 84.54 0 0121.6-10c11.44-3.31 23.21-6.49 35-7.36 31.8-2.33 63.62-5.41 95.61-1.49 16 2 31.77 4.15 45.86 12.2 5.36 3.09 10.02 2.16 15.18 1.3z" fill="#2d3a64"/><path class="prefix__cls-13" d="M5460.27 2178.87c8.91 3.1 18.1 1.54 27.19 1.55 6.63 14.56.95 29.69 2 44.54 1.49 21.63-1.47 43.45 4 65 3.7 14.64 9.61 27.29 22.86 35.5 6.37 8 4.58 17.62 5.32 26.74 1.15 14.12 3.37 27.77 15.58 37.28 8.56 13.19 7.92 23-9.85 26.35-7-.4-12.37 2.31-17.76 6.87-23.8 20.14-46.12 41.61-64.27 67.13a63.3 63.3 0 01-5.2 5.81c-6.43-3.72-8.21-10.2-9.56-16.74-9.27-44.93-16.87-90.16-24.8-135.34-1-5.91-1.69-11.91 1.85-17.4 1.42-7.88-.29-15.46-1.7-23.2-3.36-18.51-6.13-37.14-9.13-55.73 1.62-1.15 3.51-2.06 4.82-3.5 19.74-21.82 43.81-38.44 67.47-55.81.15-6.28-8.57-3.65-8.82-9.05z"/><path class="prefix__cls-11" d="M5368.65 2091.37c-5.66-17.06-6.95-35-10.44-52.48-4.13-20.74-7.38-41.65-11-62.49-2-6.74 3.36-9.73 7.34-12.58 22.36-16 36.63-37.53 44.5-63.66 1.28-4.28 2.48-9.22 8.64-9.2-.21 10.08 3.87 14.82 14.58 17.39 14.68 3.51 29 9.48 42.63 16.2 22.51 11.11 46.53 19.38 66.86 34.82 14.8 11.23 16.15 28.62 3.89 42.75-16.49 19-37.78 31.21-59.26 43a523.21 523.21 0 01-78.22 34.46c-10.01 3.49-19.7 7.83-29.52 11.79z"/><path class="prefix__cls-7" d="M4728.12 1867c2.9-19 5.75-38 15.62-55 18.53-31.93 45-52.7 81.59-61.11 27.92-6.43 53.8-1.95 79.29 9.19 3.63 1.59 7.35 3 11 4.43 4.21 5.18 8.69 10 15.55 11.55 1.65 2.06 3.18 4.24 5 6.15 22.67 24 35.3 52.33 36.72 85.47-1.21 10.52-1.6 21.07-4.31 31.5-9.46 36.34-31.26 62.6-64.42 79.35-9 4.53-17.12 8.52-23.32 17.31-6.89 9.79-22.53 11-32.56 4.78a27 27 0 01-11-31.37c4.18-11.62 16.35-19.2 28.34-17.11a26.11 26.11 0 0111 4.28c6.43 4.86 12.21 3.59 18.46.06 34.64-19.59 53.88-48.21 52.54-89-5.15-5.82-5.3-13.47-7.35-20.4-12.35-41.81-48.56-70.56-88.71-70.28-43.31.3-77.84 27.25-90.18 70.45-2 7-3.25 14.31-8.49 19.92a38.78 38.78 0 01-24.77-.17zM5407.67 1891c-1 1.69-2.75 3.28-3 5.07-2.7 20.65-14.28 36.92-25.89 53.2-3.53 5-8.32 8.47-13.14 12.08-6.36 4.76-12.33 10-18.47 15.09-12.41 3.16-22.88 8.31-30.82 19.62-7.31 10.4-24.1 10.85-34.22 3.27a26.05 26.05 0 01-7.31-33.82c6.4-11.8 20.64-18.38 32.17-11.41 14.66 8.86 24.79 4.48 35-5.91 8.46-14.56 23.62-24.39 29-41.11.71-1.6 1.53-3.15 2.35-4.69a45.56 45.56 0 003.23-10 52.57 52.57 0 011.3-5.41c5-42.5-9.48-76.42-46.93-97.74-51.89-29.53-115.5-3.24-133.45 53.77-2.57 8.17-3.07 17.12-8.85 24.11a39.07 39.07 0 01-24.83-.09c.73-13.36 4-26.24 8.38-38.74 17.86-50.64 71-86.55 126.56-80.06 35.71 4.17 65.33 20.49 86.51 50.7 15.37 21.94 23.13 46 22.68 72.73-.07 4 .1 8 .16 11.95q-.17 3.66-.43 7.39zM4537.17 1867.62c-.88 8.57-1 17.32-2.77 25.7-8.33 38.81-30.63 67.22-65.83 85.26-8.88 4.55-17.09 8.7-23.39 17.3-6.89 9.42-20.43 10.67-30.83 5.4a26.09 26.09 0 01-14.1-26.41 26.54 26.54 0 0119.92-22.45c7.53-1.81 14.85-.59 20.9 4 6.51 4.94 12.29 3.52 18.43 0 34.31-19.78 54.36-47.93 52.38-89-4.55-4.63-4.56-10.83-5.87-16.63-9.17-40.46-46.44-72.42-86.07-73.91-44.23-1.67-81.54 25.45-94 68.33-2.21 7.62-3.26 15.7-8.78 22a39 39 0 01-24.84-.18c1.07-5.19 2.43-10.34 3.18-15.58 6.9-48.16 41.75-86.64 88.56-99.47 72.32-19.81 148.32 33 152.24 109.8.12 1.91.58 3.87.87 5.84zM3881.43 1867.2a39 39 0 01-24.72-.27c.94-3.86 2.4-7.66 2.74-11.57 5-56.76 50.76-93.83 92.85-104.42 62.37-15.7 141.68 26.75 148 108.9.2 2.63.73 5.24 1.12 7.86-1.76 10.44-1.3 21.06-4.1 31.52-9.7 36.22-31.37 62.52-64.46 79.39-8.9 4.54-16.68 9.14-23.42 17.2-12.16 14.53-35.06 9.89-42.78-7.33-4.6-10.26-2.65-19.47 4.73-27.6s16.28-11.16 27-7.89a9.69 9.69 0 013.62 1.61c10.37 9.38 19.63 4.23 28.81-2.09 29.87-20.53 47.9-47.35 45.21-85.15-4.77-4.51-4.7-10.74-6-16.52-9.21-40.47-46.34-72.43-85.91-74-44-1.77-81.08 25.24-93.81 68.61-2.22 7.55-2.72 15.79-8.88 21.75z"/><path d="M5801.81 3138.76c15 11.61 33.06 15.55 50.69 20.66-.3 22.17-8.16 41-22.71 57.95a456.09 456.09 0 01-31.18 33.54c-1.86 1.78-4.1 3.86-7 2.52-4-1.85-2.85-5.51-2.21-8.62 2.93-14.28 6-28.53 9.06-42.79.55-2.56 1.29-5.11-.79-7.74-8.75 2.63-6.6 14.17-14.12 17.77-6.64-10-6.51-10.76-7-22.82-.43-10.52 2.81-19.68 8.64-28.05 5.32-7.63 11.06-14.96 16.62-22.42z" fill="#feb37f"/><path d="M5871.35 2724.38c-4.35-15.24-8.81-30.46-13-45.74-6.16-22.38-12.15-44.8-18.21-67.2 9.75 6 16.6 15.07 24.69 22.81 10 9.6 19.78 19.55 29.51 29.48a64.39 64.39 0 018.93 10.56c8.19 13.07 5.31 24-8.09 31.49-5.77 3.22-11.73 6.13-17.7 9-4.17 1.96-5.17 5.71-6.13 9.6z" fill="#c7dbfa"/><path class="prefix__cls-17" d="M2343.41 2835.24c-2.78 16.32-5.3 32.69-8.38 49q-13.67 72.38-27.72 144.67c-6.68 34.54-13.64 69-20.25 103.56-8.11 42.35-16 84.74-24 127.09-.23 1.23-1.24 2.31-1.89 3.45-12.85-.48-21 15-35 10.42a14 14 0 01-6.58-7.25c-32.78-77.4-90.57-133.67-155.17-184.37-70.48-55.31-146.79-101.32-225.59-143.54-126.4-67.73-258-124-391.41-176-32.17-14.72-66.15-25.23-98.18-40.29 30 14.07 61.44 24.93 92.08 37.62 86.22 35.42 169.72 76.63 252.53 119.21 120.41 61.91 236.64 130.81 339.78 219.14 55.15 47.22 106.52 98.92 136.73 167.06 18.9 42.64 28.49 86 5.5 130.5-3.46.35-6.19 1.61-8.08 4.89-16.24 28.16-41.43 46.42-69.23 61.51-29.47 16-61.45 25.32-93.84 33.11-25.84 6.2-52.16 9.49-78.55 12.78-53.83 6.72-107.79 4.56-161.59 2.59A435.45 435.45 0 011674 3497c-20.74-5.24-41.22-10.4-60.13-20.66-8.44-4.59-15.2-10.61-19.16-19.59-2-4.49-2.58-8.78-.63-13.47 3.6-8.68 7.93-16.82 14.75-23.51 16.64-16.3 32.36-33.52 51.19-47.53 12.26-9.12 23.33-19.85 35.71-28.78 22.48-16.22 48.52-24.9 75-31.77a482.61 482.61 0 0172.47-12.92c33.66-3.43 67.27-7.51 100.81-12 11.79-1.58 23.36-5 34.93-7.92 8.56-2.19 15.69-7.3 22.28-13 5.67-4.88 6-12.21.89-17.63a31.6 31.6 0 00-7.9-5.9c-10.59-5.79-21.91-9.09-33.84-11.38-33.08-6.35-66.39-4.53-99.58-3.38-21.41.75-41.46 8.74-61 17.54-22.57 10.16-42.9 24.17-64 36.9-26.19 15.83-52.2 31.91-80.61 43.67-30.87 12.78-62.6 22.19-96 25.64a48.7 48.7 0 00-6 .55c-34.69 8.26-66-2.65-95.7-18.49-36.38-19.4-64.58-48.63-90.81-80-22.28-26.63-41.66-55.22-59.26-85.05-19-32.11-37-64.72-51-99.41-1-2.42-1.53-5-2.19-7.22a7.48 7.48 0 017.77-2c33.23 9.24 67.36 9.68 101.08 6.81 61.19-5.23 120.9-18 177-44.16a179.33 179.33 0 0022.42-13.05 40.65 40.65 0 0013.81-14.29c3.8-6.9 3-11.14-3.51-15.11-12.18-7.43-25.82-10.48-39.68-12.48q-39.42-5.67-79.11-9.08c-20.59-1.79-41.29-1.25-61.65-3.79-25.24-3.15-50.76-.72-75.63-4.2-24.44-3.43-49.13-1.07-73.45-6.29a89.26 89.26 0 01-40.58-19.82c-21.89-18.69-36-42.7-46.18-69.05-15.41-39.83-19.33-81.53-15.74-123.66a465 465 0 0115.54-86.11c10.09-36 30.61-64.57 60.57-86.67 32.35-23.87 69.36-35.75 108.26-43.46 44.78-8.88 90-9.58 135.16-7 19 1.11 38.42 1.83 57.37 6.25 7.9 1.84 13.22 5.19 17.46 11.62 10.27 15.55 20.8 30.93 31.13 46.44 38 57 78.62 112.23 120.7 166.27 25.31 32.51 52 64.07 82.44 92.21a169.9 169.9 0 0025.34 19.33c3.91 2.45 8.13 4.51 13 4.74 5.7.27 11.24-3.09 11.67-8.55.51-6.58.8-13.43-.47-19.84a165 165 0 00-8.2-28.72c-9.1-22.87-18.1-45.76-29.07-67.88-23.37-47.14-47.17-94-72.68-140.06-7.1-12.8-14.68-25.33-22-38a77.27 77.27 0 01-5.29-10.67 3.92 3.92 0 013.72-5.57c11.31-.16 22.76-.86 33.91.54 27 3.39 53.54 9.69 79.9 16.57 50.29 13.12 98.94 31 147.35 49.73 50.29 19.43 99.61 41.13 148.9 62.91 3.65 1.61 7.14 3.58 10.72 5.36a9.61 9.61 0 015.69 9.68c-1.1 24.57 1.8 49.27-2.61 73.74a69.86 69.86 0 00-.79 11.94c-.06 23.32-1.65 46.78.39 69.92 2.47 27.91 1.21 55.93 3.77 83.67 3.05 33 5.1 66.21 14.9 98.29 2.76 9 5.94 17.73 11.35 25.32 8.05 11.28 22.06 11.14 30.31.13 5.74-7.67 8-16.83 10.1-25.86 2-8.38 3.77-17 3.89-25.57.4-27.9 2.86-55.89-2-83.69a60 60 0 01-.92-9.92c-.15-24.67-4.72-48.86-7.38-73.26-3.9-35.67-9.64-71-16-106.26-.86-4.8 2.4-8.25 6.77-6.85a183.41 183.41 0 0120.59 7.52 446.57 446.57 0 01112.84 74.5c15.38 13.74 30.9 27.33 46.31 40.98z"/><path class="prefix__cls-6" d="M2139.23 3895.49l-11.3 55.13c-2.84 4.32-2.49 9.74-4.91 14.21-1.34 4-2.38 8.26-6.63 10.46-25.61 47.39-59.15 88.48-99 124.53-12.89 11.65-26.54 22.29-42.1 30.2-4.73 2.4-9.48 4.8-15 5.22-8 .59-13-2-15.85-9.17a56.21 56.21 0 01-4.24-21.43c.11-14.66-.27-29.32.08-44 .4-16.22 5.42-31.41 12-46 6.88-15.21 15.5-29.45 24.87-43.26q16.26-24 32.12-48.24c4.82-7.35 8.12-15.27 7.49-24.39-.37-5.39-4.65-8.84-9.57-6.82a64.2 64.2 0 00-14 7.45c-33.51 24.79-56.1 56.31-61.17 98.87-1.73 14.5-4.91 28.82-7.45 43.23-4.95 28.06-16.85 53.05-32.81 76.47-9 13.22-21 22.31-35.48 28.09a138.88 138.88 0 01-42.67 9.58c-48.51 3.22-95.55-4.66-141.95-17.83-1.75-.5-3.15-2.19-4.54-3.19.41-3.41 3-4.55 4.93-6.21 37.53-32.09 61.85-72.8 77.27-119.17a124.23 124.23 0 005.32-25.26c.79-7-5.79-11.31-12.09-8.33a67.83 67.83 0 00-13.51 8.37c-8.3 6.67-16.59 13.44-24.18 20.89-20.91 20.54-42 41-61.16 63.18-5.66 6.55-12.45 12.11-18 18.7-19.53 23-44.36 24.68-71.13 17.92-30.21-7.63-53.54-26.22-74.17-48.54-6.3-6.82-11.53-14.64-17.2-22-23.9-31.19-24.77-64.94-10.63-100.08 10.83-26.92 27.6-50.13 46.89-71.51 8.92-9.88 18.9-18.79 28.1-28.43 5.59-5.85 12-7.71 19.86-6.75 14.53 1.78 29.13 2.91 43.64 4.81 51.64 6.78 103.48 8.75 155.5 7.14a74.82 74.82 0 0027.21-5.63c6-2.56 7.27-8.85 2.22-12.59a71.3 71.3 0 00-15.39-9.07c-9.22-3.74-18.78-6.71-28.29-9.72-37.49-11.9-76-19.71-114.49-27.16-5.25-1-12.72-.65-14.51-5.05-2.57-6.32 5-9.81 9-13.77 19.91-20 43.73-34.8 67.78-49.11a1257.54 1257.54 0 01120.47-62.73c8-3.67 13-2.67 19.36 3.16 18.13 16.68 36.78 32.81 55.51 48.83 23.81 20.37 48.5 39.6 75.68 55.4 7.55 4.39 15.23 8.23 24.33 7.95 6.28-.19 9.78-4.08 9.37-10.21-.43-6.4-3.66-11.3-7.76-15.8a267.48 267.48 0 00-33.55-31.33c-28-21.69-57.46-41-87.67-59.33-2.84-1.73-5.7-3.43-8.43-5.33-2.38-1.65-2.15-4.95.48-6.53a142 142 0 0127.14-12.57 286.74 286.74 0 0184-15.93c5.33-.2 10.68-.2 16-.59 47-3.47 82.72 15.75 107.67 54.93 13.06 20.51 19.7 43.55 21.67 67.86.48 6 .88 12 1.78 17.88a103.54 103.54 0 01-.16 29.83c-1.27 9.22-1.51 18.58-2.18 27.87-.3 4.21.75 7.85 4.3 10.56 13.2 10.07 25.77 21.18 42.38 25.62l-6.79 34.08c-6.64 7.26-6.63 15.76-4.46 24.64z"/><path class="prefix__cls-17" d="M2391 2591.32c-3.15 17.16-5.16 34.53-10 51.35-.38-7.2-3.73-11.9-10.13-15.81-66.41-40.61-131.11-83.88-195.25-127.94-49.3-33.87-97.73-69.07-144.06-106.94-25.7-21-51.09-42.53-74.82-65.9-16.66-16.42-31-34.73-45-53.3-6.88-9.11-11.31-19.6-14.29-30.57-5.22-19.19 2.33-34.19 21-41.71 17.93-7.24 36.34-7.07 54.81-2.37 23.49 6 44.83 16.92 65.06 29.84a641.43 641.43 0 0199.77 79.3c13.88 13.38 29.24 25.4 41.92 39.81 12.34 14 25.72 27 38.3 40.67 26.05 28.42 52 56.92 76.11 87.06 19.92 24.9 40.55 49.24 60.74 73.93q10.71 13.13 20.76 26.78c4.46 5.92 8.8 11.76 15.08 15.8z"/><path class="prefix__cls-6" d="M2175.81 3395.47c-2.07-4.55-1.37-8.72.63-13.31 7.6-17.51 9.49-36.17 7.07-54.73-2.31-17.7-6.21-35.39-13.56-51.85-13.62-30.48-31.16-58.5-51.94-84.77-24.52-31-53.5-57.53-81.88-84.57-19.13-18.23-41.06-33.59-62.11-49.75-31.64-24.28-64.72-46.55-98.44-67.81q-48.88-30.82-99.07-59.56c-68.25-39.1-139.14-72.91-209.4-108-22.57-11.27-46.09-20.66-69.09-31.08-19.39-8.78-38.66-17.81-58-26.73 0-6.84 3.46-6.59 8.12-4.09 25.85 6.58 50 17.77 74.58 27.73 40.61 16.46 81 33.56 121.3 50.66 12.84 5.45 25.43 11.54 37.93 17.74 42.25 21 86.54 37.77 127.13 62.13 4.55 2.74 9.41 5 14.17 7.35 41.61 20.85 81.72 44.34 121.6 68.32 34.77 20.9 68.26 43.68 100.83 67.68 19.67 14.49 38.64 30.17 57.08 46.45 13.95 12.33 28 24.44 40.9 37.87 33.8 35.3 62.18 74.32 80.32 120.1 1 2.6 2.26 4.73 4.71 6.08 8.13 29.91 8.32 60.7 10 91.32.18 3.2-.93 6.45 1.05 9.44-4.35 28.11-9.1 56.13-16.32 83.68-2.1-2.49-4.67-4.74-6.23-7.53-11.04-19.77-25.3-36.98-41.38-52.77z"/><path class="prefix__cls-17" d="M2416.07 2459.78a149 149 0 01-8 39.51c-10.88-12.7-18.26-27.7-26.5-42-28.54-49.54-57.32-99-81.72-150.78-15.86-33.67-30.63-67.79-40.32-103.93-3.68-13.76-4.49-27.52-3.92-41.48.84-20.55 16.66-31.2 35.79-23.91a54.76 54.76 0 0124 17.17c15.52 19.52 26.29 41.7 35.52 64.45 20.26 50 34.36 101.84 45.46 154.56 5.19 24.65 10.53 49.28 15.8 73.91 4.72 3.14.82 8.88 3.89 12.5z"/><path d="M1315 4247.22c4.45 5.4 5 10.13 1.16 10.43-13.44 1.08-27.14 4.84-40.13-2.31 8.16-2.72 3.13-5.6.1-8.45-19.3-8.82-38.68-17.48-57.87-26.53a234.44 234.44 0 01-20.8-11.66c-2.2-1.33-4.08-3.57-3.64-6.57.57-3.92 3.82-5.53 7-6 11.2-1.82 22.28-1.91 33.46 1.4 19.18 5.67 34.15 17.33 47.35 31.66 6.29 6.82 12.19 14 17.87 21.37 3.3 4.26 7.15 5.51 12.17 4.46 4.74-1.02 3.64-4.57 3.33-7.8z" fill="#84b57b"/><path d="M1276.09 4246.89a51 51 0 017.41 2c2.26 1 5 1.76 5.51 4.92-4 3.21-8.72.7-13 1.48l-8.54-3.89c3.24-.76 6.86-.88 8.62-4.51z" fill="#cfe4dc"/><path d="M2116.39 3975.29l4.25-11.79c3.66-.91 5.44.08 4.19 4.14-.83 6.81.19 14-4.48 20-1.03-4.22.65-9.28-3.96-12.35z" fill="#e0e0d7"/><path d="M2416.07 2459.78c-4.52-3.18-4.16-7.84-3.81-12.5l7.24-3.86c1.21 5.95-.75 11.23-3.43 16.36z" fill="#e1e0d3"/><path class="prefix__cls-9" d="M5407.58 2326.13c4.17 22.76 8.3 45.52 12.53 68.27 4.48 24.06 9 48.11 13.61 72.14 1.89 9.74 4.23 19.38 6.37 29.07-4.56 8.85-9.21 17.65-13.65 26.56a199.83 199.83 0 00-14.9 39.1c-1.82 7.06-3.47 14.23-7.81 20.33-3.15 13.7-15.81 19-24.56 27.71-18.77 18.68-37 37.87-58.87 53.28-13.78 9.72-26.62 11.51-39.75.37-13.37-11.36-33.07-14.94-40.92-33.13-13.15-59.39-14.92-60.81-75.75-61-7.25 0-14.49 0-21.73-.44-29.58-10.21-52.87-30.54-77.71-48.44-6.42-11.86-9.19-24.25-5.39-37.58 14.61-11.9 33.13-10 49.95-14 8.22-2 16.58-3.33 24.84-5 26.78-5.16 35.07-17.91 26.26-40.48-5.6-14.34-16-17.05-42.48-10.94-43 8.34-86.47 14.36-129.23 23.08-57.86 11.79-116 22-173.84 33.58-13 2.36-22 11.81-32.76 18.23-11.84 7.88-23.56 16-37.48 24-.74.19 3.1 2.55 1.65.31-.63-1-.26-1.4 1-1.71 13.44-3.27 25.23 4.91 38.13 5.41 11.13 2.49 22.35 4.51 33.51 6.87h5.75c4-.27 7.73-1.77 11.62-2.61 51-8.85 101.22-21.82 152.85-26.83 15.51 8.82 18.42 28.39 32.66 38.32.66 8.7 4 16.07 9.8 22.78 6.38 7.42 12.39 15.34 11.76 26.11-2.51 16.29 2.7 31.67 5.57 47.3 5.39 29.45 10.67 58.91 16.76 88.23 8.18 39.38 16.63 46.39 56.25 46.8 27.93.29 55.89-1.14 83.8.88 13 2.28 22.38 11 32.26 18.59 33.07 25.42 67.69 37.83 108.37 17.13 8.91-4.53 18.79-10.21 30.07-7.42 9.68.33 9.84.33 9.68 5.65-1.08 35.82-2 71.65-3.39 107.46-2.7 69.66-2.2 139.34-1 209 .1 5.95 1.34 11.89 1.47 17.84.15 6.7 4.79 8.89 9.77 11 8.5 10.54 8.3 23.34 9.31 35.82 6.54 80.42 12.09 160.92 19.78 241.25.57 29.92 4.57 59.59 6.75 89.39 1 13.86 4.05 27.76-2.38 41.16-7.45 5.48-10.71-1.63-14.15-5.46-9.63-10.71-21.56-15-35.57-15-38.58-.06-77.18-.52-115.76.17-28.09.5-35.31 9.6-30.63 37.56 6.47 38.7 15 77 22.28 115.59 5.47 28.89 16.82 38.14 46.81 38.65 41.23.7 82.49 1 123.73-.31 6.52-.21 13.34-2.3 19 3 7.08 15.63 6.23 32.75 7.22 49 4.24 69.72 10.28 139.31 13.75 209.1 3.27 65.67 8 131.43 18.37 196.54-6.79 18.43-20.45 30.6-36.88 40.12-17.37 10.08-36.29 16-55.82 20.13-1.94.41-4 .46-5.91.84-14.5 2.79-26.07 9.48-31.71 24H3065.4c-3.33 0-6.68-.16-10 0-25.58 1.51-46.64-9.26-65.74-24.66-28.31-22.83-43.53-52.95-49.43-88.58-6.73-40.66-14.41-81.15-21.74-121.71q-11.35-62.79-22.83-125.56-10.2-55.91-20.46-111.81-11.55-62.76-23.17-125.5c-7.52-40.52-15.27-81-22.62-121.54-8.78-48.4-17.08-96.88-25.9-145.27-7.27-39.89-15.13-79.67-22.5-119.53-8.35-45.1-16.41-90.25-24.67-135.37-9.09-49.69-18.38-99.34-27.37-149.05-12.66-70-25-140-37.73-210-9.9-54.27-20.38-108.43-30.41-162.68q-18.14-98-35.95-196.14c-5.39-29.42-10.8-58.84-16.05-88.29-.69-3.89-.45-7.95-.65-11.94 6.66.09 13.32.26 20 .26h2763.4z"/><path class="prefix__cls-3" d="M4317.18 1867.14c2.2-39.15 20.27-68.29 55.54-85.8a95.14 95.14 0 01107.59 15.8c12.78 12.09 23.12 25.5 28.38 42.69a72.81 72.81 0 013.19 27.52z"/><path class="prefix__cls-22" d="M2575.74 1866.93c-3.17-41.85 34.19-78.33 62.27-89 38.41-14.62 81.83-2.83 107.51 26.12 15.85 17.87 24.7 39.09 24.63 63.45q-86.31 0-172.61-.1c-7.26-.03-14.54-.32-21.8-.47z"/><path class="prefix__cls-11" d="M4752.92 1867.13c2.12-34.78 16.73-62.41 46.82-81 58.14-35.81 124.66-1.9 142.8 50.12 3.51 10.07 6.89 20.19 5.12 31.14z"/><path class="prefix__cls-3" d="M3881.43 1867.2a107.6 107.6 0 0112-43.7c29-57.11 108.18-70.29 154-23.56 18.59 19 30.19 40.23 28.61 67.42z"/><path class="prefix__cls-22" d="M3011.47 1867c-3.26-46.46 42.43-101.93 106.78-94.79 42.94 4.76 71.37 30.55 84.48 71.34 2.36 7.35 1.39 15.77 2 23.69z"/><path class="prefix__cls-3" d="M3447.23 1866.89c.22-5.75.39-11.5.65-17.25.17-3.89.84-7.63 3.92-10.46 6.7.56 11.31-3.33 15.53-7.65 18.52-19 38.21-36.78 55.89-56.58 10.55-6.15 22.25-4.21 33-2.7 51.78 7.25 86.76 51.21 84.07 95z"/><path class="prefix__cls-11" d="M5188.71 1867.09c.73-55.81 50.62-104.49 113.46-94.34a96.77 96.77 0 0181.92 96.42c-.08 7.77 1.93 16.08-3.78 23-6.05-20.75-22.92-24.92-41.32-30.49-48.51-14.69-95.39-4.19-142.65 4.85z"/><path class="prefix__cls-23" d="M3314.84 2254.37h-53.9c-5.34 0-10.62-.12-15.69-2.18-8.17-3.32-13.28-10.43-12.91-18.26a19.31 19.31 0 0115.84-18c3.89-.69 8-.53 11.93-.53h111.79a78.85 78.85 0 0110 .27c10.2 1.33 17.29 8.88 17.66 18.48.32 8.48-5.47 16.2-15 18.63a67 67 0 01-15.77 1.57c-18.02.13-35.98.02-53.95.02zM4376.79 2215.34c18 0 35.93-.05 53.9 0 4.64 0 9.38-.12 13.9.73 8.09 1.51 14.1 8.58 15 16.61s-3.74 15.52-11.64 19c-5 2.21-10.23 2.66-15.61 2.65q-55.89-.06-111.78 0c-5.36 0-10.62-.27-15.65-2.41-8-3.39-13-10.91-12.38-18.62a19.65 19.65 0 0116.43-17.59c3.92-.6 8-.39 12-.4q27.88 0 55.83.03zM5084 2215.34c20 0 39.92.11 59.87 0 7-.06 13.12 1.56 17.9 7a18.61 18.61 0 01-5.34 28.8c-4.79 2.53-10 3.3-15.45 3.29-38.58-.06-77.16 0-115.74-.15a40.23 40.23 0 01-13.59-2.56c-8.77-3.29-13.12-11.66-11.64-20.78a18.18 18.18 0 0116.16-15.23 99.09 99.09 0 0111.95-.31q27.96-.09 55.88-.06z"/><path class="prefix__cls-24" d="M3670 2215.34h55.82a70.54 70.54 0 0111.91.59 17.81 17.81 0 0114.41 14.62c1.46 8.45-2.12 16.23-9.45 20.21a31.74 31.74 0 01-15.37 3.56c-38.54 0-77.08.06-115.62-.14a45.45 45.45 0 01-13.63-2.46c-8-2.6-13.09-10.74-12.32-18.43.79-7.87 7-15.68 14.55-17.17 4.5-.88 9.24-.75 13.88-.77 18.59-.06 37.2-.01 55.82-.01zM4023.94 2215.35c19.94 0 39.88.12 59.81-.06 7.84-.07 14.4 2 19 8.7 7 10.22 2.93 23.44-8.62 27.82-5.68 2.15-11.62 2.57-17.64 2.56h-107.67c-6 0-12-.17-17.59-2.65a18.73 18.73 0 01-11.32-21c1.39-8.11 7.53-14 16.28-15a101.14 101.14 0 0111.95-.3q27.86-.1 55.8-.07zM2964 2215.34c17.93 0 35.86-.05 53.79 0 4.63 0 9.37-.11 13.87.8 7.62 1.53 13.91 9.6 14.29 17.26a18.78 18.78 0 01-12.38 18.52c-5.71 2.12-11.64 2.44-17.66 2.43-35.86 0-71.72 0-107.58-.08a56.29 56.29 0 01-13.78-1.47c-10.46-2.7-15.81-10.38-15-20.45.82-9.83 7.55-16.33 18.68-16.84s22.57-.18 33.86-.2q15.91.01 31.91.03zM4730 2215.34h55.78a73.93 73.93 0 0111.92.55 17.77 17.77 0 0114.58 14.42c1.56 8.42-1.93 16.35-9.14 20.34a31.21 31.21 0 01-15.34 3.65c-38.51 0-77 .09-115.54-.09a47.48 47.48 0 01-13.64-2.37c-8-2.51-12.78-10-12.44-18.36.32-7.66 6.58-15.79 14.18-17.34 4.49-.91 9.23-.77 13.87-.79 18.56-.06 37.15-.01 55.77-.01z"/><path d="M5196.34 1866.54c15.32-8.48 32.64-10.26 49.19-14.57a125.63 125.63 0 0158.94-1.54c15.45 3.26 31.22 5.44 46.67 9.06 4.51 1 9 2.26 13.38 3.73 14.92 5 14.9 5 15.48 21 .1 2.66.21 5.32.31 8a8 8 0 01-.4 3.4c-2.43 2.21-1.73 5.81-3.69 8.23h.1c-15.11 8.77-30.25 8.31-45.42.17-2.91-3.59-5.67-7.31-8.75-10.75-13.9-15.57-31.08-24.86-52.13-25.54-17.26-.56-34.55-.11-51.82-.27-7.29-.14-14.58-.62-21.86-.92z" fill="#eaf2f9"/><path class="prefix__cls-26" d="M5330.9 1904l45.42-.17c-5.11 19.67-16.62 34.39-34.27 44.37-2.89-14.99-5.54-29.99-11.15-44.2z"/><path d="M2239.73 3372.09c-5.66-5.78-4.33-13.66-5.52-20.52-4.59-26.51-8.85-53.14-5.51-80.24 9.85-.92 16.21-8.5 24.28-12.8 5.51-2.93 6.86.4 8.17 4.45z" fill="#e9f1f6"/><path d="M2139.23 3895.49c-4.15-3.88-3.36-9.41-4.57-14.22-2.3-9.06-2.1-9.11 9-10.48 1.23 8.71-3.59 16.35-4.43 24.7z" fill="#ddd8ca"/><path d="M2124.83 3967.64l-4.2-4.14c1.47-4.84 3-9.63 7.3-12.88.2 5.9 1 11.9-3.1 17.02z" fill="#c7c9ac"/><path d="M3523.22 1775c1.7 1.2 3.16 2.9 1.84 4.79a56.65 56.65 0 01-6.59 7.37q-25.26 25.32-50.6 50.56c-2.35 2.33-4.71 4.66-7.24 6.79-3.81 3.2-5.79 2-8.83-5.27 11.54-35.1 34.5-57.45 71.42-64.24z" fill="#fcfdfe"/><path d="M2503.67 4262.45c-14.63-7.64-30.23-13.43-43.68-23.37-19.7-14.56-33.38-33.67-44.46-55.24-9-17.52-11.51-36.57-15-55.39-1.2-6.42-1.61-13.74.29-19.82 4.1-13.13 2.87-26.36 3.22-39.59s.19-26.32 3-39.61c2.57-12.14.79-25.2 1-37.85.15-9.28-.6-18.54 2.82-27.64 1.57-4.17 1-9.19 1.13-13.84.73-19.86-.94-39.68 3.4-59.57 2.64-12.1.55-25.22.65-37.88.07-8-.06-15.8 2.44-23.69 1.75-5.54 1.23-11.82 1.51-17.78.85-18.52-1.07-37 3.34-55.59 2.71-11.37.57-23.87.72-35.86.12-9.28-.64-18.54 2.79-27.64 1.56-4.17 1-9.2 1.15-13.84.75-19.86-1-39.67 3.39-59.57 2.67-12.09.55-25.22.67-37.88.07-8 0-15.78 2.38-23.7 1.83-6.2 1.27-13.15 1.56-19.77.76-17.86-.77-35.66 3.32-53.59 2.75-12 .62-25.2.73-37.86.07-8.63-.35-17.19 2.77-25.65 1.54-4.18 1-9.19 1.18-13.83.77-19.86-1-39.67 3.38-59.57 2.68-12.08.56-25.22.68-37.88.07-7.95 0-15.78 2.35-23.7 1.83-6.21 1.3-13.15 1.59-19.77.77-17.86-.78-35.66 3.31-53.59 2.75-12 .63-25.2.74-37.86.08-8.62-.25-17.16 2.71-25.66 1.68-4.83 1-10.51 1.24-15.82.73-19.19-.77-38.32 3.36-57.58 2.73-12.75.61-26.54.69-39.86 0-7.31.31-14.46 2.34-21.71 1.75-6.25 1.31-13.15 1.61-19.77.78-17.86-.79-35.66 3.3-53.59 2.74-12.05.63-25.2.75-37.86.09-8.62-.27-17.16 2.68-25.66 1.68-4.84 1.06-10.51 1.27-15.82.74-19.19-1.08-38.36 3.42-57.57 2.51-10.75.49-22.55.64-33.88.13-9.93-.34-19.76 2.89-29.63 2-6.08.82-13.19 1.07-19.84.65-17.2-1-34.37 3.33-51.58 2.51-10.06.55-21.21.7-31.87.16-11.26.48-22.33 2.87-33.62 2.44-11.51.89-23.86 1.13-35.84.21-10.6-.7-21.18 3-31.62 1.71-4.78.72-10.54.94-15.86.77-18.52-1.07-37 3.33-55.58 2.69-11.38.56-23.88.71-35.87.11-9.27-.62-18.53 2.81-27.64 1.57-4.16 1-9.19 1.13-13.83.72-19.86-.93-39.68 3.4-59.58 2.63-12.09.54-25.21.66-37.87.07-8-.07-15.81 2.43-23.7 1.75-5.53 1.23-11.82 1.51-17.78.85-18.52-1.07-37 3.35-55.58 2.7-11.37.55-23.87.71-35.87.12-9.27-.64-18.53 2.78-27.64 1.57-4.17 1-9.19 1.16-13.83.75-19.86-1.3-39.73 3.46-59.57 2.42-10.09.43-21.22.6-31.88s-.51-21.11 2.92-31.63c2-6.09.87-13.2 1-19.85.17-9.32.2-18.65.29-28 5.38 4.73 3.6 11.1 3.63 16.89.17 36 .11 72 .2 107.93 0 8.62-.18 17.14 2.54 25.68 1.76 5.52 1.26 11.85 1.28 17.81.14 32.65.1 65.3.18 97.94 0 8-.05 15.81 2.39 23.71 1.71 5.55 1.4 11.83 1.43 17.79.15 33.31.11 66.62.17 99.93 0 7.31.13 14.49 2.24 21.73 1.64 5.61 1.55 11.82 1.58 17.77.17 30 .06 60 .2 90 .05 11.92-.85 23.85 3.08 35.6 1.62 4.84.75 10.56.76 15.88.09 26.65-.07 53.31.18 79.95.14 15.23-1.59 30.57 3.32 45.58 1.39 4.24.5 9.25.51 13.91.06 26.65 0 53.3.16 79.95.1 13.91-1.17 27.87 3.22 41.59 1.56 4.86.61 10.57.62 15.89.07 28.65 0 57.3.15 85.95.07 12.59-1 25.19 3.14 37.6 1.61 4.84.69 10.57.7 15.89.08 28 0 56 .16 83.95.07 11.91-.9 23.85 3.06 35.6 1.63 4.84.77 10.56.78 15.88q.12 49 .14 97.94c0 8 0 15.81 2.47 23.7 1.71 5.55 1.34 11.84 1.36 17.8.15 33.31.12 66.62.17 99.93 0 7.31.2 14.48 2.32 21.72 1.65 5.6 1.47 11.83 1.51 17.78.16 28 0 56 .19 84 .08 12.58-1 25.19 3.12 37.6 1.62 4.84.71 10.57.72 15.89.08 28.65 0 57.29.15 85.94 0 11.27-.7 22.52 3 33.62 1.63 4.83.78 10.55.8 15.87q.12 51 .15 101.94c0 8 0 15.81 2.43 23.7 1.71 5.55 1.36 11.84 1.39 17.79.15 27.32 0 54.64.19 81.95.08 13.25-1 26.53 3.19 39.6 1.57 4.86.64 10.57.66 15.89.07 29.31 0 58.63.14 87.94 0 11.93-.9 23.89 3.14 35.6 1.46 4.21.69 9.24.71 13.89.07 22.66-.37 45.32.17 68 1.37 57.47 28.12 99.77 77.82 127.91 6.87 3.89 14.23 6.9 21.37 10.32.75 1.86.19 2.41-1.7 2.41q-92.89-.28-185.85-.37z" fill="#699eee"/><path class="prefix__cls-4" d="M5424.17 3551.73c.37-15.88-1.34-31.65-2.27-47.47-1.68-28.36-6.46-56.51-5.67-85 6-1.32 8.18 3.5 10.58 7.2q108.84 168.36 216.75 336.92c1.74-5.08-3.18-14.72 8-16.12-.09 7.95.49 16-.37 23.85-5.7 52.12-10.85 104.31-19.61 156-14 82.51-31.28 164.3-54 244.89-2.31 8.22-3.15 17.54-14.08 19.58a27.32 27.32 0 00-3.93-.16c-27.32 2.63-53.56-1.23-78.47-13.07-5.73-5.73-9.41-11.81-10-20.66-1.93-29.11-4.91-58.15-7.72-87.19-4.08-42.28-6.47-84.65-8.59-127.07-2.27-45.7-6.66-91.29-10-136.94-1.71-23.15-3.17-46.33-4.83-69.49-.33-4.61-1.09-9.2-1.65-13.79a38.46 38.46 0 01-7.72-22.11c-1.38-44.23-7.71-88.11-9.13-132.33-.17-5.77-1.75-11.92 2.71-17.04z"/><path class="prefix__cls-3" d="M5656.54 3668c1.57-4.94 3.14-9.88 4.84-15.2 5.72 4.61 7.29 11.22 10.15 16.93 15.18 30.28 30 60.76 45.15 91.05 28.6 57 60.78 112.13 92.55 167.42 34.42 59.9 69.68 119.32 104.62 178.92 3.36 5.72 7 11.28 10.59 16.87 1.57 2.45 4.2 3.05 6.83 3.55q.07 24.94.15 49.88c0 14.16-2.5 27.83-8.54 40.65a44.53 44.53 0 01-25.69 23.71c-17.63 6.51-17.57 6.66-25 21.55q-79.84-.21-159.68-.4c-20-.05-39.91 0-63.72 0a382.08 382.08 0 0035.77-21.63c20.75-13.8 34.09-33 43.25-55.57 10.86-26.75 10.42-54.2 5.08-82.06-4.6-24-8.36-48.14-12.8-72.16-4.91-26.61-10.35-53.12-15.27-79.73-5.75-31.17-11.06-62.41-16.79-93.58-6.33-34.4-13.89-68.62-19-103.2-2.7-18.33-8.07-36.14-9.48-54.66-.14-1.78-1.82-3.44-2.78-5.15-8.15-9.04-8-18.11-.23-27.19z"/><path class="prefix__cls-5" d="M5656.54 3668q.12 13.59.26 27.18-2.62 26.05-5.23 52.11c-2.74 2.37-3.33 5.49-3.59 8.94-.38 5.18 1.15 10.58-2.16 16.63-6.58-4.13-9.76-10.91-13.09-16.85-5.87-10.48-12.69-20.26-19.21-30.29q-44-67.62-87.69-135.49c-22.27-34.63-44.22-69.47-66.42-104.14-14.3-22.33-28.78-44.53-43.18-66.79-2.48-11-3.28-22.26-4.08-33.53q-4.35-61.5-9.27-123c-3.25-40.3-6.83-80.58-10.26-120.86 17.26.49 34.62-.2 51.46 4.8 4.16 17.53 12.21 33.64 19 50.14 19 46 38.91 91.7 58.36 137.56 13.73 32.4 26.9 65 41 97.27s29.4 64 43.77 96.18c15.74 35.21 30.93 70.65 48.6 105 2.55 4.94 2.82 9.65 1.73 15.3-1.19 6.31-.09 13.15 0 19.84z"/><path class="prefix__cls-10" d="M5243.67 2631.69c14.9 13.28 32.79 22.12 49.27 33.06 5.05 3.36 10.1 3 14.85-.28 8.16-5.6 16.71-10.85 24.08-17.39 18.8-16.7 37-34 55.53-51.07 5.34-4.91 10.88-9.61 16.33-14.4 1.79 18-3.68 35.24-5.68 52.83-.66 5.84-2 11.64-2 17.59-.11 9.23.25 18.39-3.06 27.41-1.52 4.15-.77 9.15-.9 13.77-.32 11.84-.62 23.5-3 35.37-2.41 12.11-.91 25-1.09 37.57-.21 14.78-.2 14.78-11.87 24.75-19.54 10.22-40.65 16.18-61.57 22.61-9.13 2.8-18.31 2-27.51-.43-15.64-4.18-29.67-11.65-42.82-20.77-12-8.31-23.54-17.28-35.28-26-6.68-1.64-11.91-5.5-16.86-10.15-53.47-50.31-100.08-106.59-144.29-165-3.71-4.91-5.81-10.39-7.48-16.15-6.25-9.27-12.12-18.84-18.89-27.71-3.95-5.17-2.59-9.79-1.06-14.86 10-17.74 23.91-21.81 47.45-13.94 17.79 11.53 35.55 23.11 53.39 34.55 6.11 3.92 12.43 7.5 18.66 11.24 16.35 2.7 28.62 13.27 41.43 22.34 20.9 14.86 44.53 25.97 62.37 45.06z"/><path d="M5516 2328.17c-12.25-.55-19.18-7.85-22.92-18.65-4.52-13.09-8.47-26.46-8.71-40.39q-.59-33.63.07-67.27c.13-7.16 2-14.29 3.06-21.44 16.84-5.93 33.6-11.86 51.5-14.24 17.2-2.28 29.76 4 38.52 18.41 4.12 6.76 7.31 14.08 11.1 21a78.13 78.13 0 006.34 10c2.7 3.55 6.8 3.82 10.36 1s6.85-6.26 10.74-8.59c5-3 10.75.06 12.22 5.75a38.93 38.93 0 01.61 17.72c-3.44 16.64 2.3 29.82 14.48 40.81-.26 7.63-4.27 13.89-7.67 20.28-2.66 5-3.05 9.58-1.6 15.18a220.28 220.28 0 0025.17 60.35c2.06 3.37 3.82 6.93 5.73 10.4-21.66 5-41.09 15.42-60.8 25-14.52 7.1-29.54 12.23-45.53 14.23-10.48 1.31-21.15 3-31.3-2a8.92 8.92 0 011.3-1.5c13.61-10.25 10.95-7.27 7.1-22.83-6.64-10.34-9.29-21.43-6.35-33.56 27.41 2.22 46.35-13.6 64.91-30.57-20.22 7.74-41.53 3.56-62.11 6.5a24 24 0 01-16.22-5.59z" fill="#ffb27e"/><path d="M5751.81 2903.71c-21.51-17.69-33.94-36.48-45.42-55.88-12.27-20.74-19.93-43.41-25.1-66.84-2.41-10.94-1.72-22.35-4.83-33.35-2.07-7.32 2.26-14.16 4.84-21 4.28-.74 5.38 2.63 7.09 5.34 12 19.09 25.66 37.07 36.74 56.81 6.13 10.93 14.31 20.7 21.62 31 2.32 3.25 5 6.33 5 10.6.09 23.08-.02 46.15.06 73.32z" fill="#243964"/><path d="M5516 2328.17a16.91 16.91 0 0115.55 3.73c7.14 7.58 7 15.49 1.06 23.66a30.85 30.85 0 001.21 15.1c2.35 6.78 2.42 13.77 1.95 20.81-9-1-13.71-6.52-15.64-15-2.3-10.13-5.09-20.13-4.16-30.75.46-5.79.03-11.72.03-17.55z" fill="#e9eef3"/><path class="prefix__cls-26" d="M5376.22 1903.81c-.21-3.39.46-6.38 3.69-8.23.15 3.36-.51 6.36-3.69 8.23z"/><path d="M1448.16 2759.22c-3.28.23-6.38.81-8.12 4.09-11.59-1.26-20.79-8.58-31.32-12.6-22.22-8.5-43.8-18.67-66.27-28.43 2-1.22 3.24-2.54 3.92-2.3q47.82 17.1 95.51 34.56c2.35.86 4.2 3.09 6.28 4.68z" fill="#8cbc83"/><path class="prefix__cls-36" d="M3589.73 3831.16h61.86c5.29 0 10.49 0 15.74 1.71 17.06 5.57 25.47 17.81 28.66 34.8q12.63 67.2 25.65 134.31c2.18 11.34-1.39 21.25-10.74 27.35a33.55 33.55 0 01-18.78 5.68q-63.85-.22-127.71 0c-8.94 0-16.82-3.45-24.9-6.36a21.51 21.51 0 01-12.71-11.92c-2.73-6-5.86-11.74-7.07-18.49-3.52-19.5-7.68-38.87-11.53-58.3-4.88-24.63-9.54-49.3-14.62-73.88-4.34-21 5.14-34.27 26.31-34.76 23.27-.55 46.56-.13 69.84-.14zM4281.39 3727c-21.32 0-42.66.17-64-.06-17.47-.18-30.16-8.39-38.74-23.62-4.1-7.28-3.49-15.47-5.31-23.12-6.42-27-11.89-54.35-16.49-81.76-2.41-14.38-4.74-28.71-7.94-42.95-3.45-15.32 3.3-25.18 18.35-30.16 5.9-2 11.74-2.11 17.72-2.11 40.66 0 81.31-.12 122 0 24.9.09 40.53 14 45.15 38.8 8.13 43.6 16.26 87.21 25.37 130.61 1.68 8 1.3 14.26-2.8 20.68-5 7.79-12.44 11.93-21.33 13.36-3.91.62-8 .3-12 .31q-29.99.09-59.98.02z"/><path class="prefix__cls-4" d="M3529.28 3523.57c21.31 0 42.62-.2 63.92 0 25.05.29 38.33 11.23 43.08 35.32q13.09 66.51 25.9 133.07c3.87 20.08-5.37 32.15-25.71 33.9-3.31.29-6.66.13-10 .13h-117.83c-3.33 0-6.68.14-10-.16-20.79-1.87-34.14-13.75-38.33-34.45-3.56-17.58-6.78-35.24-10.14-52.86-5.23-27.42-10.61-54.8-15.61-82.26-3.6-19.75 6.5-32.21 26.79-32.61 22.63-.44 45.27-.1 67.91-.1z"/><path class="prefix__cls-7" d="M5191.15 2871.55c22 0 44 .31 66-.12 13.08-.25 23.05 5 31.58 14.35a30.91 30.91 0 017.88 15.74c3.35 17.61 7.52 35.05 11 52.63 5.28 26.68 10.29 53.43 15.35 80.16a74.76 74.76 0 011.12 9.91c1 19.14-5 26.76-24 30-4.55.77-9.29.61-13.95.61q-58 .06-116 0c-5.3 0-10.85.23-15.84-1.18-15.67-4.45-27.52-13.18-31.05-30.36-3.47-16.9-7.44-33.7-10.76-50.63-5.11-26-9.9-52.16-14.7-78.26a98.05 98.05 0 01-1.89-15.8c-.3-15.8 7.67-24.91 23.24-26.78a104.1 104.1 0 0112-.23q30.03-.07 60.02-.04z"/><path class="prefix__cls-36" d="M4058.72 2563.47c21.31 0 42.63-.13 64 .06 13.1.11 24.73 3.94 33.81 14.18a31.15 31.15 0 018 15.57c4.8 25.35 10.38 50.55 15.47 75.85 3.79 18.8 7.35 37.65 10.81 56.51a81.45 81.45 0 011.25 13.86c.19 16.81-8 26-24.49 27.65-3.3.33-6.66.12-10 .12h-119.91a70 70 0 01-17.74-1.85c-13.51-3.48-22.53-11.74-26.64-24.51a214 214 0 01-8.77-36.66c-3.55-26.29-10.23-51.93-14.71-78-2-11.72-6-23.09-5.83-35.23.24-16.73 8.23-26 24.87-27.36 6.61-.56 13.31-.15 20-.16z"/><path class="prefix__cls-7" d="M4959.9 3523.46c20.65 0 41.31.05 62 0 13.2 0 24.7 3.53 34.25 13.34 7 7.14 9.58 15.88 11.37 25q11.67 59.57 22.86 119.21c1.22 6.5 1.32 13.2 1.95 19.81 1.12 11.7-3.84 20.87-20.49 25.21-4.4 1.15-9.26.7-13.91.71q-60 .06-119.93 0c-5.3 0-10.86.22-15.84-1.22-15.64-4.53-27.45-13.4-30.78-30.59-2.4-12.36-4.93-24.7-7.33-37.06q-9.27-47.87-18.47-95.74a66.76 66.76 0 01-1.52-11.82c-.11-15.26 8.66-25 23.93-26.64a113.86 113.86 0 0112-.18q29.93-.04 59.91-.03zM4811 2767h-62c-14 0-25.91-4.57-35.28-15.51-5.48-6.4-7.62-14.06-9.16-21.8q-12.22-61.49-23.81-123.09a88.87 88.87 0 01-1.13-15.91c-.07-15.93 7.67-24.78 23.34-26.71a99.56 99.56 0 0112-.25c39.31 0 78.62-.07 117.93 0 5.95 0 12.05.15 17.81 1.43 15.75 3.48 25.83 13.31 29.26 29.18 4.2 19.45 8.06 39 11.9 58.51 5 25.38 9.82 50.79 14.68 76.19a64.8 64.8 0 011.36 9.85c.5 14.49-5.32 22-19.16 26.29-5.91 1.81-11.82 1.76-17.79 1.77q-29.95.05-59.95.05z"/><path class="prefix__cls-36" d="M3209.92 3727.05c-20 0-39.93-.41-59.87.16-10.43.3-19.49-2.47-28.52-7.22-9.62-5-15.05-12.85-17.29-23.07-4.11-18.73-9-37.36-11.67-56.3-3.69-26.24-10.05-51.9-14.74-77.9-.35-2-1.21-3.82-1.47-5.78-2.67-19.59 7.87-34.05 28.84-33.79 30.6.39 61.21.1 91.81.09 12.64 0 25.28-.11 37.92 0 13.93.17 25.63 5 35.18 15.68 5.25 5.85 7.45 12.83 8.87 19.72 4.93 23.94 8.77 48.09 13.22 72.13 2.89 15.6 5.51 31.29 9.46 46.64a89.17 89.17 0 012.37 23.64c-.16 14.69-7.71 23.35-22.28 25.6-3.91.6-8 .34-11.95.34q-29.94.09-59.88.06zM4661.06 3831.15c21.29 0 42.6.44 63.88-.17 11.42-.33 20.67 4.38 29.76 9.87a26.61 26.61 0 0112.69 19.53c3.19 24.29 10.08 47.84 13.26 72.17 2.9 22.23 8.56 44.11 13.22 66.1 3.86 18.18-6.15 33.26-24.4 36a68.91 68.91 0 01-10 .29h-119.78c-4.61 0-9.43-.07-13.8-1.34-18.65-5.42-31.05-16.53-34.11-36.91-2.45-16.33-6.25-32.45-9.46-48.66-5.76-29.17-11.66-58.3-17.21-87.5-2.33-12.23 11-28.26 24-29.2 6.62-.47 13.3-.13 20-.14zM3233 3831.15c21.3 0 42.6-.17 63.9 0 21.07.22 35 11 39.67 31.62 5.57 24.49 10.44 49.15 15.39 73.77 3.78 18.79 7 37.68 10.89 56.45 1.49 7.29 1.29 14.55 1.06 21.84-.23 7.47-4.63 12.63-11.15 15.17-7.36 2.88-14.91 5.1-23.19 5-39.94-.31-79.88-.12-119.81-.17a50.54 50.54 0 01-9.92-.72c-24.6-4.95-36.4-17.48-39.56-43.27s-9.71-50.63-14.36-76c-2.75-15-6.29-29.76-9.2-44.69a62.31 62.31 0 01-.67-11.93c0-16.55 8.35-25.62 25.07-27.06 4-.35 8-.11 12-.11zM3945.88 3831.15h59.88c4.65 0 9.43-.28 13.91.66 17 3.57 28.79 12.9 32.37 30.82 3.88 19.45 8.06 38.83 11.91 58.28q7.5 37.91 14.62 75.89c.85 4.53 1.62 9.27 1.19 13.8-1 10.66-5.38 18.74-17.13 21.61-5.86 1.43-11.53 2.75-17.57 2.74q-60.89-.09-121.76 0c-14.65 0-27.14-4.3-37.23-15.61-5.67-6.36-7.87-14-9.43-21.58-4.67-22.64-8.42-45.48-12.64-68.21-3-16.25-5.59-32.62-9.6-48.63a92.74 92.74 0 01-2.43-23.64c.14-14.82 7.54-23.47 22.08-25.78 3.9-.62 8-.36 11.95-.36q29.94-.01 59.88.01zM3924.76 3727h-59.89a68.12 68.12 0 01-19.57-2.78c-10.46-3-17.44-9.45-22-18.78a75.82 75.82 0 01-6.08-16.81c-4.59-21.32-9.74-42.61-12.67-64.19-2.67-19.73-7.63-38.92-10.94-58.46a100.88 100.88 0 01-1.63-15.77c-.13-15.81 7.7-24.77 23.17-26.79a77 77 0 0110-.24h121.78a69.26 69.26 0 0119.58 2.71c11.25 3.23 18.59 10.25 22.88 20.49a110.2 110.2 0 016.78 22.79q10.54 57.53 22.28 114.83c1.48 7.31 1.48 14.5 1.45 21.78 0 8.34-4.6 13.92-12 16.64s-15 4.92-23.27 4.73c-19.93-.42-39.9-.15-59.87-.15zM4303.7 3831.15c21.28 0 42.57-.12 63.85 0 22.49.17 38 11.73 42.91 33.79 5.32 23.84 9.09 48 13.62 72 3.06 16.23 5.58 32.61 9.66 48.59 2.38 9.29 2.07 18.4 2.26 27.65.17 8.34-4.23 14.17-11.56 16.94-6.73 2.55-13.6 4.91-21.21 4.87q-60.85-.36-121.71 0c-9 0-17-3-25-5.89-10.84-3.95-17.65-12.07-20-23.11-4.55-21.32-8.39-42.78-12.55-64.18-3.28-16.86-6.53-33.72-9.92-50.56-1.69-8.42-3.7-16.77-5.46-25.18a35.75 35.75 0 01-.51-6c-.58-17.2 8.7-27.86 25.81-28.88 9.27-.56 18.61-.14 27.92-.15z"/><path class="prefix__cls-7" d="M4834.38 2871.55c20.66 0 41.31.23 62-.11a50.44 50.44 0 0124.83 6.13c10.19 5.31 16.43 13.43 18.56 24.55 7 36.49 13.71 73 20.66 109.5 1.86 9.77 3.57 19.62 6.31 29.16 5.2 18.11-8 29.46-20.9 32.89-4.41 1.18-9.22 1.11-13.86 1.12-40 .08-79.94 0-119.92.09-14.58 0-27.59-3.14-37.66-14.71-4.94-5.69-8.52-11.88-9.92-19.25q-10.24-53.74-20.37-107.53c-1.95-10.42-3.66-20.9-5.3-31.38-2.05-13.16 2.6-21.8 14.15-27.41 5.6-2.73 11.46-3.1 17.5-3.08 21.28.07 42.6.03 63.92.03z"/><path class="prefix__cls-36" d="M4476.58 2871.38c21.29 0 42.58-.18 63.86 0 24.11.25 40.29 15.91 43.75 40.15 2.52 17.64 6.7 35 10.09 52.54 4.52 23.35 9.24 46.67 13.33 70.1 1.13 6.47.43 13.27.37 19.92-.08 8.34-4.72 13.87-12.14 16.52-6.81 2.43-13.68 4.67-21.27 4.63q-60.87-.37-121.75 0c-8.28.05-15.64-2.87-23.13-5.41-11.61-4-18.79-12.4-21.33-24.32-3-14.21-5.52-28.53-8.28-42.8-4.51-23.37-8.45-46.86-13.83-70-2.41-10.34-2.91-20.88-5.48-31.24-3.67-14.84 6.77-27.64 22-29.79 3.92-.56 8-.3 11.95-.3q30.93-.03 61.86 0zM4118.76 2871.38h59.85a70 70 0 0119.59 2.59c11.24 3.18 18.65 10.1 23 20.29 2.86 6.64 5.48 13.7 6.42 20.81 4.28 32.15 12.63 63.5 18.06 95.41 1.88 11.06 4.43 22 6 33.11a33.44 33.44 0 01-1.17 13.73c-2.12 7.27-6.32 12.66-14.57 14.77-6.49 1.66-12.77 3.17-19.51 3.15q-60.85-.17-121.72-.05c-31.14 0-42.74-18.73-46.23-40.1-4.16-25.46-10-50.54-14.56-75.89-3-16.9-6.53-33.72-9.62-50.61-.59-3.23-.36-6.63-.36-9.95 0-16.59 8.3-25.66 25-27.14 4-.35 8-.11 12-.11q28.89-.02 57.82-.01zM3084.38 3075.18h-62c-13.95 0-25.79-4.31-35.64-14.81-5.87-6.27-8.43-13.79-10-21.38-6-29.84-11.24-59.85-16.82-89.79-1.82-9.77-3.21-19.67-5.92-29.19-2.07-7.27-2.12-14.47-2.09-21.75.08-15.88 7.89-24.72 23.41-26.66a81.1 81.1 0 0110-.21h122c5.3 0 10.52.14 15.81 1.52 15.79 4.09 25.33 13.85 28.83 29.67 2.57 11.64 5.61 23.2 7.61 34.94 5.78 33.94 11.88 67.81 19.57 101.38a46.29 46.29 0 01.76 9.93c.06 9.48-3.9 16.5-12.58 20.92a47.48 47.48 0 01-23 5.54c-19.95-.36-39.95-.11-59.94-.11zM4639.77 3727h-61.85c-13.92 0-25.68-4.57-35.43-15.06-5.83-6.28-8.53-13.84-9.73-21.42-6-37.85-16.24-74.9-21.33-112.94-1.23-9.14-3.88-18.05-3.6-27.46.48-15.87 7.93-24.71 23.41-26.66a97.22 97.22 0 0112-.24h117.71c6.59 0 13.12-.42 19.62 2.19 15.19 6.1 25.46 15.19 28.21 32.72 4.08 26.07 10 51.85 15.18 77.75 3.48 17.49 6.79 35 10.62 52.43 1.17 5.3 2 10.59 1.12 15.78-1.63 9.61-5.54 17.3-16.49 20-6.52 1.63-12.85 2.92-19.55 2.88-19.99.03-39.94.03-59.89.03zM3403.6 2871.38c20.62 0 41.23-.08 61.85 0 25.45.11 41.25 12.88 46.1 37.55 3.06 15.54 5.42 31.23 8.4 46.79 4.59 24 9.1 48 14.35 71.91 1.9 8.64 1.57 17.14 1.67 25.74.11 9.22-5 14.89-13.33 17.66-6.26 2.08-12.44 4.25-19.34 4.22q-60.84-.3-121.7 0c-6.86 0-13-2.06-19.41-3.85-14.86-4.17-23.46-13.45-26.51-29-6.73-34.35-14.76-68.44-19.93-103.1-1.36-9.14-3.58-18.15-5.48-27.2-.54-2.59-1.65-5.09-2-7.69-2.46-19.11 8-33.69 29.47-33.2 21.96.57 43.91.17 65.86.17z"/><path class="prefix__cls-7" d="M5018.8 3831.32h63.91c14.83 0 27.46 4.66 36.07 17.42 4.94 7.31 7 15.84 8.63 24.28 7.17 37.09 13.95 74.25 20.89 111.39 1.21 6.51 3.18 13 3.6 19.52 1.15 18.39-6.07 27.21-24.23 30.13-4.56.73-9.29.52-13.94.52q-57.91.06-115.83 0c-5.29 0-10.83.2-15.82-1.22-15.66-4.46-27.44-13.27-30.92-30.41-3.56-17.53-7.48-35-11-52.54q-7.75-39-15.06-78.08a81.66 81.66 0 01-1.34-13.87c-.24-15.84 7.58-24.93 23.13-26.86a97.42 97.42 0 0112-.25q29.95-.05 59.91-.03z"/><path class="prefix__cls-36" d="M3760.18 2871.38h64a52.26 52.26 0 0115.74 1.92c14.08 4.36 22.2 14.18 26.55 27.52 2.25 6.92 4.35 14.06 5.13 21.25 2.79 25.76 9.78 50.71 14.14 76.16 2.57 15 6.5 29.75 9.38 44.69 2.69 14-8.6 28.72-24 31.77a51.68 51.68 0 01-10 .46c-40.66 0-81.32-.08-122 .07-15.58.06-28.54-5.08-38.52-17.3a39.69 39.69 0 01-8.5-17.78c-6.41-32.47-13.07-64.9-19.4-97.39-2.53-13-4.2-26.14-6.68-39.14-2.94-15.42 8.59-31.42 24.17-32.08 13.31-.57 26.66-.15 40-.16q14.99 0 29.99.01zM3107.94 3199.2c22 0 43.93-.09 65.89 0 25.46.13 37.66 10.77 42.35 35.33 8.55 44.79 17.54 89.49 26.43 134.21 2.89 14.57-4.65 26.75-19.08 29.82-3.84.82-7.94.62-11.92.63-43.25 0-86.51.11-129.77 0-25.31-.07-37.31-10.76-42-35.65q-12.58-66.23-25.88-132.31c-3.79-18.92 5.36-31.72 24.14-32 23.26-.23 46.55-.03 69.84-.03zM4219.05 3399.22c-22 0-43.94.12-65.91 0-23.37-.16-35.82-10.21-40.62-32.77-2.89-13.59-5.5-27.23-8.1-40.87q-9.48-49.67-18.85-99.37c-2.46-13 6.86-25.73 19.75-26.87 3.31-.29 6.65-.12 10-.12h129.82c25.87.05 37.48 9 43.12 34.62 5.7 25.81 10.53 51.82 15.62 77.76q5.74 29.18 11.18 58.4c3 15.87-7.55 28.92-24.09 29.14-23.97.31-47.97.08-71.92.08z"/><path class="prefix__cls-7" d="M4897.71 3199c22 0 43.95-.17 65.92.06s35.15 10.25 39.5 31.77c7.48 37 14.11 74.24 21.12 111.37 1.72 9.13 3.6 18.22 5.21 27.36 3.23 18.43-8 29.29-23.2 29.68-2.67.07-5.33.07-8 .07-42.62 0-85.24.09-127.85 0-25.48-.07-37.39-9.49-42.8-35.09-7-33.08-13.1-66.33-19.64-99.49-2.06-10.41-4.11-20.82-6.46-31.16-1.52-6.66-1.92-13.06 1-19.5 4.16-9.29 10.47-15.12 21.31-15 15.31.13 30.63 0 45.94 0zM5292.16 3399.29c-22 0-44-.78-65.89.22-24.64 1.12-37-13.53-41.66-34.55-4.84-22-8.33-44.27-12.56-66.41-3.35-17.57-6.7-35.15-10.46-52.65-2-9.22-1.95-18.47-2-27.77 0-9.47 5.58-14.87 13.76-17.39 4.95-1.53 10.47-1.67 15.74-1.68q65.9-.18 131.79 0c21.72.07 34.36 10.13 39.15 31.9 5.7 25.88 10.65 51.94 15.81 77.94 3.74 18.85 7.3 37.73 10.92 56.6 1.4 7.25 2.6 14.63-1.52 21.33-5.25 8.52-12.69 12.82-23.24 12.61-23.24-.44-46.55-.16-69.84-.15z"/><path class="prefix__cls-36" d="M4578.08 3399.23c-21.3 0-42.63-.72-63.89.19-26.16 1.12-42.33-14.26-45.85-39.8-4.44-32.15-12.68-63.54-18-95.49-1.85-11.07-4.19-22.06-6.12-33.12a40 40 0 01-.21-8c.45-15.77 7.37-23.35 23.2-23.7 22-.48 43.92-.14 65.89-.14 25.29 0 50.58-.15 75.88.05 17.35.14 29 8.48 34.66 24.47 2.9 8.15 3.46 16.8 5 25.24 5.31 29.27 11.88 58.31 17.74 87.47 2.21 11 4.79 22.09 5.45 33.24 1.23 20.88-7.15 29.34-27.83 29.52-22 .22-44 .07-65.92.07zM3502.94 3399.22c-22.65 0-45.29.16-67.93 0-17.36-.16-29.29-8.33-34.54-24.53-3.46-10.67-5.76-21.76-7.94-32.78q-10.22-51.57-19.79-103.27a75.2 75.2 0 01-.53-19.89c1-11.29 8-17.91 19.32-19.29a83 83 0 0110-.22h131.85c22.2.05 33.76 9.25 39.11 31.34 4.83 19.92 8.64 40 11.9 60.31 3.68 22.84 9 45.42 13.5 68.13a82.25 82.25 0 012 13.7c.47 16.7-8.38 26.23-25.06 26.44-23.95.29-47.92.06-71.89.06zM3825.73 3199.2c21.28 0 42.6.8 63.84-.21 26.89-1.28 37.09 14 41.75 34.13 6.69 28.94 11.17 58.37 16.66 87.58 2 10.39 3.69 20.85 6.34 31.07 2.4 9.24 2.09 18.52 1.48 27.73-.75 11.36-7.79 18.08-19.06 19.46a97.25 97.25 0 01-12 .26h-125.7c-26-.05-37.59-9-43.33-34.32-6.27-27.7-12.39-55.42-16.36-83.62-2.3-16.31-6.77-32.31-10.29-48.45-2.4-11-1.71-20.93 8.06-28.81 5.15-4.15 10.66-4.84 16.74-4.83q35.95.07 71.87.01z"/><path class="prefix__cls-7" d="M5424.17 3551.73c1 5.85 2.53 11.66 3 17.55 1.89 23.69 3.33 47.42 5.19 71.11 2 25 4.26 50 6.31 75a59.45 59.45 0 01-.35 7.87 69.44 69.44 0 01-23.51 3.62c-39.33-.21-78.66-.09-118-.1-3.33 0-6.76.39-10-.25-22.8-4.58-32.49-8.55-38.49-34.15-6.36-27.11-11-54.64-16.19-82-3.35-17.6-6-35.34-9.77-52.85-1.6-7.46-3.13-14.19 2-20.82a32.67 32.67 0 0121.73-12.92 54.5 54.5 0 018-.26h128a41.57 41.57 0 0117.46 3.47c8.11 3.63 15.2 8.13 19 16.71 1.37 2.84 3.74 5.29 5.62 8.02z"/><path class="prefix__cls-36" d="M4379.73 2559.73c2.75 3.24 6.49 3.65 10.4 3.73 8.93.17 17.86.42 26.79.65.25 5.36-2.61 8.6-7.15 10.81 12.94-5.26 22.79-17.39 38.11-17.53 10.57.85 21.15.12 31.7.63 28 1.35 42.88 13 49.1 39.95 5.19 22.49 10.06 45.08 13.52 67.92-.08 6.67-4.14 10.86-9 14.59-49.59 37.74-103.39 66.79-164.95 79.81-5.76 1.21-11.6 3.58-17.14-.74-15.43-45.89-20.69-94-30-141.14 12.44-26.58 31.81-46.35 58.62-58.68z"/><path d="M4992.22 2495.88q-48.95 8.82-97.89 17.65-31.36 5.63-62.73 11.15c-2.3.66-4.8.56-7 1.79h-4.49c-13.78-18.73-17.39-39.41-11.82-61.84 29.25-5.69 58.49-11.48 87.77-17 22.78-4.31 45.63-8.25 68.41-12.56 4.51-.85 8.84-2.68 13.29-3.93 5.07-1.43 10.16-3.76 15.29-3.9 30-.81 58.79-9.35 88.18-13.95 13.09-2.05 26.13-4.42 39.19-6.65 9.21 1.47 11.59 8.95 12.06 16.13 1 14.88 10.58 29.17 3.32 44.63-11 5.27-23.28 5.05-34.87 7.82-13.56 3.23-27.29 5.72-40.94 8.53-13.87 3.76-18.3-9.85-28.48-15.83-1.9 8.87 2.64 20-7.43 24.71s-20.57 8.71-31.86 3.25z" fill="#c65547"/><path class="prefix__cls-7" d="M5040.3 2575.05c11.6 14.51 23.36 28.89 34.78 43.53 40.18 51.53 82.83 100.8 131.5 144.61a19.64 19.64 0 012.35 3.16c-35.22.2-70.45.83-105.66.44-21.14-.23-35-11.86-39.44-32.45-5.82-27.17-10.68-54.54-16.06-81.81-3.33-16.88-6.71-33.76-10.31-50.58-2-9.36-2.72-18.42 2.84-26.9z"/><path d="M3254 2639.31h-171.85c-6.61 0-13.32.71-19.52-2.77-3.77-2.11-6.28-4.75-6.2-9.32s2.62-7.46 6.63-9a40.17 40.17 0 019.53-2.53 106.11 106.11 0 0112-.19h335.72c9.39 0 18.67-.2 26.77 5.74 4.24 3.12 4.62 8 .92 12-3.31 3.59-7.11 6-12.12 6-4.67 0-9.33.1-14 .1q-83.96-.01-167.88-.03z" fill="#b0cefb"/><path d="M4379.73 2559.73a339.18 339.18 0 00-56 54.82c-2.82 11.38-11.24 19.26-17.87 28.19-10.7 14.42-20.13 29.52-25.48 46.74-10.41 33.54 6.59 59.5 41.36 64.2 10.3 1.4 21.29-2.08 30.89 4.28 30.05-3.18 57.86-13.84 85.13-26 35.31-15.76 67.9-36.09 98.36-59.87 1.51-1.18 2.55-3 3.8-4.47 2-10.15 10.79-14.52 17.44-20.81 21.4-20.22 40-42.59 49-71.2 7.66-24.21-3-39.56-29-42.52-31.12-3.55-60.56 4.12-89.63 13.91-14.4 4.85-27.94 12.4-43.44 13.79-12.86 5.3-24.13 13.28-35.51 21.08a62.51 62.51 0 01-8.37 4.94c-.81.38-2.66-.3-3.33-1.09s-1.09-2.71-.6-3.48a26.39 26.39 0 015.08-5.91c5-4.21 10.23-8.16 15.37-12.21 16.09-7.85 31.87-16.45 48.35-23.39 30.16-12.7 61.3-22.12 94.44-22.46 9.28-.1 18.76-.06 27.81 1.68 15.78 3 28.49 10.81 34 27.21 2.65 7.84 2.46 15.64.88 23.59a115.93 115.93 0 01-17.75 42 251.17 251.17 0 01-44.64 50.79c-7 6.08-13.78 12.44-20.65 18.68-13.59 21.14-36.24 30.66-56.72 42.17-33.25 18.67-66.68 38-106.48 39.62l-4.69.61c-2.63.74-5.48.73-7.91 2.19-10.65.43-21.3.91-32 1.26-3.32.11-6.66 0-10-.24-38.09-2.31-67.44-29.38-56-77.83 3.71-15.7 11-30.08 20.39-43.12 10.87-15.11 22.53-29.64 33.84-44.42 7.25-19 21.66-30.77 39.47-39.1 13.3-10.84 26.54-21.77 39.93-32.5 8-6.44 14.61-8.26 15-4.75.73 6.73-5.64 8.16-9.29 11.52-8.17 7.54-18.11 13.18-25.18 22.1z" fill="#c65c51"/><path d="M3244.15 2571.42h169.78a119.68 119.68 0 0117.88.89c4.16.62 6.88 3.84 7.42 8.3a9.63 9.63 0 01-7.73 10.11 75.31 75.31 0 01-11.93.68q-177.77.06-355.53 0a54.89 54.89 0 01-13.72-1.59c-3.29-.86-5.29-3.93-5.57-7.55-.35-4.52 1.82-8.25 5.9-9.27a65.14 65.14 0 0115.74-1.51c38.61-.12 77.23-.07 115.85-.07z" fill="#afcdfb"/><path class="prefix__cls-4" d="M2969.89 2647.74c-9.28 0-18.57.3-27.83-.08-11.12-.47-15.88-3.77-18.29-14.52-4.35-19.35-8-38.86-11.43-58.39-1.29-7.36 2.36-12 9.51-12.19 20.53-.43 41.07-.39 61.6-.18 8.38.08 13.83 5.26 15.5 13 4.19 19.39 7.9 38.89 11.3 58.44 1.47 8.43-3.27 13.42-12.54 13.79s-18.55.08-27.82.08z"/><path class="prefix__cls-36" d="M4376.2 2764c26.59-8.55 53.11-17.28 78.18-29.86a530.55 530.55 0 0073.34-44.43c3.74-2.71 7.78-5 11.68-7.5 3.42 17.42 6 35.09 10.57 52.19 3.2 11.86-2 19.24-9.57 26-5.51 4.93-12.51 7-20.17 7q-67.5-.17-135-.06c-3.42-.09-6.55-.86-9.03-3.34z"/><path d="M5243.67 2631.69c-1.26-.33-2.73-.34-3.76-1q-50.08-33.12-100.07-66.35c19.12-.2 38.23-.78 57.33-.52 19.62.27 36.87 11.42 41.05 33 2.23 11.49 6.93 22.74 5.45 34.87z" fill="#7aacea"/><path d="M4992.22 2495.88c9-1.72 18.09-3.31 27.08-5.2 6.49-1.36 9.17-5.16 7.72-11.38-1.33-5.74-3.93-11.21-2.85-17.34.35-2 .92-4.16 3.13-4.35a7.9 7.9 0 015.28 1.42 29.67 29.67 0 016.61 7.23c5 8.26 12.2 13.68 20.85 17.46 1 7.48 3.76 14.59 3.75 22.37 0 4.15 2.59 8.3 4 12.45a58.57 58.57 0 01-7.8.44c-15.17-1.15-28.27 3.59-39.65 13.49-15.78-7.27-22.65-21.39-28.12-36.59z" fill="#feb17e"/><path d="M5135.85 2467.37c-2.67-14.27-5.5-28.51-7.93-42.82-1.13-6.64-2.43-13-7.46-17.94 8.62-4.85 18.08-3.28 27.24-3.25 7.36 0 12.58 4.58 15.29 11.08a69.16 69.16 0 015.15 33.18c-.65 7.3-5.06 12.09-11.12 15.54a34.59 34.59 0 01-21.17 4.21z" fill="#feb27f"/><path class="prefix__cls-44" d="M4808.34 2464.63c3.39 20.72 5.89 41.61 11.83 61.84a182.62 182.62 0 01-36.36-7.64c-6.61-11.23-10.08-22.8-3.81-35.41a119.58 119.58 0 0128.34-18.79z"/><path d="M4780 2483.42c1.47 11.78 5.51 23.29 3.81 35.41-13.8-.61-26.6-5.79-41-8.43 3.15-8.72 11.37-10.67 17.2-15 6.25-4.55 12.36-9.6 19.99-11.98z" fill="#c95f51"/><path d="M4359.34 2563.31l-39.47 39.1c.08-4.61-.13-9.26.3-13.84 1.42-15.41 9.77-23.65 25.33-25 4.59-.41 9.23-.19 13.84-.26z" fill="#b3ccf6"/><path class="prefix__cls-44" d="M4824.65 2526.47c1.83-2.52 4.19-3 7-1.79-1.9 2.43-4.28 2.76-7 1.79z"/><path class="prefix__cls-36" d="M4363.6 2766.76a7.78 7.78 0 017.91-2.2c-2.14 2.54-4.92 2.74-7.91 2.2z"/><path d="M5532.57 2355.56q-.52-11.83-1.06-23.66c2.68-3.52 6.46-4.59 10.58-4.31 20.74 1.45 40.86-1.83 60.69-7.59.47-.13 1.18.54 2.85 1.37-3.88 8.67-11.14 14.59-18.25 19.74-12.81 9.29-26 18.25-41.32 23.32-6.64 2.2-6.49 2.55-11-5.81a20.31 20.31 0 00-2.49-3.06z" fill="#ed9960"/><path class="prefix__cls-9" d="M4444.28 2560.77c38.72-20.5 79.34-34.09 123.71-33.89 8.67 0 17.22.68 25.48 4 16.28 6.5 23.54 19 20.57 36.29a104.42 104.42 0 01-16.55 40.33c-15.61 23.44-34.42 43.9-57.6 60.13-5.86-5.43-5.12-13.42-6.88-20.12-4-15.17-6.61-30.76-8.88-46.32-3.51-24-20-38.52-44.84-37.73-7.91.25-15.84 0-23.75 0-3.98.01-7.95.07-11.26-2.69zM4352.59 2758c-15.28 2.19-30.47 2.91-45.5-1.83-23.75-7.48-35.87-24.58-35.11-49.4a72.82 72.82 0 016.56-27c10.75-24.66 25.43-46.68 45.15-65.16 5.74 10 5.3 21.65 7.87 32.47 4.85 20.42 8.45 41.17 11.92 61.89 2.29 13.69 4.47 27.27 11 39.75 1.77 3.38-.6 6.28-1.89 9.28z"/></g></g></svg>