<?xml version="1.0" encoding="UTF-8" ?>
<!DOCTYPE svg PUBLIC "-//W3C//DTD SVG 1.1//EN" "http://www.w3.org/Graphics/SVG/1.1/DTD/svg11.dtd">
<svg width="1036pt" height="461pt" viewBox="0 0 1036 461" version="1.1" xmlns="http://www.w3.org/2000/svg">
<g id="#00002cff">
<path fill="#00002c" opacity="1.00" d=" M 373.40 0.00 L 378.39 0.00 C 385.97 2.67 393.83 4.39 401.53 6.64 C 419.83 11.78 438.12 17.75 454.56 27.47 C 468.52 35.64 480.76 46.48 491.32 58.68 C 494.08 61.88 497.34 65.42 497.07 69.97 C 497.22 76.63 490.62 82.26 484.07 81.10 C 479.92 80.72 477.07 77.41 474.59 74.43 C 463.42 61.01 449.38 49.99 433.62 42.46 C 419.05 35.46 403.50 30.80 387.89 26.78 C 387.76 41.20 387.19 55.77 389.76 70.04 C 394.57 98.77 408.95 125.87 430.32 145.71 C 450.60 164.77 477.29 177.10 505.08 179.40 C 505.20 153.91 505.11 128.41 505.12 102.92 C 505.06 99.52 505.89 95.88 508.46 93.47 C 512.48 89.24 519.78 88.94 524.10 92.89 C 527.09 95.30 528.16 99.23 528.05 102.94 C 528.05 128.42 528.00 153.91 528.06 179.40 C 539.30 178.51 550.42 175.96 560.92 171.87 C 562.54 171.42 562.08 169.30 562.31 168.05 C 562.29 146.35 562.31 124.65 562.27 102.96 C 562.22 99.57 562.98 95.95 565.55 93.54 C 569.54 89.32 576.82 88.89 581.16 92.82 C 584.20 95.23 585.32 99.20 585.23 102.96 C 585.30 121.74 585.11 140.52 585.31 159.30 C 614.00 141.10 634.32 110.80 641.87 77.82 C 645.99 61.14 645.57 43.84 645.25 26.80 C 628.89 30.98 612.59 35.93 597.45 43.51 C 582.29 51.08 568.84 61.97 558.06 75.04 C 555.56 78.16 552.26 81.23 547.98 81.19 C 541.79 81.64 535.99 76.20 536.06 70.00 C 535.91 64.72 540.03 60.88 543.19 57.18 C 554.17 44.67 567.10 33.77 581.70 25.72 C 598.53 16.32 617.09 10.69 635.57 5.55 C 641.93 3.72 648.41 2.31 654.62 0.00 L 659.60 0.00 C 662.88 1.61 666.31 3.78 667.58 7.41 C 668.82 11.14 668.26 15.14 668.35 19.00 C 668.03 35.85 669.22 52.83 666.70 69.57 C 663.89 89.46 657.21 108.79 647.20 126.20 C 632.73 151.54 610.92 172.47 585.21 186.21 C 585.22 188.22 585.23 190.23 585.28 192.24 C 588.86 189.51 592.26 186.54 596.01 184.04 C 609.74 174.92 626.57 170.58 643.00 171.84 C 656.46 172.81 669.62 177.56 680.63 185.37 C 695.30 195.65 706.03 211.37 710.27 228.78 C 713.44 240.94 712.15 253.59 712.41 266.00 C 712.42 295.34 712.40 324.68 712.43 354.02 C 712.50 357.57 711.52 361.34 708.71 363.71 C 704.59 367.73 697.40 367.76 693.26 363.76 C 690.46 361.37 689.34 357.63 689.45 354.05 C 689.48 318.04 689.49 282.03 689.46 246.02 C 689.49 227.17 678.16 208.99 661.41 200.45 C 647.77 193.23 630.88 192.68 616.74 198.80 C 602.37 204.92 591.15 217.82 587.05 232.88 C 584.71 240.71 585.44 248.95 585.34 257.00 C 585.34 289.34 585.35 321.69 585.34 354.03 C 585.67 359.34 582.47 364.80 577.22 366.30 C 570.40 368.74 562.34 363.22 562.28 355.95 C 561.91 302.61 562.45 249.26 562.20 195.91 C 551.07 199.14 539.70 201.67 528.12 202.45 C 527.86 253.65 528.22 304.85 527.94 356.04 C 527.95 364.87 516.27 370.09 509.61 364.40 C 504.06 360.40 505.15 352.94 505.11 346.99 C 505.04 298.81 505.35 250.62 504.96 202.45 C 463.79 199.53 424.75 178.02 399.27 145.72 C 377.25 118.23 364.97 83.19 364.90 47.98 C 364.88 35.65 364.73 23.30 364.93 10.97 C 364.85 5.78 369.07 2.05 373.40 0.00 Z" />
<path fill="#00002c" opacity="1.00" d=" M 48.56 176.54 C 63.72 170.71 80.80 170.06 96.37 174.66 C 112.50 179.35 126.94 189.66 136.59 203.41 C 145.57 216.04 150.43 231.51 150.34 247.00 C 150.32 283.01 150.38 319.01 150.31 355.01 C 150.55 360.57 146.25 365.78 140.78 366.61 C 134.91 367.72 128.68 363.46 127.67 357.57 C 127.15 353.86 127.51 350.10 127.22 346.38 C 123.16 349.25 119.50 352.67 115.23 355.24 C 99.03 365.53 78.79 369.20 60.02 365.18 C 43.44 361.86 28.19 352.57 17.44 339.54 C 6.67 326.57 0.35 309.89 0.28 292.99 C 0.24 277.33 0.27 261.67 0.27 246.01 C 0.28 230.27 5.57 214.61 14.98 202.00 C 23.45 190.55 35.24 181.59 48.56 176.54 M 64.41 195.69 C 52.15 198.28 40.96 205.48 33.49 215.52 C 26.70 224.49 23.06 235.72 23.15 246.96 C 23.16 262.32 23.09 277.69 23.19 293.06 C 23.37 312.89 36.24 331.74 54.43 339.49 C 69.21 346.03 87.04 345.14 101.03 337.02 C 116.70 328.27 127.16 310.96 127.37 292.98 C 127.43 277.32 127.40 261.67 127.39 246.02 C 127.37 229.69 118.92 213.74 105.61 204.33 C 93.92 195.77 78.55 192.68 64.41 195.69 Z" />
<path fill="#00002c" opacity="1.00" d=" M 199.07 181.09 C 214.35 172.51 232.67 169.64 249.85 173.02 C 266.02 176.07 281.02 184.73 291.87 197.10 C 303.98 210.66 310.73 228.79 310.63 246.96 C 310.62 289.64 310.63 332.32 310.63 375.00 C 310.59 382.92 310.98 390.92 309.52 398.75 C 306.25 417.79 295.28 435.33 279.60 446.61 C 267.71 455.39 253.17 460.13 238.47 461.00 L 233.34 461.00 C 229.66 459.58 225.96 457.19 224.74 453.22 C 222.35 447.05 226.55 439.31 233.16 438.33 C 238.49 437.66 243.96 437.77 249.15 436.18 C 270.28 430.76 286.66 410.82 287.58 388.98 C 287.84 374.65 287.58 360.31 287.71 345.97 C 282.80 350.05 277.85 354.16 272.20 357.21 C 255.52 366.64 235.15 369.25 216.62 364.33 C 198.61 359.73 182.57 348.08 172.52 332.45 C 164.71 320.50 160.49 306.27 160.51 291.99 C 160.54 276.01 160.43 260.02 160.56 244.04 C 161.12 218.20 176.46 193.48 199.07 181.09 M 227.32 195.23 C 216.11 196.95 205.56 202.55 197.80 210.81 C 188.51 220.36 183.29 233.66 183.40 246.96 C 183.41 261.98 183.40 277.01 183.41 292.04 C 183.45 305.29 188.82 318.44 198.08 327.93 C 207.84 338.11 221.89 344.08 236.02 343.82 C 249.57 343.83 262.97 338.12 272.47 328.48 C 282.06 318.96 287.71 305.57 287.68 292.04 C 287.68 276.68 287.70 261.31 287.68 245.95 C 287.60 230.08 279.63 214.54 266.92 205.07 C 255.81 196.54 241.13 192.99 227.32 195.23 Z" />
<path fill="#00002c" opacity="1.00" d=" M 374.65 174.68 C 392.40 169.40 412.11 171.03 428.73 179.23 C 447.15 188.12 461.53 204.88 467.54 224.42 C 470.10 232.34 470.95 240.70 470.94 249.00 C 470.94 284.02 470.94 319.04 470.94 354.07 C 471.16 358.45 469.11 362.98 465.22 365.20 C 459.87 368.55 452.15 366.28 449.31 360.69 C 447.06 356.11 448.28 350.81 447.94 345.91 C 436.38 356.58 421.75 364.05 406.08 366.09 C 387.52 368.67 368.09 364.02 352.79 353.20 C 333.35 339.72 320.95 316.67 320.79 292.97 C 320.71 277.65 320.77 262.33 320.76 247.01 C 320.68 232.49 324.91 217.98 332.87 205.82 C 342.51 190.92 357.59 179.62 374.65 174.68 M 385.38 195.60 C 374.72 197.80 364.79 203.40 357.43 211.44 C 348.57 221.00 343.60 233.99 343.69 247.02 C 343.69 262.00 343.67 276.99 343.70 291.98 C 343.64 306.87 350.52 321.54 361.82 331.21 C 371.21 339.33 383.57 343.97 396.00 343.82 C 409.83 343.91 423.52 338.02 433.12 328.11 C 442.50 318.61 447.97 305.37 447.97 292.01 C 447.96 276.33 448.03 260.65 447.94 244.97 C 447.58 228.14 438.24 211.90 424.06 202.88 C 412.78 195.48 398.58 192.91 385.38 195.60 Z" />
<path fill="#00002c" opacity="1.00" d=" M 787.43 172.66 C 802.96 170.04 819.32 172.37 833.40 179.48 C 858.56 191.72 875.57 218.97 875.04 247.01 C 875.05 261.00 875.02 275.00 875.05 289.00 C 875.90 311.08 866.46 333.25 849.84 347.82 C 837.54 358.79 821.54 365.55 805.09 366.61 C 786.67 367.96 767.88 362.07 753.44 350.59 C 736.28 337.12 725.45 315.89 724.99 294.03 C 724.90 278.36 724.99 262.68 724.95 247.01 C 724.70 227.29 732.82 207.68 746.80 193.79 C 757.69 182.73 772.13 175.24 787.43 172.66 M 789.39 195.62 C 767.14 199.96 749.21 220.27 748.00 242.96 C 747.65 254.97 747.95 266.99 747.85 279.00 C 748.00 288.83 747.12 298.98 750.59 308.39 C 757.13 328.40 776.82 343.32 797.92 343.75 C 811.96 344.47 826.15 339.01 836.18 329.19 C 845.95 319.86 851.94 306.55 852.04 293.00 C 852.24 280.34 852.09 267.67 852.14 255.00 C 852.11 248.70 852.40 242.32 851.06 236.12 C 847.69 219.37 835.49 204.70 819.60 198.40 C 810.11 194.44 799.44 193.63 789.39 195.62 Z" />
<path fill="#00002c" opacity="1.00" d=" M 947.43 172.66 C 965.88 169.49 985.45 173.53 1001.07 183.88 C 1021.79 197.25 1035.05 221.33 1035.08 246.02 C 1035.13 282.37 1035.16 318.72 1035.07 355.07 C 1035.45 362.79 1026.91 368.98 1019.70 366.12 C 1015.16 364.51 1012.00 359.86 1012.15 355.05 C 1012.08 319.04 1012.16 283.03 1012.11 247.02 C 1012.28 233.54 1006.89 220.14 997.48 210.51 C 987.85 200.41 973.97 194.45 960.00 194.59 C 946.02 194.44 932.15 200.41 922.50 210.49 C 913.35 219.90 907.93 232.86 907.87 246.01 C 907.78 282.35 907.90 318.70 907.82 355.05 C 908.02 360.38 904.05 365.50 898.80 366.52 C 891.88 368.22 884.51 362.22 884.97 355.07 C 884.92 319.05 884.97 283.02 884.95 247.00 C 884.75 231.33 889.83 215.70 898.96 203.00 C 910.33 187.07 928.10 175.85 947.43 172.66 Z" />
<path fill="#00002c" opacity="1.00" d=" M 999.58 390.85 C 1003.87 399.08 1006.74 407.96 1010.48 416.44 C 1014.70 427.09 1019.41 437.54 1023.31 448.31 C 1021.41 448.03 1018.90 449.15 1017.42 447.74 C 1015.09 443.38 1014.00 438.48 1011.72 434.10 C 1009.59 433.28 1007.22 433.70 1005.00 433.60 C 999.37 433.76 993.73 433.36 988.13 433.79 C 985.39 438.29 984.19 443.58 981.97 448.35 C 979.96 448.34 977.97 448.33 975.99 448.31 C 983.76 429.12 991.70 410.00 999.58 390.85 M 989.99 428.29 C 996.45 428.50 1002.93 428.50 1009.40 428.29 C 1006.48 420.04 1003.23 411.91 999.79 403.87 C 996.22 411.88 993.18 420.12 989.99 428.29 Z" />
<path fill="#00002c" opacity="1.00" d=" M 402.32 401.28 C 404.84 396.64 410.17 394.25 415.19 393.50 C 421.16 392.89 427.81 393.44 432.68 397.30 C 435.19 399.19 436.49 402.12 437.45 405.02 C 435.68 405.04 433.92 405.12 432.16 404.97 C 430.05 403.02 428.89 399.84 425.81 399.13 C 420.57 397.58 414.24 397.29 409.61 400.61 C 405.18 403.70 405.53 411.10 410.16 413.84 C 417.95 418.57 427.96 418.10 435.39 423.63 C 442.03 428.70 441.32 439.94 434.89 444.90 C 428.39 450.04 419.29 450.18 411.53 448.46 C 405.38 447.10 400.17 442.11 399.30 435.75 C 401.17 435.70 403.07 435.61 404.95 435.75 C 406.71 437.48 407.35 440.14 409.38 441.65 C 412.43 443.86 416.35 444.29 420.01 444.33 C 424.12 444.33 428.59 443.59 431.66 440.64 C 435.00 437.56 435.33 431.28 431.60 428.38 C 423.47 422.32 411.84 423.76 404.27 416.73 C 399.90 412.92 399.87 406.15 402.32 401.28 Z" />
<path fill="#00002c" opacity="1.00" d=" M 518.69 421.01 C 518.48 407.20 529.98 393.97 544.00 393.40 C 555.56 392.40 566.70 400.04 570.95 410.64 C 568.38 410.40 564.71 411.65 563.39 408.65 C 558.72 401.27 549.19 397.58 540.75 399.68 C 531.31 402.04 524.11 411.23 524.27 420.99 C 523.70 432.36 533.49 443.32 545.00 443.43 C 552.44 443.86 559.57 439.76 563.63 433.66 C 565.00 430.76 568.46 432.05 571.00 431.85 C 568.53 437.66 564.31 442.76 558.73 445.81 C 550.33 450.60 539.16 450.37 531.16 444.83 C 523.37 439.62 518.36 430.44 518.69 421.01 Z" />
<path fill="#00002c" opacity="1.00" d=" M 627.41 393.64 C 642.72 390.40 659.01 402.37 660.29 418.00 C 662.43 433.36 649.57 448.57 634.07 448.99 C 619.34 450.22 605.35 437.75 604.70 423.01 C 603.40 409.28 613.90 395.96 627.41 393.64 M 627.32 399.37 C 617.62 401.60 609.98 410.97 610.22 421.00 C 609.73 433.10 620.89 444.13 633.00 443.43 C 645.18 443.61 655.89 432.08 654.84 419.95 C 654.66 406.48 640.31 395.82 627.32 399.37 Z" />
<path fill="#00002c" opacity="1.00" d=" M 774.41 393.68 C 790.11 390.21 806.86 402.91 807.49 419.03 C 809.08 434.14 796.22 448.62 781.08 449.01 C 766.04 450.19 751.85 437.09 751.79 422.01 C 751.00 408.65 761.31 396.01 774.41 393.68 M 774.33 399.41 C 768.59 400.73 763.64 404.62 760.54 409.56 C 756.63 415.78 756.31 423.99 759.42 430.60 C 763.21 438.65 772.02 444.21 781.01 443.40 C 793.23 443.07 803.49 431.08 801.91 418.94 C 801.06 405.84 787.00 395.88 774.33 399.41 Z" />
<path fill="#00002c" opacity="1.00" d=" M 855.43 397.44 C 866.14 390.23 881.66 392.19 890.48 401.52 C 893.69 404.70 895.93 408.73 897.24 413.04 C 895.06 412.69 891.57 414.06 890.59 411.36 C 888.45 407.03 885.08 403.32 880.75 401.13 C 872.74 396.86 862.03 398.09 855.43 404.43 C 850.49 408.79 847.71 415.42 848.11 422.01 C 848.30 431.72 855.73 440.67 865.15 442.86 C 876.27 445.70 888.70 438.93 892.23 428.00 C 884.89 427.70 877.54 427.97 870.20 427.83 C 870.18 426.24 870.17 424.66 870.17 423.08 C 879.58 422.91 889.00 423.01 898.42 423.02 C 897.85 433.56 890.76 443.10 881.01 446.99 C 868.28 452.52 852.11 446.65 845.83 434.29 C 838.81 421.96 843.29 404.78 855.43 397.44 Z" />
<path fill="#00002c" opacity="1.00" d=" M 332.23 394.10 C 339.36 394.18 346.56 393.57 353.65 394.46 C 362.36 395.88 368.66 405.04 366.63 413.69 C 365.43 420.71 358.98 426.17 351.98 426.75 C 347.29 427.13 342.58 426.85 337.89 426.97 C 337.77 434.09 337.85 441.21 337.85 448.33 C 335.97 448.26 334.10 448.24 332.22 448.26 C 332.29 430.21 332.28 412.15 332.23 394.10 M 338.06 399.34 C 337.62 406.66 337.86 414.00 337.90 421.33 C 343.47 421.25 349.21 422.15 354.66 420.68 C 363.01 417.65 363.72 404.12 355.56 400.45 C 349.99 398.40 343.86 399.83 338.06 399.34 Z" />
<path fill="#00002c" opacity="1.00" d=" M 475.84 394.06 C 477.65 394.04 479.46 394.04 481.28 394.04 C 481.45 412.14 481.42 430.24 481.29 448.34 C 479.47 448.34 477.66 448.34 475.85 448.33 C 475.72 430.24 475.73 412.15 475.84 394.06 Z" />
<path fill="#00002c" opacity="1.00" d=" M 697.82 394.05 C 699.63 394.04 701.44 394.04 703.26 394.05 C 703.45 410.29 703.35 426.53 703.31 442.77 C 709.79 442.88 716.28 442.65 722.77 442.95 C 722.78 444.70 722.79 446.45 722.80 448.21 C 714.48 448.56 706.14 448.41 697.82 448.30 C 697.70 430.21 697.70 412.13 697.82 394.05 Z" />
<path fill="#00002c" opacity="1.00" d=" M 935.85 394.06 C 937.65 394.04 939.46 394.04 941.28 394.04 C 941.45 412.14 941.42 430.24 941.30 448.34 C 939.47 448.34 937.66 448.34 935.86 448.33 C 935.73 430.24 935.74 412.15 935.85 394.06 Z" />
</g>
</svg>
