<?xml version="1.0" encoding="UTF-8" ?>
<!DOCTYPE svg PUBLIC "-//W3C//DTD SVG 1.1//EN" "http://www.w3.org/Graphics/SVG/1.1/DTD/svg11.dtd">
<svg width="721pt" height="240pt" viewBox="0 0 721 240" version="1.1" xmlns="http://www.w3.org/2000/svg">
<g id="#f3f4f9ff">
<path fill="#f3f4f9" opacity="1.00" d=" M 392.03 28.98 C 397.65 26.29 403.84 24.82 410.07 24.55 C 416.01 24.55 421.81 26.12 427.41 27.96 C 434.35 31.25 441.94 33.98 447.05 40.01 C 450.09 42.51 451.58 46.27 454.28 49.06 C 455.28 52.38 456.96 55.46 457.85 58.81 C 458.65 66.17 458.54 73.60 458.02 80.97 C 457.56 87.07 454.83 92.81 454.99 98.97 C 455.18 107.40 454.08 116.17 457.39 124.18 C 460.56 135.46 463.43 148.49 457.35 159.32 C 455.61 159.84 455.26 161.76 454.38 163.11 C 452.43 166.36 449.39 168.73 447.00 171.63 C 441.75 169.25 436.01 168.49 430.40 167.43 C 429.79 168.38 429.19 169.34 428.59 170.30 C 429.91 143.86 431.63 117.44 433.09 91.01 C 433.57 88.60 432.13 86.52 430.03 85.52 C 418.93 83.44 407.98 80.69 396.97 78.22 C 370.98 72.20 344.92 66.50 318.95 60.39 C 316.36 59.79 313.56 59.22 311.16 60.75 C 310.17 61.48 308.64 62.00 308.54 63.43 C 307.78 70.42 307.72 77.46 307.23 84.47 C 304.79 80.45 302.60 76.28 300.30 72.17 C 302.75 68.82 305.74 65.36 305.91 60.99 C 306.21 58.08 304.78 55.45 303.57 52.92 C 303.32 50.97 305.18 50.29 306.12 51.98 C 307.52 53.27 307.49 55.28 307.95 56.99 C 318.66 56.96 329.37 57.00 340.09 56.99 C 345.12 56.79 350.20 56.38 355.01 54.78 C 358.36 53.71 362.16 53.61 364.94 51.21 C 369.07 48.66 371.70 44.34 375.93 41.93 C 376.61 40.96 377.20 39.90 378.10 39.09 C 382.61 35.56 386.95 31.71 392.03 28.98 M 397.32 60.53 C 400.79 62.90 403.20 55.91 399.18 55.37 C 399.21 57.22 400.72 59.22 398.21 60.03 C 397.23 58.88 397.40 57.53 397.73 56.19 C 395.25 55.36 395.33 59.97 397.32 60.53 M 448.98 132.80 C 448.63 134.16 447.53 135.83 448.84 137.05 C 450.46 139.65 455.04 137.03 453.65 134.37 C 453.04 132.24 450.63 132.79 448.98 132.80 Z" />
<path fill="#f3f4f9" opacity="1.00" d=" M 583.56 43.48 C 595.86 37.96 610.01 37.29 623.06 40.39 C 631.37 42.34 639.70 45.16 646.50 50.50 C 650.92 52.43 654.00 56.14 657.75 59.03 C 662.67 64.53 667.55 70.29 670.57 77.14 C 676.49 86.28 677.21 97.54 678.44 108.06 C 677.61 114.63 676.94 121.41 674.31 127.56 C 672.34 134.66 666.98 140.07 663.66 146.53 C 661.88 150.34 658.07 152.84 656.72 156.86 C 656.44 156.79 655.88 156.65 655.60 156.59 C 654.93 156.33 653.58 155.83 652.91 155.58 C 653.08 153.96 653.29 152.34 653.58 150.73 C 652.44 149.12 650.73 148.08 648.73 148.87 C 650.22 144.75 650.13 140.30 650.41 135.99 C 650.64 125.65 652.02 115.34 651.79 104.99 C 651.85 103.54 650.02 103.46 649.06 103.08 C 618.67 96.61 588.24 90.25 557.88 83.63 C 556.48 83.37 555.08 83.56 553.73 83.84 C 552.12 86.25 552.45 89.22 552.24 91.96 C 551.36 106.69 550.61 121.42 549.64 136.15 C 545.10 138.22 544.11 143.74 545.44 148.13 C 544.18 150.47 542.14 152.19 540.15 153.88 C 539.89 153.39 539.38 152.43 539.13 151.95 C 538.42 149.63 537.92 147.27 537.38 144.91 C 541.80 141.82 543.92 136.63 545.57 131.70 C 546.33 128.64 547.17 125.14 545.76 122.16 C 542.87 121.53 541.80 124.81 539.89 126.23 C 536.99 126.60 534.33 123.94 534.30 121.11 C 533.72 115.64 536.43 110.44 535.92 104.98 C 535.91 102.11 531.07 101.60 530.28 104.26 C 529.25 106.53 528.31 108.86 526.99 110.99 C 522.82 106.76 520.60 100.89 515.83 97.21 C 514.18 95.85 511.91 96.01 509.92 95.83 C 521.20 93.80 531.70 88.68 541.56 82.95 C 543.70 82.13 545.36 80.53 546.69 78.71 C 551.04 77.01 553.67 72.98 557.04 69.97 C 559.61 67.83 560.98 64.67 563.50 62.49 C 567.13 59.33 568.64 54.44 572.49 51.47 C 576.12 48.71 579.38 45.45 583.56 43.48 M 590.02 56.79 C 589.43 57.64 588.88 58.52 588.37 59.42 C 588.33 61.24 589.98 62.91 591.87 62.23 C 593.61 62.23 594.64 59.62 593.63 58.31 C 592.99 56.85 591.28 57.09 590.02 56.79 M 664.95 123.84 C 664.68 125.21 663.61 126.80 664.89 128.01 C 666.52 130.65 671.15 128.12 669.77 125.27 C 668.95 123.26 666.63 123.85 664.95 123.84 Z" />
<path fill="#f3f4f9" opacity="1.00" d=" M 80.80 65.81 C 93.70 56.07 110.52 55.02 126.06 53.76 C 137.14 53.07 148.16 55.08 158.99 57.19 C 162.74 57.63 166.07 59.51 169.65 60.54 C 178.13 63.15 185.60 68.03 192.84 73.03 C 201.12 80.19 208.41 88.50 214.15 97.85 C 216.33 101.92 219.62 105.33 221.10 109.77 C 224.18 113.19 224.94 117.88 226.92 121.92 C 229.64 129.93 231.13 138.43 230.22 146.91 C 230.10 154.07 226.12 160.37 221.95 165.90 C 219.97 166.66 218.37 168.07 218.99 170.40 C 213.24 169.33 207.66 167.44 201.82 166.76 C 201.74 165.36 201.65 163.97 201.53 162.58 C 201.37 156.47 202.79 150.45 202.47 144.33 C 204.19 129.61 204.21 114.74 205.27 99.96 C 205.57 97.84 204.92 95.15 202.52 94.64 C 194.35 92.64 185.82 91.88 178.15 88.16 C 177.93 84.95 177.45 81.44 174.83 79.24 C 172.01 76.14 167.03 75.05 163.54 77.69 C 161.81 79.30 160.44 81.24 159.26 83.28 C 156.45 83.12 153.77 83.96 151.07 84.53 C 145.87 84.25 140.02 80.49 135.28 84.22 C 132.85 85.63 132.17 88.45 132.23 91.07 C 124.55 84.85 115.63 79.77 105.81 78.01 C 111.67 85.96 119.40 92.32 125.41 100.16 C 120.29 98.63 115.38 96.20 109.99 95.79 C 102.91 95.15 95.67 95.41 88.82 97.40 C 99.64 102.49 111.20 106.62 120.39 114.57 C 124.64 117.62 127.42 122.08 130.32 126.32 C 129.63 145.20 128.23 164.06 127.59 182.94 C 127.17 185.63 130.12 186.12 131.99 186.90 C 128.70 186.25 125.47 184.63 122.05 185.15 C 120.21 186.94 118.71 189.03 117.08 191.00 L 116.91 190.22 C 119.15 175.53 122.08 160.93 123.95 146.19 C 123.17 146.24 121.61 146.35 120.84 146.41 C 120.56 146.43 120.00 146.47 119.72 146.49 C 119.74 150.71 119.04 154.88 118.18 159.00 C 116.64 168.09 115.02 177.16 113.65 186.27 C 113.28 184.79 112.86 183.32 112.41 181.86 C 111.72 185.16 111.59 188.54 112.10 191.88 C 109.80 192.49 107.47 193.04 105.21 193.78 C 105.09 194.15 104.85 194.90 104.73 195.28 C 103.91 194.37 103.05 193.51 102.24 192.61 C 102.28 192.25 102.36 191.54 102.40 191.19 C 104.82 178.60 102.42 165.87 102.64 153.20 C 102.78 149.47 101.60 145.77 102.17 142.05 C 104.39 142.74 106.59 143.78 108.96 143.80 C 112.75 142.94 115.90 140.54 119.25 138.70 L 120.17 138.48 C 119.94 139.80 119.29 141.32 120.38 142.46 C 121.82 142.70 123.28 142.76 124.74 142.87 C 124.87 141.10 124.99 139.32 125.09 137.55 C 123.82 137.32 122.55 137.07 121.29 136.78 C 120.22 136.08 118.90 136.27 117.97 137.11 C 115.00 137.55 112.04 138.39 109.02 138.27 C 106.71 137.67 104.61 136.48 102.41 135.56 C 100.94 135.22 99.45 134.98 97.97 134.71 C 97.50 134.60 96.57 134.40 96.10 134.29 C 96.90 133.56 97.74 132.87 98.57 132.18 C 98.49 131.30 98.40 130.43 98.31 129.56 C 98.70 126.16 94.78 125.63 93.01 127.96 C 91.22 130.38 88.48 131.55 85.94 132.99 C 84.05 135.67 82.46 138.56 80.28 141.04 C 80.45 141.64 80.77 142.84 80.94 143.44 C 79.45 147.80 78.19 152.22 77.08 156.69 C 75.79 157.30 75.85 160.04 77.70 159.18 C 77.99 158.64 78.59 157.58 78.88 157.04 C 81.27 151.86 84.17 146.79 88.85 143.35 C 88.94 147.03 88.17 150.62 86.65 153.97 C 86.92 161.32 87.60 168.66 87.85 176.02 C 87.89 180.02 87.45 184.03 87.91 188.03 C 87.18 186.56 86.14 185.30 84.97 184.17 C 82.77 184.06 80.86 182.86 79.80 180.94 C 75.31 179.09 71.69 175.87 67.53 173.45 C 64.13 170.16 59.94 167.68 57.10 163.85 C 54.18 158.40 50.71 152.48 51.73 146.05 C 52.36 141.71 52.91 137.13 55.68 133.54 C 59.53 123.58 71.17 120.04 75.68 110.56 C 76.27 108.84 75.92 106.98 75.94 105.21 C 71.87 98.03 69.37 89.57 71.10 81.30 C 73.93 75.88 76.29 70.11 80.80 65.81 M 131.05 63.97 C 131.31 65.81 133.49 65.85 134.89 66.21 C 135.51 65.36 136.14 64.52 136.77 63.68 C 136.47 62.77 136.18 61.86 135.89 60.96 C 133.76 59.70 130.32 61.24 131.05 63.97 M 67.63 137.53 C 69.87 137.17 69.75 132.01 67.25 133.19 C 67.42 134.09 67.66 134.99 67.98 135.87 C 67.08 136.74 65.99 136.68 65.00 135.98 C 65.27 135.01 65.55 134.05 65.87 133.10 L 65.69 132.60 C 62.01 133.10 64.38 139.68 67.63 137.53 M 214.02 144.97 C 213.49 146.86 215.24 147.98 216.31 149.18 C 218.05 148.55 220.81 146.88 219.39 144.76 C 218.54 142.21 214.74 142.59 214.02 144.97 Z" />
<path fill="#f3f4f9" opacity="1.00" d=" M 287.40 60.83 C 292.32 60.71 294.07 65.65 296.10 69.19 C 291.93 68.22 287.54 67.11 283.30 68.42 C 282.08 68.91 279.75 68.86 280.16 70.76 C 282.97 73.37 286.66 74.97 290.42 75.57 C 293.35 76.07 295.93 74.06 298.80 73.95 C 301.93 78.12 303.99 82.97 306.14 87.70 C 301.05 84.22 294.84 82.60 288.76 84.15 C 292.04 90.29 299.44 93.48 306.22 92.03 C 306.36 93.42 306.48 94.81 306.59 96.21 C 306.52 97.70 306.43 99.20 306.36 100.70 C 304.61 100.46 302.86 100.22 301.11 100.08 C 299.48 100.16 297.86 100.30 296.24 100.43 C 299.37 104.81 296.31 110.15 296.82 115.04 C 293.40 111.47 289.74 108.13 286.35 104.53 C 288.21 100.58 289.53 96.09 288.30 91.75 C 287.53 88.82 285.18 86.77 283.00 84.84 C 280.65 90.00 280.86 95.91 282.63 101.21 C 276.01 97.15 271.62 89.77 263.58 88.13 C 265.10 88.04 266.48 87.45 267.83 86.79 C 267.91 86.21 268.08 85.05 268.17 84.47 C 269.31 82.02 270.28 79.49 271.23 76.96 C 275.09 70.15 282.50 66.68 287.40 60.83 Z" />
<path fill="#f3f4f9" opacity="1.00" d=" M 494.16 127.05 C 494.93 117.02 497.84 106.64 504.95 99.17 C 504.74 103.70 506.09 108.05 508.00 112.10 C 505.57 112.41 502.76 112.05 500.75 113.72 C 499.02 115.10 498.75 117.63 499.45 119.61 C 503.50 125.73 512.07 126.08 516.42 131.76 C 514.10 132.98 510.71 133.27 509.66 136.03 C 509.25 139.12 512.30 141.01 514.59 142.37 C 521.36 145.98 529.23 148.23 536.92 146.90 C 537.48 149.44 538.07 151.98 538.77 154.50 C 538.26 154.83 537.23 155.49 536.71 155.83 C 536.80 155.37 536.98 154.45 537.07 154.00 C 526.90 153.69 515.55 154.79 506.84 148.50 C 503.24 146.56 499.64 143.87 498.20 139.90 C 496.13 135.89 494.45 131.61 494.16 127.05 Z" />
<path fill="#f3f4f9" opacity="1.00" d=" M 151.54 147.56 C 149.22 148.11 148.88 144.64 148.31 142.97 C 149.33 143.85 149.85 146.09 151.53 145.75 C 152.50 144.72 153.46 143.64 154.78 143.05 C 153.81 144.63 152.83 146.22 151.54 147.56 Z" />
</g>
<g id="#bbcaf4ff">
<path fill="#bbcaf4" opacity="1.00" d=" M 277.29 49.46 C 276.64 47.46 279.97 48.02 281.08 48.14 C 285.60 48.06 288.14 52.29 291.03 55.08 C 292.78 58.53 293.99 62.27 296.24 65.46 C 296.68 66.27 297.12 67.08 297.56 67.89 C 297.44 62.60 299.21 57.54 302.09 53.16 L 303.05 51.88 L 303.57 52.92 C 304.78 55.45 306.21 58.08 305.91 60.99 C 305.74 65.36 302.75 68.82 300.30 72.17 C 302.60 76.28 304.79 80.45 307.23 84.47 C 307.06 88.38 306.87 92.30 306.59 96.21 C 306.48 94.81 306.36 93.42 306.22 92.03 C 299.44 93.48 292.04 90.29 288.76 84.15 C 294.84 82.60 301.05 84.22 306.14 87.70 C 303.99 82.97 301.93 78.12 298.80 73.95 C 295.93 74.06 293.35 76.07 290.42 75.57 C 286.66 74.97 282.97 73.37 280.16 70.76 C 279.75 68.86 282.08 68.91 283.30 68.42 C 287.54 67.11 291.93 68.22 296.10 69.19 C 294.07 65.65 292.32 60.71 287.40 60.83 C 281.36 60.25 280.14 53.66 277.29 49.46 Z" />
</g>
<g id="#fbfdfcff">
<path fill="#fbfdfc" opacity="1.00" d=" M 298.53 56.61 C 299.95 55.70 300.72 54.12 302.09 53.16 C 299.21 57.54 297.44 62.60 297.56 67.89 C 297.12 67.08 296.68 66.27 296.24 65.46 C 298.08 62.83 295.76 58.86 298.53 56.61 Z" />
<path fill="#fbfdfc" opacity="1.00" d=" M 552.50 139.23 C 553.01 139.25 554.03 139.28 554.54 139.29 C 553.71 141.72 554.98 145.73 552.33 147.04 C 552.34 144.44 552.46 141.84 552.50 139.23 Z" />
<path fill="#fbfdfc" opacity="1.00" d=" M 551.09 148.46 C 551.78 148.38 553.14 148.22 553.83 148.14 C 553.76 148.83 553.63 150.23 553.56 150.92 C 552.46 150.39 551.62 149.55 551.09 148.46 Z" />
<path fill="#fbfdfc" opacity="1.00" d=" M 648.15 155.89 C 649.00 158.13 651.91 158.84 652.50 155.88 L 652.94 156.72 C 651.56 157.98 650.22 159.30 649.07 160.78 L 650.88 160.32 C 649.71 161.14 648.60 162.02 647.49 162.91 C 647.54 162.13 647.60 161.35 647.67 160.58 C 647.85 159.02 648.01 157.45 648.15 155.89 Z" />
<path fill="#fbfdfc" opacity="1.00" d=" M 95.12 162.48 C 97.25 168.08 96.92 174.29 97.16 180.20 C 97.09 182.79 97.43 185.38 98.15 187.87 C 98.24 188.18 98.42 188.81 98.50 189.12 L 98.87 189.91 C 99.03 190.23 99.34 190.89 99.50 191.21 C 99.52 192.35 99.48 193.49 99.45 194.63 C 97.64 192.94 95.45 191.84 92.96 191.63 C 94.58 181.99 94.40 172.20 95.12 162.48 Z" />
</g>
<g id="#abacb1ff">
<path fill="#abacb1" opacity="1.00" d=" M 397.32 60.53 C 395.33 59.97 395.25 55.36 397.73 56.19 C 397.40 57.53 397.23 58.88 398.21 60.03 C 400.72 59.22 399.21 57.22 399.18 55.37 C 403.20 55.91 400.79 62.90 397.32 60.53 Z" />
</g>
<g id="#adacb2ff">
<path fill="#adacb2" opacity="1.00" d=" M 590.02 56.79 C 591.28 57.09 592.99 56.85 593.63 58.31 C 594.64 59.62 593.61 62.23 591.87 62.23 C 589.98 62.91 588.33 61.24 588.37 59.42 C 588.88 58.52 589.43 57.64 590.02 56.79 M 591.02 58.22 C 589.15 58.55 589.90 61.78 591.77 60.91 C 593.46 60.42 592.63 57.85 591.02 58.22 Z" />
</g>
<g id="#f4f3f8ff">
<path fill="#f4f3f8" opacity="1.00" d=" M 591.02 58.22 C 592.63 57.85 593.46 60.42 591.77 60.91 C 589.90 61.78 589.15 58.55 591.02 58.22 Z" />
</g>
<g id="#b1b1b6ff">
<path fill="#b1b1b6" opacity="1.00" d=" M 131.05 63.97 C 130.32 61.24 133.76 59.70 135.89 60.96 C 136.18 61.86 136.47 62.77 136.77 63.68 C 136.14 64.52 135.51 65.36 134.89 66.21 C 133.49 65.85 131.31 65.81 131.05 63.97 M 133.23 62.10 C 131.55 62.55 132.31 65.06 133.89 64.79 C 135.81 64.53 135.16 61.18 133.23 62.10 Z" />
</g>
<g id="#899fe1ff">
<path fill="#899fe1" opacity="1.00" d=" M 311.16 60.75 C 313.56 59.22 316.36 59.79 318.95 60.39 C 344.92 66.50 370.98 72.20 396.97 78.22 C 407.98 80.69 418.93 83.44 430.03 85.52 C 428.97 86.07 427.92 86.62 426.87 87.17 C 420.81 86.60 415.02 84.64 409.07 83.49 C 378.50 76.53 347.96 69.44 317.37 62.56 C 315.27 62.06 313.20 61.43 311.16 60.75 Z" />
</g>
<g id="#355089ff">
<path fill="#355089" opacity="1.00" d=" M 308.54 63.43 C 308.64 62.00 310.17 61.48 311.16 60.75 C 313.20 61.43 315.27 62.06 317.37 62.56 C 347.96 69.44 378.50 76.53 409.07 83.49 C 415.02 84.64 420.81 86.60 426.87 87.17 C 428.26 88.63 430.41 89.88 430.43 92.14 C 430.69 96.07 430.39 100.01 430.17 103.93 C 428.51 125.15 428.23 146.46 426.56 167.68 C 424.15 171.06 420.07 173.34 415.85 172.15 C 414.03 171.73 412.21 171.23 410.40 170.76 C 410.40 168.95 410.39 167.13 410.48 165.32 C 412.27 165.72 414.08 166.15 415.89 166.52 C 419.15 166.94 422.46 164.40 422.29 161.00 C 423.37 139.99 425.00 119.02 426.04 98.02 C 426.15 94.89 423.19 92.87 420.38 92.48 C 385.79 84.84 351.19 77.21 316.62 69.49 C 315.14 69.21 313.36 68.92 312.24 70.20 C 311.62 72.78 311.67 75.45 311.51 78.09 C 310.40 98.42 309.06 118.74 307.94 139.08 C 307.53 141.52 309.92 142.66 311.76 143.45 C 310.46 144.99 309.09 146.48 307.78 148.02 C 305.44 146.88 303.43 144.93 304.10 142.08 C 304.42 136.13 304.77 130.18 305.06 124.22 C 305.27 120.23 305.48 116.24 305.75 112.25 C 306.06 108.40 306.17 104.55 306.36 100.70 C 306.43 99.20 306.52 97.70 306.59 96.21 C 306.87 92.30 307.06 88.38 307.23 84.47 C 307.72 77.46 307.78 70.42 308.54 63.43 M 367.08 77.07 C 366.62 78.73 367.18 79.29 368.78 78.78 C 369.24 77.12 368.67 76.55 367.08 77.07 Z" />
</g>
<g id="#f4f5f8ff">
<path fill="#f4f5f8" opacity="1.00" d=" M 133.23 62.10 C 135.16 61.18 135.81 64.53 133.89 64.79 C 132.31 65.06 131.55 62.55 133.23 62.10 Z" />
</g>
<g id="#dfe6feff">
<path fill="#dfe6fe" opacity="1.00" d=" M 312.24 70.20 C 313.36 68.92 315.14 69.21 316.62 69.49 C 351.19 77.21 385.79 84.84 420.38 92.48 C 423.19 92.87 426.15 94.89 426.04 98.02 C 425.00 119.02 423.37 139.99 422.29 161.00 C 422.46 164.40 419.15 166.94 415.89 166.52 C 416.80 144.44 417.77 122.35 418.80 100.26 C 412.72 99.37 406.89 97.05 400.74 96.76 C 398.19 93.49 393.85 91.42 390.07 94.12 C 389.08 93.83 388.09 93.55 387.11 93.28 C 386.97 93.54 386.68 94.05 386.54 94.30 C 384.91 92.34 383.14 90.02 380.42 89.71 C 377.80 89.43 374.69 90.76 373.88 93.44 C 372.21 90.80 370.50 87.39 367.05 86.89 C 363.81 86.24 361.35 88.75 359.15 90.69 C 358.40 87.35 356.11 84.03 352.54 83.43 C 349.16 82.89 346.64 85.68 344.25 87.60 C 343.62 82.54 338.22 78.14 333.29 80.94 C 331.64 80.69 330.00 80.42 328.37 80.14 C 328.22 80.83 327.94 82.21 327.79 82.90 C 327.06 82.92 325.59 82.95 324.85 82.97 C 321.88 82.77 319.10 83.92 316.42 85.04 C 315.13 104.02 313.94 123.00 312.89 142.00 C 312.61 142.36 312.04 143.08 311.76 143.45 C 309.92 142.66 307.53 141.52 307.94 139.08 C 309.06 118.74 310.40 98.42 311.51 78.09 C 311.67 75.45 311.62 72.78 312.24 70.20 Z" />
<path fill="#dfe6fe" opacity="1.00" d=" M 641.34 168.32 C 641.94 169.44 642.49 170.56 643.15 171.66 C 642.84 172.06 642.20 172.86 641.88 173.26 C 641.51 173.12 640.77 172.84 640.39 172.71 C 640.72 171.25 641.09 169.79 641.34 168.32 Z" />
</g>
<g id="#7087cbff">
<path fill="#7087cb" opacity="1.00" d=" M 163.54 77.69 C 167.03 75.05 172.01 76.14 174.83 79.24 C 177.45 81.44 177.93 84.95 178.15 88.16 C 185.82 91.88 194.35 92.64 202.52 94.64 C 204.92 95.15 205.57 97.84 205.27 99.96 C 204.21 114.74 204.19 129.61 202.47 144.33 C 202.17 141.91 201.94 139.47 202.09 137.03 C 202.50 130.30 202.09 123.54 202.70 116.82 C 203.27 110.90 203.65 104.93 203.40 98.99 C 203.42 97.57 202.61 96.03 201.18 95.64 C 196.54 94.13 191.66 93.65 186.90 92.67 C 186.73 94.77 186.57 96.87 186.39 98.97 C 187.29 99.26 188.20 99.54 189.11 99.81 C 187.76 99.82 186.43 99.93 185.10 100.16 L 184.30 100.29 C 184.64 98.21 185.47 95.88 184.19 93.95 C 182.78 90.93 179.26 90.31 176.38 89.55 C 175.97 86.21 175.39 82.53 172.57 80.31 C 170.23 77.84 166.67 77.89 163.54 77.69 Z" />
</g>
<g id="#d0e2f4ff">
<path fill="#d0e2f4" opacity="1.00" d=" M 367.08 77.07 C 368.67 76.55 369.24 77.12 368.78 78.78 C 367.18 79.29 366.62 78.73 367.08 77.07 Z" />
</g>
<g id="#a7b9e9ff">
<path fill="#a7b9e9" opacity="1.00" d=" M 105.81 78.01 C 115.63 79.77 124.55 84.85 132.23 91.07 C 131.74 102.83 131.04 114.57 130.32 126.32 C 127.42 122.08 124.64 117.62 120.39 114.57 C 111.20 106.62 99.64 102.49 88.82 97.40 C 95.67 95.41 102.91 95.15 109.99 95.79 C 115.38 96.20 120.29 98.63 125.41 100.16 C 119.40 92.32 111.67 85.96 105.81 78.01 Z" />
<path fill="#a7b9e9" opacity="1.00" d=" M 504.95 99.17 C 505.83 98.00 506.91 97.01 507.92 95.95 C 508.42 95.92 509.42 95.86 509.92 95.83 C 511.91 96.01 514.18 95.85 515.83 97.21 C 520.60 100.89 522.82 106.76 526.99 110.99 C 528.31 108.86 529.25 106.53 530.28 104.26 C 531.07 101.60 535.91 102.11 535.92 104.98 C 536.43 110.44 533.72 115.64 534.30 121.11 C 534.33 123.94 536.99 126.60 539.89 126.23 C 541.80 124.81 542.87 121.53 545.76 122.16 C 547.17 125.14 546.33 128.64 545.57 131.70 C 543.92 136.63 541.80 141.82 537.38 144.91 C 534.16 133.69 530.41 122.15 522.68 113.14 C 522.34 113.18 521.65 113.27 521.31 113.32 C 530.06 122.41 533.66 135.03 536.92 146.90 C 529.23 148.23 521.36 145.98 514.59 142.37 C 512.30 141.01 509.25 139.12 509.66 136.03 C 510.71 133.27 514.10 132.98 516.42 131.76 C 512.07 126.08 503.50 125.73 499.45 119.61 C 498.75 117.63 499.02 115.10 500.75 113.72 C 502.76 112.05 505.57 112.41 508.00 112.10 C 506.09 108.05 504.74 103.70 504.95 99.17 Z" />
</g>
<g id="#b5c6feff">
<path fill="#b5c6fe" opacity="1.00" d=" M 159.26 83.28 C 160.44 81.24 161.81 79.30 163.54 77.69 C 166.67 77.89 170.23 77.84 172.57 80.31 C 175.39 82.53 175.97 86.21 176.38 89.55 C 179.26 90.31 182.78 90.93 184.19 93.95 C 185.47 95.88 184.64 98.21 184.30 100.29 L 185.10 100.16 C 182.84 100.85 180.54 101.94 178.13 101.33 C 171.09 99.99 164.12 98.31 157.10 96.87 C 153.60 96.25 151.07 93.57 148.01 91.99 C 148.43 92.07 149.25 92.23 149.66 92.31 C 149.97 90.23 149.58 87.72 151.25 86.12 C 153.11 84.10 156.08 84.75 158.53 84.44 C 158.71 84.15 159.07 83.57 159.26 83.28 M 165.60 84.05 C 165.77 86.54 168.68 86.24 170.43 86.01 C 170.06 85.55 169.33 84.64 168.96 84.18 C 171.63 84.00 168.12 80.46 167.83 83.04 C 166.84 81.62 165.02 82.10 165.60 84.05 Z" />
</g>
<g id="#b5c2eaff">
<path fill="#b5c2ea" opacity="1.00" d=" M 328.37 80.14 C 330.00 80.42 331.64 80.69 333.29 80.94 C 332.14 82.02 331.06 83.15 329.97 84.28 C 328.26 83.84 326.56 83.38 324.85 82.97 C 325.59 82.95 327.06 82.92 327.79 82.90 C 327.94 82.21 328.22 80.83 328.37 80.14 Z" />
</g>
<g id="#3f579bff">
<path fill="#3f579b" opacity="1.00" d=" M 333.29 80.94 C 338.22 78.14 343.62 82.54 344.25 87.60 C 346.64 85.68 349.16 82.89 352.54 83.43 C 356.11 84.03 358.40 87.35 359.15 90.69 C 361.35 88.75 363.81 86.24 367.05 86.89 C 370.50 87.39 372.21 90.80 373.88 93.44 C 373.60 94.72 373.35 96.01 373.12 97.30 C 372.76 99.39 372.40 101.52 372.61 103.65 C 372.79 104.44 373.16 106.01 373.35 106.80 C 374.83 107.05 376.31 107.29 377.80 107.53 C 377.68 109.32 377.72 112.24 375.06 111.13 C 372.94 108.92 371.86 105.98 370.98 103.11 C 370.95 101.06 371.03 99.01 371.10 96.96 C 367.13 95.96 363.13 95.12 359.06 94.70 C 359.01 96.65 358.94 98.61 359.02 100.57 C 359.21 101.38 359.58 103.00 359.76 103.80 C 360.49 103.74 361.94 103.62 362.66 103.55 C 363.26 104.98 364.11 106.62 362.87 108.00 C 358.77 108.52 358.56 102.72 357.36 99.91 C 357.41 97.98 357.62 96.07 357.80 94.15 C 353.56 93.15 349.33 92.15 345.09 91.17 C 344.89 93.12 344.69 95.08 344.67 97.04 C 344.80 97.78 345.07 99.26 345.21 100.00 C 346.81 100.47 348.74 100.75 349.51 102.48 C 349.53 104.44 347.48 105.51 345.93 104.20 C 344.63 101.79 343.75 99.16 342.92 96.56 C 343.04 94.73 343.27 92.92 343.49 91.10 C 339.02 89.91 334.52 88.86 330.00 87.88 C 329.86 89.80 329.71 91.73 329.69 93.66 C 329.99 94.88 330.32 96.10 330.67 97.32 C 331.92 97.38 333.16 97.50 334.41 97.66 C 334.75 99.02 334.59 100.43 334.59 101.81 C 330.19 101.55 329.00 96.51 328.11 93.00 C 328.12 91.22 328.21 89.45 328.29 87.68 C 324.42 86.44 320.41 85.74 316.42 85.04 C 319.10 83.92 321.88 82.77 324.85 82.97 C 326.56 83.38 328.26 83.84 329.97 84.28 C 331.06 83.15 332.14 82.02 333.29 80.94 M 331.83 84.77 C 335.58 85.37 339.28 86.27 343.02 87.00 C 342.02 85.03 341.07 82.69 338.87 81.80 C 336.30 80.49 332.62 81.97 331.83 84.77 M 346.61 87.87 C 350.30 88.66 353.99 89.51 357.70 90.25 C 356.91 87.96 355.55 85.33 352.95 84.82 C 350.38 84.11 347.87 85.71 346.61 87.87 M 361.17 91.02 C 364.84 91.95 368.53 92.82 372.29 93.36 C 371.03 91.22 369.65 88.75 367.08 88.05 C 364.73 87.63 362.42 89.11 361.17 91.02 Z" />
</g>
<g id="#2d53a7ff">
<path fill="#2d53a7" opacity="1.00" d=" M 135.28 84.22 C 140.02 80.49 145.87 84.25 151.07 84.53 C 153.77 83.96 156.45 83.12 159.26 83.28 C 159.07 83.57 158.71 84.15 158.53 84.44 C 156.08 84.75 153.11 84.10 151.25 86.12 C 149.58 87.72 149.97 90.23 149.66 92.31 C 149.25 92.23 148.43 92.07 148.01 91.99 C 146.73 91.73 145.44 91.48 144.15 91.26 C 141.65 90.72 139.13 90.31 136.60 90.07 C 135.43 120.26 133.41 150.42 132.12 180.60 C 152.96 184.87 173.61 190.06 194.51 193.99 C 195.83 164.64 197.55 135.30 199.00 105.96 C 199.04 104.48 199.00 103.01 198.95 101.54 C 197.29 101.32 195.63 101.10 193.99 100.83 C 192.34 100.55 190.72 100.21 189.11 99.81 C 188.20 99.54 187.29 99.26 186.39 98.97 C 186.57 96.87 186.73 94.77 186.90 92.67 C 191.66 93.65 196.54 94.13 201.18 95.64 C 202.61 96.03 203.42 97.57 203.40 98.99 C 203.65 104.93 203.27 110.90 202.70 116.82 C 202.09 123.54 202.50 130.30 202.09 137.03 C 201.94 139.47 202.17 141.91 202.47 144.33 C 202.79 150.45 201.37 156.47 201.53 162.58 C 199.68 168.59 200.98 174.92 200.00 181.05 C 199.11 186.63 199.79 192.37 198.28 197.87 C 194.60 201.68 188.41 200.19 184.02 198.52 C 183.32 197.57 182.44 197.27 181.37 197.63 C 180.79 197.69 179.64 197.81 179.07 197.87 C 178.59 197.66 177.63 197.24 177.16 197.03 C 176.61 196.96 175.50 196.84 174.95 196.77 C 174.21 195.94 173.33 195.63 172.29 195.83 L 170.87 196.02 C 170.42 194.98 169.58 194.60 168.36 194.88 L 167.39 194.89 C 164.56 193.98 161.68 193.20 158.71 193.05 L 157.82 192.96 C 157.36 191.93 156.54 191.57 155.33 191.87 C 147.46 191.03 139.76 188.55 131.99 186.90 C 130.12 186.12 127.17 185.63 127.59 182.94 C 128.23 164.06 129.63 145.20 130.32 126.32 C 131.04 114.57 131.74 102.83 132.23 91.07 C 132.17 88.45 132.85 85.63 135.28 84.22 Z" />
</g>
<g id="#7c8bc4ff">
<path fill="#7c8bc4" opacity="1.00" d=" M 165.60 84.05 C 165.02 82.10 166.84 81.62 167.83 83.04 C 168.11 83.33 168.68 83.90 168.96 84.18 C 169.33 84.64 170.06 85.55 170.43 86.01 C 168.68 86.24 165.77 86.54 165.60 84.05 Z" />
</g>
<g id="#e4f0ffff">
<path fill="#e4f0ff" opacity="1.00" d=" M 167.83 83.04 C 168.12 80.46 171.63 84.00 168.96 84.18 C 168.68 83.90 168.11 83.33 167.83 83.04 Z" />
</g>
<g id="#c3cff1ff">
<path fill="#c3cff1" opacity="1.00" d=" M 331.83 84.77 C 332.62 81.97 336.30 80.49 338.87 81.80 C 341.07 82.69 342.02 85.03 343.02 87.00 C 339.28 86.27 335.58 85.37 331.83 84.77 Z" />
</g>
<g id="#798cc9ff">
<path fill="#798cc9" opacity="1.00" d=" M 553.73 83.84 C 555.08 83.56 556.48 83.37 557.88 83.63 C 588.24 90.25 618.67 96.61 649.06 103.08 C 650.02 103.46 651.85 103.54 651.79 104.99 C 652.02 115.34 650.64 125.65 650.41 135.99 C 650.13 140.30 650.22 144.75 648.73 148.87 C 647.26 138.63 649.60 128.27 649.49 117.99 C 649.34 113.97 650.50 110.00 650.12 106.00 C 650.19 104.39 648.09 104.51 647.07 104.06 C 626.69 99.83 606.36 95.32 585.98 91.07 C 575.27 88.46 564.34 86.82 553.73 83.84 Z" />
</g>
<g id="#31487bff">
<path fill="#31487b" opacity="1.00" d=" M 553.73 83.84 C 564.34 86.82 575.27 88.46 585.98 91.07 C 606.36 95.32 626.69 99.83 647.07 104.06 C 648.09 104.51 650.19 104.39 650.12 106.00 C 650.50 110.00 649.34 113.97 649.49 117.99 C 649.60 128.27 647.26 138.63 648.73 148.87 C 647.22 150.58 646.99 152.89 646.75 155.07 C 646.15 155.31 644.96 155.80 644.36 156.05 C 645.36 140.59 646.54 125.15 647.73 109.70 C 646.20 109.03 644.65 108.40 643.02 108.04 C 618.96 102.96 594.94 97.67 570.89 92.49 C 565.92 91.56 561.04 90.06 556.01 89.52 C 554.82 90.31 555.06 91.94 554.80 93.17 C 553.92 107.26 553.09 121.36 552.14 135.45 C 551.51 135.62 550.26 135.97 549.64 136.15 C 550.61 121.42 551.36 106.69 552.24 91.96 C 552.45 89.22 552.12 86.25 553.73 83.84 Z" />
<path fill="#31487b" opacity="1.00" d=" M 521.31 113.32 C 521.65 113.27 522.34 113.18 522.68 113.14 C 530.41 122.15 534.16 133.69 537.38 144.91 C 537.92 147.27 538.42 149.63 539.13 151.95 C 539.04 152.59 538.86 153.86 538.77 154.50 C 538.07 151.98 537.48 149.44 536.92 146.90 C 533.66 135.03 530.06 122.41 521.31 113.32 Z" />
</g>
<g id="#9bb3f2ff">
<path fill="#9bb3f2" opacity="1.00" d=" M 283.00 84.84 C 285.18 86.77 287.53 88.82 288.30 91.75 C 289.53 96.09 288.21 100.58 286.35 104.53 C 289.74 108.13 293.40 111.47 296.82 115.04 C 296.31 110.15 299.37 104.81 296.24 100.43 C 297.86 100.30 299.48 100.16 301.11 100.08 C 303.42 102.75 304.47 106.10 304.49 109.60 C 304.00 113.07 302.42 116.20 300.59 119.14 C 302.06 120.85 303.54 122.55 305.06 124.22 C 304.77 130.18 304.42 136.13 304.10 142.08 C 304.07 140.72 304.05 139.36 304.03 138.00 C 299.22 137.86 294.41 136.43 290.75 133.21 C 294.93 130.68 299.79 130.00 304.60 130.33 C 305.18 126.19 301.93 123.42 299.27 120.84 C 296.72 122.38 294.08 124.15 290.99 124.24 C 286.69 124.37 282.59 122.52 279.18 120.02 C 284.27 116.03 291.01 116.44 296.95 117.89 C 293.16 114.04 289.51 110.04 285.39 106.54 C 283.39 108.19 281.48 110.19 278.90 110.88 C 275.97 111.58 272.94 111.22 269.98 111.07 L 268.98 111.00 C 268.16 110.07 267.33 109.13 266.52 108.19 C 270.91 104.69 276.42 103.22 282.01 103.59 C 279.68 101.65 277.58 99.34 274.85 97.97 C 271.16 97.71 267.36 97.81 263.93 96.18 C 261.26 94.11 259.23 91.30 257.02 88.76 C 259.20 88.54 261.39 88.31 263.58 88.13 C 271.62 89.77 276.01 97.15 282.63 101.21 C 280.86 95.91 280.65 90.00 283.00 84.84 Z" />
</g>
<g id="#5776d5ff">
<path fill="#5776d5" opacity="1.00" d=" M 312.89 142.00 C 313.94 123.00 315.13 104.02 316.42 85.04 C 320.41 85.74 324.42 86.44 328.29 87.68 C 328.21 89.45 328.12 91.22 328.11 93.00 C 325.93 92.82 323.75 92.70 321.57 92.62 C 320.70 106.86 319.28 121.10 318.96 135.37 C 317.14 136.06 313.91 136.45 314.25 139.11 C 314.26 141.11 315.96 142.18 317.76 142.47 C 316.37 143.03 314.92 143.40 313.51 143.88 C 313.35 143.41 313.04 142.47 312.89 142.00 Z" />
</g>
<g id="#c8cff4ff">
<path fill="#c8cff4" opacity="1.00" d=" M 346.61 87.87 C 347.87 85.71 350.38 84.11 352.95 84.82 C 355.55 85.33 356.91 87.96 357.70 90.25 C 353.99 89.51 350.30 88.66 346.61 87.87 Z" />
</g>
<g id="#788dc8ff">
<path fill="#788dc8" opacity="1.00" d=" M 426.87 87.17 C 427.92 86.62 428.97 86.07 430.03 85.52 C 432.13 86.52 433.57 88.60 433.09 91.01 C 431.63 117.44 429.91 143.86 428.59 170.30 C 428.52 173.49 428.54 176.92 426.44 179.55 C 425.99 175.60 426.47 171.64 426.56 167.68 C 428.23 146.46 428.51 125.15 430.17 103.93 C 430.39 100.01 430.69 96.07 430.43 92.14 C 430.41 89.88 428.26 88.63 426.87 87.17 Z" />
</g>
<g id="#5677d6ff">
<path fill="#5677d6" opacity="1.00" d=" M 330.00 87.88 C 334.52 88.86 339.02 89.91 343.49 91.10 C 343.27 92.92 343.04 94.73 342.92 96.56 C 338.46 95.84 334.07 94.77 329.69 93.66 C 329.71 91.73 329.86 89.80 330.00 87.88 Z" />
</g>
<g id="#c8d0f6ff">
<path fill="#c8d0f6" opacity="1.00" d=" M 361.17 91.02 C 362.42 89.11 364.73 87.63 367.08 88.05 C 369.65 88.75 371.03 91.22 372.29 93.36 C 368.53 92.82 364.84 91.95 361.17 91.02 Z" />
</g>
<g id="#40569aff">
<path fill="#40569a" opacity="1.00" d=" M 373.88 93.44 C 374.69 90.76 377.80 89.43 380.42 89.71 C 383.14 90.02 384.91 92.34 386.54 94.30 L 386.29 96.11 C 384.20 93.79 381.95 89.65 378.18 91.14 C 377.09 91.82 374.55 92.50 375.07 94.04 C 379.15 95.38 383.44 95.94 387.62 96.87 C 388.42 95.95 389.23 95.02 390.07 94.12 C 393.85 91.42 398.19 93.49 400.74 96.76 C 400.86 97.56 401.10 99.18 401.22 99.98 C 405.51 101.10 409.93 101.67 414.17 102.97 C 413.31 123.75 411.75 144.54 410.48 165.32 C 410.39 167.13 410.40 168.95 410.40 170.76 C 409.95 173.92 409.68 177.10 409.81 180.29 C 408.59 181.40 407.36 182.50 406.01 183.44 L 404.77 183.26 C 405.27 167.52 406.49 151.81 407.53 136.10 C 407.71 125.79 409.26 115.53 408.97 105.21 C 401.73 103.79 394.58 101.93 387.27 100.88 C 387.20 102.92 387.11 104.96 387.17 107.00 C 387.43 108.08 387.72 109.16 388.03 110.23 C 389.26 110.30 390.49 110.36 391.73 110.43 C 391.70 111.88 391.66 113.33 391.61 114.78 C 387.60 114.41 386.87 109.78 385.68 106.72 C 385.54 104.56 385.66 102.39 385.74 100.23 C 381.51 99.38 377.27 98.49 373.12 97.30 C 373.35 96.01 373.60 94.72 373.88 93.44 M 389.06 97.45 C 392.87 98.10 396.60 99.16 400.45 99.59 C 399.31 97.24 397.79 94.63 395.02 94.00 C 392.46 93.54 390.31 95.43 389.06 97.45 Z" />
<path fill="#40569a" opacity="1.00" d=" M 601.08 205.70 C 611.31 198.54 620.72 190.26 630.89 183.01 C 630.94 183.60 631.02 184.77 631.06 185.35 C 623.66 190.83 616.46 196.57 609.18 202.22 C 606.40 204.30 603.85 206.89 600.46 207.93 C 600.63 207.17 600.84 206.43 601.08 205.70 Z" />
</g>
<g id="#dee6feff">
<path fill="#dee6fe" opacity="1.00" d=" M 136.60 90.07 C 139.13 90.31 141.65 90.72 144.15 91.26 C 143.71 91.51 142.83 92.03 142.39 92.29 C 140.69 119.62 139.67 147.00 137.99 174.33 C 139.19 175.07 140.54 175.47 141.91 175.78 C 157.84 179.37 173.63 183.56 189.62 186.88 C 190.53 172.29 191.26 157.70 192.18 143.11 C 192.55 131.25 193.84 119.42 193.55 107.55 C 193.62 105.31 193.80 103.07 193.99 100.83 C 195.63 101.10 197.29 101.32 198.95 101.54 C 199.00 103.01 199.04 104.48 199.00 105.96 C 197.55 135.30 195.83 164.64 194.51 193.99 C 173.61 190.06 152.96 184.87 132.12 180.60 C 133.41 150.42 135.43 120.26 136.60 90.07 Z" />
</g>
<g id="#dfe6ffff">
<path fill="#dfe6ff" opacity="1.00" d=" M 554.80 93.17 C 555.06 91.94 554.82 90.31 556.01 89.52 C 561.04 90.06 565.92 91.56 570.89 92.49 C 594.94 97.67 618.96 102.96 643.02 108.04 C 644.65 108.40 646.20 109.03 647.73 109.70 C 646.54 125.15 645.36 140.59 644.36 156.05 C 642.43 157.65 640.80 159.57 639.39 161.63 C 634.55 160.52 629.70 159.47 624.88 158.30 C 629.86 152.42 628.71 143.96 626.86 137.06 C 625.98 134.76 628.78 133.17 628.85 130.94 C 628.60 124.66 623.93 118.76 617.70 117.45 C 615.40 117.03 613.54 118.76 611.68 119.80 C 605.12 117.34 597.21 117.10 591.57 121.82 L 590.86 121.85 C 590.75 121.51 590.53 120.84 590.42 120.50 C 593.11 118.64 596.47 115.15 594.29 111.72 C 589.40 107.97 581.99 109.93 577.86 113.97 C 571.12 112.40 563.32 114.38 559.08 120.08 C 557.48 122.00 556.98 125.17 559.15 126.88 C 562.18 129.13 566.31 128.33 569.71 127.52 C 569.67 128.10 569.59 129.26 569.55 129.85 C 565.41 131.72 561.89 134.66 559.01 138.15 C 557.02 136.60 554.64 135.66 552.14 135.45 C 553.09 121.36 553.92 107.26 554.80 93.17 Z" />
</g>
<g id="#5678d5ff">
<path fill="#5678d5" opacity="1.00" d=" M 345.09 91.17 C 349.33 92.15 353.56 93.15 357.80 94.15 C 357.62 96.07 357.41 97.98 357.36 99.91 C 353.06 99.28 348.84 98.22 344.67 97.04 C 344.69 95.08 344.89 93.12 345.09 91.17 Z" />
</g>
<g id="#c8d1faff">
<path fill="#c8d1fa" opacity="1.00" d=" M 378.18 91.14 C 381.95 89.65 384.20 93.79 386.29 96.11 L 386.54 94.30 C 386.68 94.05 386.97 93.54 387.11 93.28 C 388.09 93.55 389.08 93.83 390.07 94.12 C 389.23 95.02 388.42 95.95 387.62 96.87 C 383.44 95.94 379.15 95.38 375.07 94.04 C 374.55 92.50 377.09 91.82 378.18 91.14 Z" />
</g>
<g id="#fefefeff">
<path fill="#fefefe" opacity="1.00" d=" M 142.39 92.29 C 142.83 92.03 143.71 91.51 144.15 91.26 C 145.44 91.48 146.73 91.73 148.01 91.99 C 151.07 93.57 153.60 96.25 157.10 96.87 C 164.12 98.31 171.09 99.99 178.13 101.33 C 180.54 101.94 182.84 100.85 185.10 100.16 C 186.43 99.93 187.76 99.82 189.11 99.81 C 190.72 100.21 192.34 100.55 193.99 100.83 C 193.80 103.07 193.62 105.31 193.55 107.55 C 192.45 117.36 192.86 127.25 191.87 137.06 C 191.10 153.48 190.01 169.88 189.20 186.30 C 172.06 182.63 155.10 178.16 137.99 174.33 C 139.67 147.00 140.69 119.62 142.39 92.29 M 148.90 104.67 C 148.71 108.23 148.57 111.79 148.55 115.35 C 151.68 116.10 154.79 116.95 157.99 117.37 C 158.14 113.86 158.28 110.36 158.31 106.85 C 155.19 106.08 152.05 105.34 148.90 104.67 M 165.47 109.88 C 168.19 112.69 172.81 112.46 176.47 113.20 C 173.91 110.14 169.12 110.50 165.47 109.88 M 164.84 116.54 C 170.44 118.23 176.20 119.41 181.93 120.61 C 181.99 120.27 182.11 119.58 182.17 119.24 C 178.34 118.05 174.36 117.44 170.49 116.42 C 168.64 116.14 166.43 115.02 164.84 116.54 M 148.11 121.94 C 147.84 125.40 147.73 128.88 147.71 132.36 C 150.81 133.15 153.93 133.87 157.07 134.49 C 157.29 130.96 157.45 127.43 157.49 123.89 C 154.39 123.12 151.28 122.36 148.11 121.94 M 164.61 126.87 C 167.39 129.76 171.91 129.37 175.59 130.08 C 173.08 126.92 168.26 127.32 164.61 126.87 M 163.83 133.52 C 169.10 135.08 174.51 136.18 179.85 137.47 C 180.81 137.89 181.42 136.95 182.11 136.47 C 177.46 135.14 172.70 134.26 168.01 133.07 C 166.57 132.53 165.09 132.65 163.83 133.52 M 147.08 138.98 C 146.91 142.34 146.55 145.69 146.59 149.05 C 149.36 150.79 152.96 150.80 156.11 151.57 C 156.26 148.02 156.38 144.47 156.42 140.92 C 153.30 140.29 150.20 139.58 147.08 138.98 M 163.53 143.99 C 164.93 145.96 167.46 146.06 169.60 146.61 C 171.43 146.93 173.51 147.80 175.11 146.38 C 171.35 145.18 167.47 144.27 163.53 143.99 M 162.85 150.54 C 166.38 151.84 170.09 152.49 173.72 153.44 C 176.03 153.99 178.38 154.91 180.79 154.35 C 178.85 152.14 175.57 152.45 172.98 151.62 C 169.64 151.12 166.20 149.15 162.85 150.54 M 146.40 156.29 C 146.33 157.41 146.18 159.63 146.10 160.75 C 146.79 160.89 148.17 161.17 148.85 161.31 C 149.18 161.90 149.83 163.09 150.15 163.69 C 151.35 162.49 152.56 161.29 153.83 160.16 C 153.13 162.08 151.83 163.68 150.58 165.27 C 149.29 164.39 148.50 163.07 148.08 161.58 C 146.48 162.64 145.00 164.84 146.13 166.70 C 149.18 167.68 152.32 168.32 155.48 168.81 C 155.50 165.30 155.62 161.80 155.80 158.30 C 152.70 157.49 149.57 156.80 146.40 156.29 M 162.75 161.13 C 165.49 164.23 170.23 163.84 173.98 164.71 C 173.84 164.38 173.54 163.73 173.40 163.40 C 169.96 162.24 166.39 161.33 162.75 161.13 M 162.52 166.90 C 163.40 169.05 165.89 169.03 167.81 169.54 C 172.03 170.23 176.10 171.72 180.39 171.98 C 179.58 170.84 178.47 169.99 177.04 169.88 C 172.20 168.88 167.42 167.56 162.52 166.90 Z" />
</g>
<g id="#fdfdfdff">
<path fill="#fdfdfd" opacity="1.00" d=" M 321.57 92.62 C 323.75 92.70 325.93 92.82 328.11 93.00 C 329.00 96.51 330.19 101.55 334.59 101.81 C 334.59 100.43 334.75 99.02 334.41 97.66 C 333.16 97.50 331.92 97.38 330.67 97.32 C 330.32 96.10 329.99 94.88 329.69 93.66 C 334.07 94.77 338.46 95.84 342.92 96.56 C 343.75 99.16 344.63 101.79 345.93 104.20 C 347.48 105.51 349.53 104.44 349.51 102.48 C 348.74 100.75 346.81 100.47 345.21 100.00 C 345.07 99.26 344.80 97.78 344.67 97.04 C 348.84 98.22 353.06 99.28 357.36 99.91 C 358.56 102.72 358.77 108.52 362.87 108.00 C 364.11 106.62 363.26 104.98 362.66 103.55 C 361.94 103.62 360.49 103.74 359.76 103.80 C 359.58 103.00 359.21 101.38 359.02 100.57 C 362.98 101.52 366.97 102.35 370.98 103.11 C 371.86 105.98 372.94 108.92 375.06 111.13 C 377.72 112.24 377.68 109.32 377.80 107.53 C 376.31 107.29 374.83 107.05 373.35 106.80 C 373.16 106.01 372.79 104.44 372.61 103.65 C 376.97 104.65 381.34 105.61 385.68 106.72 C 386.87 109.78 387.60 114.41 391.61 114.78 C 391.66 113.33 391.70 111.88 391.73 110.43 C 390.49 110.36 389.26 110.30 388.03 110.23 C 387.72 109.16 387.43 108.08 387.17 107.00 C 392.37 108.29 397.63 109.36 402.80 110.81 C 401.41 132.18 400.06 153.55 398.62 174.92 C 394.26 175.87 390.04 174.02 385.83 173.19 C 365.71 168.27 345.53 163.59 325.43 158.62 C 325.11 156.41 325.16 154.17 325.13 151.94 C 329.38 148.52 332.70 144.04 335.17 139.20 C 335.90 137.61 336.50 135.95 337.41 134.45 C 340.10 133.97 343.49 134.84 345.45 132.43 C 349.85 127.17 345.55 118.30 338.99 117.54 C 335.63 116.89 332.27 119.58 331.85 122.91 C 331.03 126.86 333.56 130.33 336.04 133.09 C 335.07 134.24 334.12 135.41 333.10 136.51 C 330.64 138.61 328.13 140.66 325.50 142.55 C 322.11 145.12 317.40 145.18 313.51 143.88 C 314.92 143.40 316.37 143.03 317.76 142.47 C 320.77 141.57 319.98 137.55 318.96 135.37 C 319.28 121.10 320.70 106.86 321.57 92.62 M 375.20 120.33 C 373.43 121.70 374.55 124.64 374.68 126.61 C 377.23 125.40 379.75 124.10 382.19 122.68 C 380.37 120.84 377.65 120.55 375.20 120.33 M 371.98 139.08 C 370.72 144.85 369.81 150.71 369.15 156.58 C 374.49 157.94 379.90 158.99 385.21 160.46 C 385.93 159.78 386.66 159.10 387.38 158.42 C 387.30 153.25 388.74 148.22 388.83 143.05 C 383.21 141.72 377.59 140.42 371.98 139.08 Z" />
</g>
<g id="#c6cff2ff">
<path fill="#c6cff2" opacity="1.00" d=" M 389.06 97.45 C 390.31 95.43 392.46 93.54 395.02 94.00 C 397.79 94.63 399.31 97.24 400.45 99.59 C 396.60 99.16 392.87 98.10 389.06 97.45 Z" />
</g>
<g id="#5777d5ff">
<path fill="#5777d5" opacity="1.00" d=" M 359.06 94.70 C 363.13 95.12 367.13 95.96 371.10 96.96 C 371.03 99.01 370.95 101.06 370.98 103.11 C 366.97 102.35 362.98 101.52 359.02 100.57 C 358.94 98.61 359.01 96.65 359.06 94.70 Z" />
</g>
<g id="#f3f4f8ff">
<path fill="#f3f4f8" opacity="1.00" d=" M 263.93 96.18 C 267.36 97.81 271.16 97.71 274.85 97.97 C 277.58 99.34 279.68 101.65 282.01 103.59 C 276.42 103.22 270.91 104.69 266.52 108.19 C 267.33 109.13 268.16 110.07 268.98 111.00 C 267.61 110.22 265.30 110.11 265.07 108.15 C 265.22 104.91 265.91 101.72 266.72 98.59 C 265.82 97.75 264.86 96.99 263.93 96.18 Z" />
</g>
<g id="#c6cff7ff">
<path fill="#c6cff7" opacity="1.00" d=" M 400.74 96.76 C 406.89 97.05 412.72 99.37 418.80 100.26 C 417.77 122.35 416.80 144.44 415.89 166.52 C 414.08 166.15 412.27 165.72 410.48 165.32 C 411.75 144.54 413.31 123.75 414.17 102.97 C 409.93 101.67 405.51 101.10 401.22 99.98 C 401.10 99.18 400.86 97.56 400.74 96.76 Z" />
</g>
<g id="#5977d6ff">
<path fill="#5977d6" opacity="1.00" d=" M 373.12 97.30 C 377.27 98.49 381.51 99.38 385.74 100.23 C 385.66 102.39 385.54 104.56 385.68 106.72 C 381.34 105.61 376.97 104.65 372.61 103.65 C 372.40 101.52 372.76 99.39 373.12 97.30 Z" />
</g>
<g id="#becbf2ff">
<path fill="#becbf2" opacity="1.00" d=" M 301.11 100.08 C 302.86 100.22 304.61 100.46 306.36 100.70 C 306.17 104.55 306.06 108.40 305.75 112.25 C 305.44 111.59 304.80 110.27 304.49 109.60 C 304.47 106.10 303.42 102.75 301.11 100.08 Z" />
</g>
<g id="#5877d5ff">
<path fill="#5877d5" opacity="1.00" d=" M 387.27 100.88 C 394.58 101.93 401.73 103.79 408.97 105.21 C 409.26 115.53 407.71 125.79 407.53 136.10 C 406.49 151.81 405.27 167.52 404.77 183.26 L 406.01 183.44 C 404.76 183.97 403.42 184.16 402.12 183.75 C 395.41 182.18 388.75 180.43 382.00 179.06 C 381.34 178.91 380.03 178.61 379.38 178.47 C 367.74 175.34 355.92 172.94 344.26 169.91 C 338.44 168.52 332.56 167.36 326.86 165.55 C 326.42 165.42 325.54 165.16 325.10 165.03 C 325.19 162.89 325.30 160.76 325.43 158.62 C 345.53 163.59 365.71 168.27 385.83 173.19 C 390.04 174.02 394.26 175.87 398.62 174.92 C 400.06 153.55 401.41 132.18 402.80 110.81 C 397.63 109.36 392.37 108.29 387.17 107.00 C 387.11 104.96 387.20 102.92 387.27 100.88 Z" />
</g>
<g id="#ff5f4fff">
<path fill="#ff5f4f" opacity="1.00" d=" M 148.90 104.67 C 152.05 105.34 155.19 106.08 158.31 106.85 C 158.28 110.36 158.14 113.86 157.99 117.37 C 154.79 116.95 151.68 116.10 148.55 115.35 C 148.57 111.79 148.71 108.23 148.90 104.67 M 150.11 108.98 C 150.67 110.64 151.35 112.29 152.41 113.70 C 154.54 113.40 155.28 110.68 156.09 108.98 C 154.96 110.09 153.82 111.19 152.55 112.14 C 151.89 110.97 151.21 109.79 150.11 108.98 Z" />
</g>
<g id="#f3f3faff">
<path fill="#f3f3fa" opacity="1.00" d=" M 278.90 110.88 C 281.48 110.19 283.39 108.19 285.39 106.54 C 289.51 110.04 293.16 114.04 296.95 117.89 C 291.01 116.44 284.27 116.03 279.18 120.02 C 282.59 122.52 286.69 124.37 290.99 124.24 C 294.08 124.15 296.72 122.38 299.27 120.84 C 301.93 123.42 305.18 126.19 304.60 130.33 C 299.79 130.00 294.93 130.68 290.75 133.21 C 294.41 136.43 299.22 137.86 304.03 138.00 C 304.05 139.36 304.07 140.72 304.10 142.08 C 303.43 144.93 305.44 146.88 307.78 148.02 C 305.82 150.29 304.14 152.78 302.43 155.25 C 302.84 153.17 303.42 151.13 303.97 149.08 C 303.56 147.72 303.17 146.35 302.80 144.97 C 298.59 142.59 295.85 138.56 291.96 135.81 C 288.76 132.69 285.83 129.31 282.51 126.32 C 277.48 121.98 274.24 116.09 269.98 111.07 C 272.94 111.22 275.97 111.58 278.90 110.88 Z" />
</g>
<g id="#365089ff">
<path fill="#365089" opacity="1.00" d=" M 193.55 107.55 C 193.84 119.42 192.55 131.25 192.18 143.11 C 191.26 157.70 190.53 172.29 189.62 186.88 C 173.63 183.56 157.84 179.37 141.91 175.78 C 140.54 175.47 139.19 175.07 137.99 174.33 C 155.10 178.16 172.06 182.63 189.20 186.30 C 190.01 169.88 191.10 153.48 191.87 137.06 C 192.86 127.25 192.45 117.36 193.55 107.55 Z" />
<path fill="#365089" opacity="1.00" d=" M 119.72 146.49 C 120.00 146.47 120.56 146.43 120.84 146.41 C 119.25 160.98 115.91 175.31 113.99 189.84 L 113.20 189.74 C 113.35 188.58 113.50 187.43 113.65 186.27 C 115.02 177.16 116.64 168.09 118.18 159.00 C 119.04 154.88 119.74 150.71 119.72 146.49 Z" />
<path fill="#365089" opacity="1.00" d=" M 100.68 156.67 C 101.49 155.61 101.99 154.36 102.64 153.20 C 102.42 165.87 104.82 178.60 102.40 191.19 C 101.67 191.20 100.22 191.21 99.50 191.21 C 99.34 190.89 99.03 190.23 98.87 189.91 C 101.28 190.18 99.40 186.77 98.50 189.12 C 98.42 188.81 98.24 188.18 98.15 187.87 C 100.18 183.11 98.23 177.86 98.46 172.88 C 97.99 175.31 97.47 177.74 97.16 180.20 C 96.92 174.29 97.25 168.08 95.12 162.48 C 94.40 172.20 94.58 181.99 92.96 191.63 C 92.69 192.28 92.15 193.57 91.88 194.22 L 91.14 195.24 L 90.16 194.10 C 89.33 192.55 88.69 190.91 88.11 189.26 C 88.06 188.95 87.96 188.33 87.91 188.03 C 87.45 184.03 87.89 180.02 87.85 176.02 C 87.60 168.66 86.92 161.32 86.65 153.97 C 88.63 155.16 90.61 156.34 92.69 157.33 C 95.33 157.42 98.27 158.04 100.68 156.67 Z" />
</g>
<g id="#fbfffcff">
<path fill="#fbfffc" opacity="1.00" d=" M 150.11 108.98 C 151.21 109.79 151.89 110.97 152.55 112.14 C 153.82 111.19 154.96 110.09 156.09 108.98 C 155.28 110.68 154.54 113.40 152.41 113.70 C 151.35 112.29 150.67 110.64 150.11 108.98 Z" />
<path fill="#fbfffc" opacity="1.00" d=" M 149.21 126.06 C 150.70 126.52 150.96 128.68 152.54 128.83 C 153.52 127.78 154.45 126.66 155.74 125.97 C 154.69 127.87 153.44 129.69 151.65 130.98 C 150.77 129.37 149.90 127.76 149.21 126.06 Z" />
<path fill="#fbfffc" opacity="1.00" d=" M 302.41 155.27 C 302.95 158.54 302.11 161.91 303.06 165.13 C 302.80 166.25 302.50 167.37 302.18 168.48 C 302.57 168.73 303.36 169.23 303.76 169.48 C 302.76 171.06 300.73 171.86 300.72 173.98 C 299.81 174.33 298.90 174.67 297.99 175.00 C 298.06 168.17 300.69 161.78 302.41 155.27 Z" />
</g>
<g id="#c2cbe2ff">
<path fill="#c2cbe2" opacity="1.00" d=" M 165.47 109.88 C 169.12 110.50 173.91 110.14 176.47 113.20 C 172.81 112.46 168.19 112.69 165.47 109.88 Z" />
</g>
<g id="#eef2f1ff">
<path fill="#eef2f1" opacity="1.00" d=" M 304.49 109.60 C 304.80 110.27 305.44 111.59 305.75 112.25 C 305.48 116.24 305.27 120.23 305.06 124.22 C 303.54 122.55 302.06 120.85 300.59 119.14 C 302.42 116.20 304.00 113.07 304.49 109.60 Z" />
</g>
<g id="#c6cff6ff">
<path fill="#c6cff6" opacity="1.00" d=" M 577.86 113.97 C 581.99 109.93 589.40 107.97 594.29 111.72 C 596.47 115.15 593.11 118.64 590.42 120.50 C 590.53 120.84 590.75 121.51 590.86 121.85 C 588.08 121.99 585.22 121.97 582.54 122.82 C 579.77 123.85 577.30 125.69 574.32 126.12 C 576.03 123.42 579.13 121.37 579.54 118.00 C 579.17 116.58 578.47 115.29 577.86 113.97 Z" />
<path fill="#c6cff6" opacity="1.00" d=" M 611.68 119.80 C 613.54 118.76 615.40 117.03 617.70 117.45 C 623.93 118.76 628.60 124.66 628.85 130.94 C 628.78 133.17 625.98 134.76 626.86 137.06 C 628.71 143.96 629.86 152.42 624.88 158.30 C 622.00 157.60 619.11 157.01 616.21 156.48 C 616.77 150.98 615.89 145.46 614.00 140.29 C 615.38 138.44 617.17 136.50 616.68 133.98 C 616.04 127.49 610.60 121.28 603.98 120.62 C 601.37 120.19 599.55 122.27 597.76 123.75 C 595.70 123.09 593.64 122.42 591.57 121.82 C 597.21 117.10 605.12 117.34 611.68 119.80 Z" />
</g>
<g id="#4e62dfff">
<path fill="#4e62df" opacity="1.00" d=" M 559.08 120.08 C 563.32 114.38 571.12 112.40 577.86 113.97 C 578.47 115.29 579.17 116.58 579.54 118.00 C 579.13 121.37 576.03 123.42 574.32 126.12 L 574.23 126.14 C 572.68 126.46 571.17 126.93 569.71 127.52 C 566.31 128.33 562.18 129.13 559.15 126.88 C 556.98 125.17 557.48 122.00 559.08 120.08 M 566.15 117.35 C 564.87 118.93 567.81 120.10 568.74 118.76 C 569.94 117.20 567.06 116.08 566.15 117.35 Z" />
<path fill="#4e62df" opacity="1.00" d=" M 569.55 129.85 C 570.30 129.48 571.06 129.12 571.82 128.77 C 577.10 128.94 582.70 128.84 587.41 131.62 C 602.94 138.99 609.71 161.41 598.75 175.30 C 598.69 175.49 598.59 175.88 598.53 176.07 L 598.90 176.72 C 594.49 179.11 589.99 181.67 584.94 182.31 C 580.54 182.90 576.25 181.41 572.13 180.07 C 569.06 178.11 566.09 175.95 563.63 173.26 C 562.32 171.72 561.08 170.12 559.92 168.46 C 558.95 166.91 558.11 165.28 557.38 163.60 C 557.01 162.53 556.68 161.44 556.38 160.35 C 555.99 158.85 555.62 157.35 555.31 155.85 L 555.26 155.07 C 555.80 154.91 556.87 154.60 557.40 154.45 C 558.23 162.54 562.21 170.40 568.84 175.24 C 574.24 179.31 581.49 181.29 588.09 179.29 C 594.75 177.50 599.77 171.55 601.29 164.94 C 604.84 151.21 595.80 135.59 582.07 131.92 C 574.86 129.89 566.58 132.43 562.02 138.44 C 561.71 138.90 561.10 139.81 560.79 140.27 C 560.21 139.54 559.62 138.84 559.01 138.15 C 561.89 134.66 565.41 131.72 569.55 129.85 Z" />
<path fill="#4e62df" opacity="1.00" d=" M 561.34 151.07 C 561.81 151.28 562.76 151.69 563.24 151.90 C 563.12 152.25 562.88 152.95 562.76 153.31 C 561.53 153.50 560.32 153.70 559.11 153.91 C 559.88 152.99 560.62 152.04 561.34 151.07 Z" />
<path fill="#4e62df" opacity="1.00" d=" M 596.44 159.12 C 597.95 159.48 599.46 159.84 600.98 160.21 C 600.89 160.61 600.72 161.42 600.64 161.82 C 599.17 161.52 597.70 161.23 596.25 160.93 C 596.30 160.48 596.39 159.57 596.44 159.12 Z" />
<path fill="#4e62df" opacity="1.00" d=" M 577.17 173.05 C 577.74 173.13 578.88 173.29 579.45 173.37 C 579.17 174.95 579.08 176.65 577.96 177.92 C 577.65 176.30 577.40 174.68 577.17 173.05 Z" />
</g>
<g id="#c5cde4ff">
<path fill="#c5cde4" opacity="1.00" d=" M 164.84 116.54 C 166.43 115.02 168.64 116.14 170.49 116.42 C 174.36 117.44 178.34 118.05 182.17 119.24 C 182.11 119.58 181.99 120.27 181.93 120.61 C 176.20 119.41 170.44 118.23 164.84 116.54 Z" />
</g>
<g id="#3142a9ff">
<path fill="#3142a9" opacity="1.00" d=" M 566.15 117.35 C 567.06 116.08 569.94 117.20 568.74 118.76 C 567.81 120.10 564.87 118.93 566.15 117.35 Z" />
</g>
<g id="#fd604dff">
<path fill="#fd604d" opacity="1.00" d=" M 331.85 122.91 C 332.27 119.58 335.63 116.89 338.99 117.54 C 345.55 118.30 349.85 127.17 345.45 132.43 C 343.49 134.84 340.10 133.97 337.41 134.45 C 336.50 135.95 335.90 137.61 335.17 139.20 C 334.47 138.30 333.78 137.40 333.10 136.51 C 334.12 135.41 335.07 134.24 336.04 133.09 C 333.56 130.33 331.03 126.86 331.85 122.91 M 338.99 126.96 C 337.99 126.23 337.08 125.39 335.94 124.90 C 336.53 126.66 337.65 128.16 338.84 129.56 C 340.58 127.90 342.77 126.38 343.23 123.84 C 341.76 124.79 340.60 126.28 338.99 126.96 Z" />
</g>
<g id="#bacdffff">
<path fill="#bacdff" opacity="1.00" d=" M 375.20 120.33 C 377.65 120.55 380.37 120.84 382.19 122.68 C 379.75 124.10 377.23 125.40 374.68 126.61 C 374.55 124.64 373.43 121.70 375.20 120.33 Z" />
</g>
<g id="#4e62e0ff">
<path fill="#4e62e0" opacity="1.00" d=" M 597.76 123.75 C 599.55 122.27 601.37 120.19 603.98 120.62 C 610.60 121.28 616.04 127.49 616.68 133.98 C 617.17 136.50 615.38 138.44 614.00 140.29 C 610.74 140.51 607.38 140.27 604.58 138.42 C 603.14 137.27 601.78 136.04 600.50 134.73 C 598.18 131.55 597.44 127.63 597.76 123.75 M 607.99 127.96 C 607.72 129.45 609.18 131.83 610.82 130.72 C 611.34 128.87 610.02 126.90 607.99 127.96 Z" />
</g>
<g id="#5678d8ff">
<path fill="#5678d8" opacity="1.00" d=" M 148.11 121.94 C 151.28 122.36 154.39 123.12 157.49 123.89 C 157.45 127.43 157.29 130.96 157.07 134.49 C 153.93 133.87 150.81 133.15 147.71 132.36 C 147.73 128.88 147.84 125.40 148.11 121.94 M 149.21 126.06 C 149.90 127.76 150.77 129.37 151.65 130.98 C 153.44 129.69 154.69 127.87 155.74 125.97 C 154.45 126.66 153.52 127.78 152.54 128.83 C 150.96 128.68 150.70 126.52 149.21 126.06 Z" />
</g>
<g id="#313fa3ff">
<path fill="#313fa3" opacity="1.00" d=" M 582.54 122.82 C 585.22 121.97 588.08 121.99 590.86 121.85 L 591.57 121.82 C 593.64 122.42 595.70 123.09 597.76 123.75 C 597.44 127.63 598.18 131.55 600.50 134.73 C 599.32 136.43 597.78 139.36 600.64 140.33 C 602.47 141.50 603.64 139.79 604.58 138.42 C 607.38 140.27 610.74 140.51 614.00 140.29 C 615.89 145.46 616.77 150.98 616.21 156.48 C 615.72 158.46 615.15 160.43 614.40 162.33 C 613.83 163.50 613.21 164.65 612.58 165.80 C 612.42 166.07 612.11 166.63 611.95 166.91 C 610.51 168.36 609.06 169.81 607.64 171.28 C 606.60 171.93 605.57 172.59 604.55 173.25 C 602.49 174.08 600.49 175.04 598.53 176.07 C 598.59 175.88 598.69 175.49 598.75 175.30 C 609.71 161.41 602.94 138.99 587.41 131.62 C 582.70 128.84 577.10 128.94 571.82 128.77 C 572.65 127.92 573.44 127.03 574.23 126.14 L 574.32 126.12 C 577.30 125.69 579.77 123.85 582.54 122.82 M 583.44 127.37 C 582.24 129.66 586.61 129.91 586.71 127.77 C 586.47 126.28 584.17 126.29 583.44 127.37 Z" />
</g>
<g id="#fbb1a4ff">
<path fill="#fbb1a4" opacity="1.00" d=" M 338.99 126.96 C 340.60 126.28 341.76 124.79 343.23 123.84 C 342.77 126.38 340.58 127.90 338.84 129.56 C 337.65 128.16 336.53 126.66 335.94 124.90 C 337.08 125.39 337.99 126.23 338.99 126.96 Z" />
</g>
<g id="#afb0b6ff">
<path fill="#afb0b6" opacity="1.00" d=" M 664.95 123.84 C 666.63 123.85 668.95 123.26 669.77 125.27 C 671.15 128.12 666.52 130.65 664.89 128.01 C 663.61 126.80 664.68 125.21 664.95 123.84 M 666.16 125.29 C 664.52 126.68 667.02 129.06 668.34 127.39 C 669.73 126.12 667.42 124.07 666.16 125.29 Z" />
</g>
<g id="#f2f3f6ff">
<path fill="#f2f3f6" opacity="1.00" d=" M 666.16 125.29 C 667.42 124.07 669.73 126.12 668.34 127.39 C 667.02 129.06 664.52 126.68 666.16 125.29 Z" />
</g>
<g id="#121e4aff">
<path fill="#121e4a" opacity="1.00" d=" M 569.71 127.52 C 571.17 126.93 572.68 126.46 574.23 126.14 C 573.44 127.03 572.65 127.92 571.82 128.77 C 571.06 129.12 570.30 129.48 569.55 129.85 C 569.59 129.26 569.67 128.10 569.71 127.52 Z" />
<path fill="#121e4a" opacity="1.00" d=" M 314.25 139.11 C 313.91 136.45 317.14 136.06 318.96 135.37 C 319.98 137.55 320.77 141.57 317.76 142.47 C 315.96 142.18 314.26 141.11 314.25 139.11 Z" />
<path fill="#121e4a" opacity="1.00" d=" M 301.13 198.82 C 303.25 199.40 304.11 201.41 304.79 203.30 C 303.93 204.97 302.72 202.78 301.79 202.26 C 301.63 201.40 301.30 199.68 301.13 198.82 Z" />
</g>
<g id="#1c2e58ff">
<path fill="#1c2e58" opacity="1.00" d=" M 93.01 127.96 C 94.78 125.63 98.70 126.16 98.31 129.56 C 97.65 129.75 96.34 130.15 95.68 130.34 C 94.99 132.70 94.25 135.05 93.48 137.38 C 91.83 138.12 90.19 138.88 88.54 139.64 C 88.08 140.47 87.61 141.31 87.15 142.15 C 85.00 142.15 82.79 142.22 80.94 143.44 C 80.77 142.84 80.45 141.64 80.28 141.04 C 82.46 138.56 84.05 135.67 85.94 132.99 C 88.48 131.55 91.22 130.38 93.01 127.96 Z" />
<path fill="#1c2e58" opacity="1.00" d=" M 640.86 164.47 C 643.56 164.22 644.99 166.42 644.93 168.94 L 643.54 169.10 C 643.96 169.46 644.80 170.17 645.22 170.53 C 644.70 170.82 643.67 171.38 643.15 171.66 C 642.49 170.56 641.94 169.44 641.34 168.32 C 641.22 167.36 640.98 165.43 640.86 164.47 Z" />
<path fill="#1c2e58" opacity="1.00" d=" M 97.16 180.20 C 97.47 177.74 97.99 175.31 98.46 172.88 C 98.23 177.86 100.18 183.11 98.15 187.87 C 97.43 185.38 97.09 182.79 97.16 180.20 Z" />
</g>
<g id="#c6cfe5ff">
<path fill="#c6cfe5" opacity="1.00" d=" M 164.61 126.87 C 168.26 127.32 173.08 126.92 175.59 130.08 C 171.91 129.37 167.39 129.76 164.61 126.87 Z" />
</g>
<g id="#152375ff">
<path fill="#152375" opacity="1.00" d=" M 583.44 127.37 C 584.17 126.29 586.47 126.28 586.71 127.77 C 586.61 129.91 582.24 129.66 583.44 127.37 Z" />
</g>
<g id="#3547b0ff">
<path fill="#3547b0" opacity="1.00" d=" M 607.99 127.96 C 610.02 126.90 611.34 128.87 610.82 130.72 C 609.18 131.83 607.72 129.45 607.99 127.96 Z" />
</g>
<g id="#e75132ff">
<path fill="#e75132" opacity="1.00" d=" M 95.68 130.34 C 96.34 130.15 97.65 129.75 98.31 129.56 C 98.40 130.43 98.49 131.30 98.57 132.18 C 97.74 132.87 96.90 133.56 96.10 134.29 C 96.57 134.40 97.50 134.60 97.97 134.71 C 97.55 137.21 95.87 138.21 93.48 137.38 C 94.25 135.05 94.99 132.70 95.68 130.34 Z" />
</g>
<g id="#c1c4e3ff">
<path fill="#c1c4e3" opacity="1.00" d=" M 562.02 138.44 C 566.58 132.43 574.86 129.89 582.07 131.92 C 595.80 135.59 604.84 151.21 601.29 164.94 C 599.77 171.55 594.75 177.50 588.09 179.29 C 581.49 181.29 574.24 179.31 568.84 175.24 C 562.21 170.40 558.23 162.54 557.40 154.45 C 557.83 154.31 558.68 154.05 559.11 153.91 C 560.32 153.70 561.53 153.50 562.76 153.31 C 563.72 157.23 564.92 161.10 566.66 164.77 C 565.67 165.95 564.68 167.14 563.73 168.36 C 565.35 168.44 566.81 167.76 568.25 167.10 C 571.03 169.36 573.85 171.64 577.17 173.05 C 577.40 174.68 577.65 176.30 577.96 177.92 C 579.08 176.65 579.17 174.95 579.45 173.37 C 583.30 173.94 586.96 172.44 590.46 171.04 C 591.73 172.24 593.06 173.39 594.48 174.44 C 593.72 172.86 592.92 171.30 592.07 169.77 C 593.51 166.85 595.06 163.97 596.25 160.93 C 597.70 161.23 599.17 161.52 600.64 161.82 C 600.72 161.42 600.89 160.61 600.98 160.21 C 599.46 159.84 597.95 159.48 596.44 159.12 C 596.07 154.87 594.82 150.75 592.88 146.96 C 593.96 145.92 595.04 144.89 596.10 143.83 C 594.51 142.91 593.09 144.21 591.71 144.86 C 586.18 138.50 576.66 136.07 569.08 140.17 C 567.75 138.96 566.38 137.80 564.84 136.88 C 565.52 138.63 566.63 140.15 567.84 141.57 C 567.00 142.76 566.15 143.93 565.38 145.17 C 564.48 142.82 563.38 140.55 562.02 138.44 M 580.00 138.17 C 583.08 139.15 581.63 135.26 582.04 133.57 C 579.22 133.28 580.11 136.38 580.00 138.17 Z" />
<path fill="#c1c4e3" opacity="1.00" d=" M 181.37 197.63 C 182.44 197.27 183.32 197.57 184.02 198.52 C 183.34 198.47 181.98 198.37 181.31 198.32 L 181.37 197.63 Z" />
</g>
<g id="#ababb2ff">
<path fill="#ababb2" opacity="1.00" d=" M 67.63 137.53 C 64.38 139.68 62.01 133.10 65.69 132.60 L 65.87 133.10 C 65.55 134.05 65.27 135.01 65.00 135.98 C 65.99 136.68 67.08 136.74 67.98 135.87 C 67.66 134.99 67.42 134.09 67.25 133.19 C 69.75 132.01 69.87 137.17 67.63 137.53 Z" />
</g>
<g id="#c5cee5ff">
<path fill="#c5cee5" opacity="1.00" d=" M 163.83 133.52 C 165.09 132.65 166.57 132.53 168.01 133.07 C 172.70 134.26 177.46 135.14 182.11 136.47 C 181.42 136.95 180.81 137.89 179.85 137.47 C 174.51 136.18 169.10 135.08 163.83 133.52 Z" />
</g>
<g id="#b0b0b8ff">
<path fill="#b0b0b8" opacity="1.00" d=" M 448.98 132.80 C 450.63 132.79 453.04 132.24 453.65 134.37 C 455.04 137.03 450.46 139.65 448.84 137.05 C 447.53 135.83 448.63 134.16 448.98 132.80 M 450.21 134.25 C 448.80 135.23 450.31 137.86 451.80 136.67 C 453.23 135.69 451.70 133.04 450.21 134.25 Z" />
</g>
<g id="#f7f7fbff">
<path fill="#f7f7fb" opacity="1.00" d=" M 450.21 134.25 C 451.70 133.04 453.23 135.69 451.80 136.67 C 450.31 137.86 448.80 135.23 450.21 134.25 Z" />
</g>
<g id="#646ee1ff">
<path fill="#646ee1" opacity="1.00" d=" M 580.00 138.17 C 580.11 136.38 579.22 133.28 582.04 133.57 C 581.63 135.26 583.08 139.15 580.00 138.17 Z" />
</g>
<g id="#7092f4ff">
<path fill="#7092f4" opacity="1.00" d=" M 97.97 134.71 C 99.45 134.98 100.94 135.22 102.41 135.56 C 102.56 137.73 102.50 139.90 102.17 142.05 C 101.60 145.77 102.78 149.47 102.64 153.20 C 101.99 154.36 101.49 155.61 100.68 156.67 C 98.27 158.04 95.33 157.42 92.69 157.33 C 90.85 152.36 92.28 146.77 89.38 142.08 C 89.25 142.40 88.99 143.03 88.85 143.35 C 84.17 146.79 81.27 151.86 78.88 157.04 C 78.43 156.95 77.53 156.78 77.08 156.69 C 78.19 152.22 79.45 147.80 80.94 143.44 C 82.79 142.22 85.00 142.15 87.15 142.15 C 87.61 141.31 88.08 140.47 88.54 139.64 C 90.19 138.88 91.83 138.12 93.48 137.38 C 95.87 138.21 97.55 137.21 97.97 134.71 Z" />
</g>
<g id="#111f70ff">
<path fill="#111f70" opacity="1.00" d=" M 600.64 140.33 C 597.78 139.36 599.32 136.43 600.50 134.73 C 601.78 136.04 603.14 137.27 604.58 138.42 C 603.64 139.79 602.47 141.50 600.64 140.33 Z" />
</g>
<g id="#7688ffff">
<path fill="#7688ff" opacity="1.00" d=" M 102.41 135.56 C 104.61 136.48 106.71 137.67 109.02 138.27 C 112.04 138.39 115.00 137.55 117.97 137.11 C 118.29 137.51 118.93 138.30 119.25 138.70 C 115.90 140.54 112.75 142.94 108.96 143.80 C 106.59 143.78 104.39 142.74 102.17 142.05 C 102.50 139.90 102.56 137.73 102.41 135.56 Z" />
</g>
<g id="#dc5043ff">
<path fill="#dc5043" opacity="1.00" d=" M 117.97 137.11 C 118.90 136.27 120.22 136.08 121.29 136.78 C 121.01 137.21 120.45 138.05 120.17 138.48 L 119.25 138.70 C 118.93 138.30 118.29 137.51 117.97 137.11 Z" />
<path fill="#dc5043" opacity="1.00" d=" M 77.70 159.18 C 75.85 160.04 75.79 157.30 77.08 156.69 C 77.53 156.78 78.43 156.95 78.88 157.04 C 78.59 157.58 77.99 158.64 77.70 159.18 Z" />
<path fill="#dc5043" opacity="1.00" d=" M 637.71 167.59 C 637.99 166.30 638.32 165.02 638.69 163.74 C 639.23 163.92 640.31 164.29 640.86 164.47 C 640.98 165.43 641.22 167.36 641.34 168.32 C 641.09 169.79 640.72 171.25 640.39 172.71 C 639.61 172.49 638.03 172.06 637.24 171.85 C 637.37 170.42 637.48 169.00 637.71 167.59 Z" />
</g>
<g id="#ff6250ff">
<path fill="#ff6250" opacity="1.00" d=" M 545.44 148.13 C 544.11 143.74 545.10 138.22 549.64 136.15 C 550.26 135.97 551.51 135.62 552.14 135.45 C 554.64 135.66 557.02 136.60 559.01 138.15 C 559.62 138.84 560.21 139.54 560.79 140.27 C 562.40 143.67 562.88 147.54 561.34 151.07 C 560.62 152.04 559.88 152.99 559.11 153.91 C 558.68 154.05 557.83 154.31 557.40 154.45 C 556.87 154.60 555.80 154.91 555.26 155.07 C 550.77 155.27 547.15 152.04 545.44 148.13 M 552.50 139.23 C 552.46 141.84 552.34 144.44 552.33 147.04 C 554.98 145.73 553.71 141.72 554.54 139.29 C 554.03 139.28 553.01 139.25 552.50 139.23 M 551.09 148.46 C 551.62 149.55 552.46 150.39 553.56 150.92 C 553.63 150.23 553.76 148.83 553.83 148.14 C 553.14 148.22 551.78 148.38 551.09 148.46 Z" />
</g>
<g id="#556bebff">
<path fill="#556beb" opacity="1.00" d=" M 121.29 136.78 C 122.55 137.07 123.82 137.32 125.09 137.55 C 124.99 139.32 124.87 141.10 124.74 142.87 C 123.28 142.76 121.82 142.70 120.38 142.46 C 119.29 141.32 119.94 139.80 120.17 138.48 C 120.45 138.05 121.01 137.21 121.29 136.78 Z" />
</g>
<g id="#a9bdf2ff">
<path fill="#a9bdf2" opacity="1.00" d=" M 325.50 142.55 C 328.13 140.66 330.64 138.61 333.10 136.51 C 333.78 137.40 334.47 138.30 335.17 139.20 C 332.70 144.04 329.38 148.52 325.13 151.94 C 324.63 151.62 323.64 150.97 323.14 150.65 C 322.98 156.39 322.59 162.12 321.27 167.73 C 321.96 167.85 323.34 168.10 324.04 168.22 C 324.02 168.64 324.00 169.47 323.98 169.88 C 323.93 170.48 323.83 171.68 323.79 172.29 L 323.28 173.53 C 323.32 171.95 323.36 170.36 323.39 168.78 C 318.45 169.12 313.62 168.00 309.08 166.11 C 308.89 166.37 308.52 166.88 308.34 167.13 C 308.38 163.65 308.58 160.18 308.64 156.70 C 306.72 159.97 305.73 163.72 303.47 166.80 C 303.37 166.38 303.17 165.55 303.06 165.13 C 302.11 161.91 302.95 158.54 302.41 155.27 L 302.43 155.25 C 304.14 152.78 305.82 150.29 307.78 148.02 C 309.09 146.48 310.46 144.99 311.76 143.45 C 312.04 143.08 312.61 142.36 312.89 142.00 C 313.04 142.47 313.35 143.41 313.51 143.88 C 317.40 145.18 322.11 145.12 325.50 142.55 Z" />
</g>
<g id="#ebecf0ff">
<path fill="#ebecf0" opacity="1.00" d=" M 564.84 136.88 C 566.38 137.80 567.75 138.96 569.08 140.17 C 576.66 136.07 586.18 138.50 591.71 144.86 C 593.09 144.21 594.51 142.91 596.10 143.83 C 595.04 144.89 593.96 145.92 592.88 146.96 C 594.82 150.75 596.07 154.87 596.44 159.12 C 596.39 159.57 596.30 160.48 596.25 160.93 C 595.06 163.97 593.51 166.85 592.07 169.77 C 592.92 171.30 593.72 172.86 594.48 174.44 C 593.06 173.39 591.73 172.24 590.46 171.04 C 586.96 172.44 583.30 173.94 579.45 173.37 C 578.88 173.29 577.74 173.13 577.17 173.05 C 573.85 171.64 571.03 169.36 568.25 167.10 C 566.81 167.76 565.35 168.44 563.73 168.36 C 564.68 167.14 565.67 165.95 566.66 164.77 C 564.92 161.10 563.72 157.23 562.76 153.31 C 562.88 152.95 563.12 152.25 563.24 151.90 C 563.92 149.65 564.49 147.35 565.38 145.17 C 566.15 143.93 567.00 142.76 567.84 141.57 C 566.63 140.15 565.52 138.63 564.84 136.88 M 576.36 143.87 C 575.81 148.01 578.44 151.93 577.21 156.03 C 576.45 157.91 578.78 158.54 580.11 158.75 C 583.49 162.26 585.70 166.92 589.70 169.79 C 587.55 165.82 584.21 162.70 581.69 159.00 C 580.86 157.19 580.64 155.06 578.90 153.82 C 577.97 150.53 577.92 146.97 576.36 143.87 Z" />
</g>
<g id="#5576d8ff">
<path fill="#5576d8" opacity="1.00" d=" M 147.08 138.98 C 150.20 139.58 153.30 140.29 156.42 140.92 C 156.38 144.47 156.26 148.02 156.11 151.57 C 152.96 150.80 149.36 150.79 146.59 149.05 C 146.55 145.69 146.91 142.34 147.08 138.98 M 151.54 147.56 C 152.83 146.22 153.81 144.63 154.78 143.05 C 153.46 143.64 152.50 144.72 151.53 145.75 C 149.85 146.09 149.33 143.85 148.31 142.97 C 148.88 144.64 149.22 148.11 151.54 147.56 Z" />
</g>
<g id="#6a7cefff">
<path fill="#6a7cef" opacity="1.00" d=" M 371.98 139.08 C 377.59 140.42 383.21 141.72 388.83 143.05 C 388.74 148.22 387.30 153.25 387.38 158.42 C 386.66 159.10 385.93 159.78 385.21 160.46 C 379.90 158.99 374.49 157.94 369.15 156.58 C 369.81 150.71 370.72 144.85 371.98 139.08 M 372.89 144.30 C 376.66 146.12 380.85 146.82 384.91 147.68 C 384.93 147.36 384.97 146.72 384.98 146.40 C 381.06 145.28 377.03 143.80 372.89 144.30 M 372.59 148.94 C 372.88 149.27 373.46 149.94 373.75 150.27 C 377.31 151.57 381.09 152.09 384.80 152.84 C 384.62 152.44 384.26 151.63 384.09 151.22 C 380.23 150.56 376.48 149.35 372.59 148.94 Z" />
</g>
<g id="#a09bbfff">
<path fill="#a09bbf" opacity="1.00" d=" M 560.79 140.27 C 561.10 139.81 561.71 138.90 562.02 138.44 C 563.38 140.55 564.48 142.82 565.38 145.17 C 564.49 147.35 563.92 149.65 563.24 151.90 C 562.76 151.69 561.81 151.28 561.34 151.07 C 562.88 147.54 562.40 143.67 560.79 140.27 Z" />
</g>
<g id="#6684d7ff">
<path fill="#6684d7" opacity="1.00" d=" M 89.38 142.08 C 92.28 146.77 90.85 152.36 92.69 157.33 C 90.61 156.34 88.63 155.16 86.65 153.97 C 88.17 150.62 88.94 147.03 88.85 143.35 C 88.99 143.03 89.25 142.40 89.38 142.08 Z" />
</g>
<g id="#b4b5bcff">
<path fill="#b4b5bc" opacity="1.00" d=" M 214.02 144.97 C 214.74 142.59 218.54 142.21 219.39 144.76 C 220.81 146.88 218.05 148.55 216.31 149.18 C 215.24 147.98 213.49 146.86 214.02 144.97 M 216.23 144.35 C 214.57 144.85 215.31 147.46 217.00 147.10 C 218.90 146.81 217.95 143.64 216.23 144.35 Z" />
</g>
<g id="#c8cbe5ff">
<path fill="#c8cbe5" opacity="1.00" d=" M 163.53 143.99 C 167.47 144.27 171.35 145.18 175.11 146.38 C 173.51 147.80 171.43 146.93 169.60 146.61 C 167.46 146.06 164.93 145.96 163.53 143.99 Z" />
</g>
<g id="#f0f1f5ff">
<path fill="#f0f1f5" opacity="1.00" d=" M 216.23 144.35 C 217.95 143.64 218.90 146.81 217.00 147.10 C 215.31 147.46 214.57 144.85 216.23 144.35 Z" />
</g>
<g id="#a6b3f6ff">
<path fill="#a6b3f6" opacity="1.00" d=" M 372.89 144.30 C 377.03 143.80 381.06 145.28 384.98 146.40 C 384.97 146.72 384.93 147.36 384.91 147.68 C 380.85 146.82 376.66 146.12 372.89 144.30 Z" />
</g>
<g id="#2941a1ff">
<path fill="#2941a1" opacity="1.00" d=" M 576.36 143.87 C 577.92 146.97 577.97 150.53 578.90 153.82 C 580.64 155.06 580.86 157.19 581.69 159.00 C 584.21 162.70 587.55 165.82 589.70 169.79 C 585.70 166.92 583.49 162.26 580.11 158.75 C 578.78 158.54 576.45 157.91 577.21 156.03 C 578.44 151.93 575.81 148.01 576.36 143.87 Z" />
</g>
<g id="#b1c4fcff">
<path fill="#b1c4fc" opacity="1.00" d=" M 120.84 146.41 C 121.61 146.35 123.17 146.24 123.95 146.19 C 122.08 160.93 119.15 175.53 116.91 190.22 C 116.18 190.13 114.72 189.94 113.99 189.84 C 115.91 175.31 119.25 160.98 120.84 146.41 Z" />
</g>
<g id="#dbe2f5ff">
<path fill="#dbe2f5" opacity="1.00" d=" M 545.44 148.13 C 547.15 152.04 550.77 155.27 555.26 155.07 L 555.31 155.85 C 555.25 156.29 555.14 157.19 555.08 157.64 C 553.10 157.12 551.14 156.41 549.09 156.26 C 547.52 156.70 546.27 157.84 544.93 158.71 C 548.64 159.76 552.47 161.15 556.38 160.35 C 556.68 161.44 557.01 162.53 557.38 163.60 C 555.20 164.94 553.05 166.81 550.32 166.55 C 548.60 166.34 547.21 167.28 545.95 168.30 C 547.62 168.86 549.32 169.40 551.01 169.93 C 550.66 171.31 550.31 172.70 549.97 174.08 C 551.23 175.04 552.50 176.00 553.75 176.98 C 555.25 178.21 556.72 179.47 558.21 180.72 C 552.62 179.35 548.69 184.22 544.66 187.16 C 550.00 188.91 555.58 189.62 561.00 191.04 C 563.14 191.49 565.71 192.33 567.55 190.64 C 570.50 188.76 573.12 185.29 577.03 185.90 C 585.80 187.10 594.67 186.88 603.51 186.78 C 605.78 188.42 608.52 188.97 611.30 188.76 C 609.80 187.15 607.70 186.41 605.77 185.50 C 606.96 185.04 608.16 184.61 609.38 184.20 C 610.51 184.06 611.65 183.95 612.81 183.86 C 613.47 184.08 614.80 184.54 615.47 184.76 C 616.79 183.78 618.05 182.69 619.03 181.35 C 622.72 179.65 625.87 177.08 628.91 174.44 C 628.44 174.08 627.50 173.37 627.03 173.01 C 628.48 173.19 629.94 173.39 631.40 173.59 C 631.08 176.72 630.77 179.86 630.89 183.01 C 620.72 190.26 611.31 198.54 601.08 205.70 C 585.31 202.32 569.66 198.43 553.90 195.00 C 537.08 190.78 520.02 187.50 503.27 182.97 C 514.49 174.01 525.21 164.41 536.71 155.83 C 537.23 155.49 538.26 154.83 538.77 154.50 C 538.86 153.86 539.04 152.59 539.13 151.95 C 539.38 152.43 539.89 153.39 540.15 153.88 C 542.14 152.19 544.18 150.47 545.44 148.13 M 540.05 162.49 C 543.69 163.42 547.28 164.62 551.01 165.19 C 552.91 165.52 553.91 163.61 554.98 162.42 C 551.17 162.58 547.80 160.24 544.00 160.24 C 542.42 160.42 541.30 161.66 540.05 162.49 M 535.35 166.07 C 538.49 167.35 543.37 169.51 545.72 165.89 C 542.47 164.25 538.24 163.11 535.35 166.07 M 529.71 170.90 C 531.48 171.38 533.26 171.82 535.06 172.26 C 536.28 171.40 537.53 170.57 538.68 169.61 C 538.77 168.13 537.03 168.24 536.05 167.89 C 533.51 166.95 530.75 168.54 529.71 170.90 M 541.67 169.48 C 539.96 169.99 538.94 171.55 537.82 172.82 C 540.17 173.51 542.58 173.92 545.01 174.25 C 546.33 173.33 547.65 172.42 548.98 171.51 C 546.65 170.56 544.24 169.37 541.67 169.48 Z" />
</g>
<g id="#a4b1f5ff">
<path fill="#a4b1f5" opacity="1.00" d=" M 372.59 148.94 C 376.48 149.35 380.23 150.56 384.09 151.22 C 384.26 151.63 384.62 152.44 384.80 152.84 C 381.09 152.09 377.31 151.57 373.75 150.27 C 373.46 149.94 372.88 149.27 372.59 148.94 Z" />
</g>
<g id="#765650ff">
<path fill="#765650" opacity="1.00" d=" M 648.73 148.87 C 650.73 148.08 652.44 149.12 653.58 150.73 C 653.29 152.34 653.08 153.96 652.91 155.58 C 653.58 155.83 654.93 156.33 655.60 156.59 C 654.13 157.96 652.57 159.23 650.88 160.32 L 649.07 160.78 C 650.22 159.30 651.56 157.98 652.94 156.72 L 652.50 155.88 C 652.35 155.15 652.04 153.68 651.88 152.95 C 650.51 152.16 649.12 151.39 647.73 150.65 C 647.85 151.57 648.09 153.41 648.20 154.33 L 648.21 154.82 L 648.15 155.89 C 648.01 157.45 647.85 159.02 647.67 160.58 C 647.31 158.75 646.95 156.92 646.75 155.07 C 646.99 152.89 647.22 150.58 648.73 148.87 Z" />
</g>
<g id="#c9cee9ff">
<path fill="#c9cee9" opacity="1.00" d=" M 162.85 150.54 C 166.20 149.15 169.64 151.12 172.98 151.62 C 175.57 152.45 178.85 152.14 180.79 154.35 C 178.38 154.91 176.03 153.99 173.72 153.44 C 170.09 152.49 166.38 151.84 162.85 150.54 Z" />
</g>
<g id="#9cade4ff">
<path fill="#9cade4" opacity="1.00" d=" M 323.14 150.65 C 323.64 150.97 324.63 151.62 325.13 151.94 C 325.16 154.17 325.11 156.41 325.43 158.62 C 325.30 160.76 325.19 162.89 325.10 165.03 C 325.54 165.16 326.42 165.42 326.86 165.55 C 325.70 166.19 324.78 167.15 324.04 168.22 C 323.34 168.10 321.96 167.85 321.27 167.73 C 322.59 162.12 322.98 156.39 323.14 150.65 Z" />
</g>
<g id="#e97057ff">
<path fill="#e97057" opacity="1.00" d=" M 647.73 150.65 C 649.12 151.39 650.51 152.16 651.88 152.95 C 652.04 153.68 652.35 155.15 652.50 155.88 C 651.91 158.84 649.00 158.13 648.15 155.89 L 648.21 154.82 C 648.21 154.70 648.21 154.45 648.20 154.33 C 648.09 153.41 647.85 151.57 647.73 150.65 Z" />
</g>
<g id="#ffb4a1ff">
<path fill="#ffb4a1" opacity="1.00" d=" M 648.20 154.33 C 648.21 154.45 648.21 154.70 648.21 154.82 L 648.20 154.33 Z" />
</g>
<g id="#7092f2ff">
<path fill="#7092f2" opacity="1.00" d=" M 644.36 156.05 C 644.96 155.80 646.15 155.31 646.75 155.07 C 646.95 156.92 647.31 158.75 647.67 160.58 C 647.60 161.35 647.54 162.13 647.49 162.91 C 648.60 162.02 649.71 161.14 650.88 160.32 C 652.57 159.23 654.13 157.96 655.60 156.59 C 655.88 156.65 656.44 156.79 656.72 156.86 L 657.95 157.13 L 658.16 157.71 C 659.43 161.13 660.65 164.58 661.38 168.17 C 659.68 168.62 657.99 169.05 656.27 169.35 C 655.72 169.06 654.61 168.48 654.06 168.19 C 653.94 168.89 653.72 170.30 653.60 171.00 C 650.64 170.60 647.78 169.77 644.93 168.94 C 644.99 166.42 643.56 164.22 640.86 164.47 C 640.31 164.29 639.23 163.92 638.69 163.74 C 638.86 163.21 639.21 162.16 639.39 161.63 C 640.80 159.57 642.43 157.65 644.36 156.05 Z" />
</g>
<g id="#bccbf2ff">
<path fill="#bccbf2" opacity="1.00" d=" M 544.93 158.71 C 546.27 157.84 547.52 156.70 549.09 156.26 C 551.14 156.41 553.10 157.12 555.08 157.64 C 555.14 157.19 555.25 156.29 555.31 155.85 C 555.62 157.35 555.99 158.85 556.38 160.35 C 552.47 161.15 548.64 159.76 544.93 158.71 Z" />
</g>
<g id="#5577d5ff">
<path fill="#5577d5" opacity="1.00" d=" M 146.40 156.29 C 149.57 156.80 152.70 157.49 155.80 158.30 C 155.62 161.80 155.50 165.30 155.48 168.81 C 152.32 168.32 149.18 167.68 146.13 166.70 C 145.00 164.84 146.48 162.64 148.08 161.58 C 148.50 163.07 149.29 164.39 150.58 165.27 C 151.83 163.68 153.13 162.08 153.83 160.16 C 152.56 161.29 151.35 162.49 150.15 163.69 C 149.83 163.09 149.18 161.90 148.85 161.31 C 148.17 161.17 146.79 160.89 146.10 160.75 C 146.18 159.63 146.33 157.41 146.40 156.29 Z" />
</g>
<g id="#fffeffff">
<path fill="#fffeff" opacity="1.00" d=" M 303.47 166.80 C 305.73 163.72 306.72 159.97 308.64 156.70 C 308.58 160.18 308.38 163.65 308.34 167.13 C 308.10 172.06 308.54 177.02 307.96 181.93 C 304.76 186.25 302.89 191.38 302.35 196.72 C 302.86 197.86 304.16 199.62 305.57 198.65 C 307.46 195.79 308.81 192.61 310.47 189.61 C 313.07 185.04 313.70 179.74 315.49 174.86 C 316.02 178.90 316.18 183.01 315.61 187.06 C 314.85 191.94 316.11 196.79 316.71 201.62 C 313.76 201.86 310.85 201.40 307.93 201.03 C 306.33 200.49 305.71 202.46 304.79 203.30 C 304.11 201.41 303.25 199.40 301.13 198.82 C 301.30 199.68 301.63 201.40 301.79 202.26 C 301.19 202.22 299.99 202.14 299.39 202.11 C 300.14 195.94 300.13 188.61 304.95 184.03 C 305.13 178.91 304.86 173.79 305.10 168.67 C 304.55 168.05 304.00 167.43 303.47 166.80 Z" />
</g>
<g id="#30477cff">
<path fill="#30477c" opacity="1.00" d=" M 616.21 156.48 C 619.11 157.01 622.00 157.60 624.88 158.30 C 629.70 159.47 634.55 160.52 639.39 161.63 C 639.21 162.16 638.86 163.21 638.69 163.74 C 638.32 165.02 637.99 166.30 637.71 167.59 C 629.90 166.01 622.18 164.02 614.40 162.33 C 615.15 160.43 615.72 158.46 616.21 156.48 Z" />
</g>
<g id="#e2e5f5ff">
<path fill="#e2e5f5" opacity="1.00" d=" M 658.16 157.71 C 660.36 159.53 660.11 162.70 661.66 164.98 C 663.20 167.84 660.37 169.84 659.09 172.05 C 658.64 175.30 658.92 178.59 659.02 181.86 C 662.27 183.15 663.53 186.72 662.09 189.90 C 659.80 192.75 656.73 194.88 652.97 195.07 C 651.33 197.05 651.77 200.59 649.47 202.20 C 643.10 204.49 635.88 206.09 629.31 203.74 C 626.43 203.20 624.20 200.27 621.06 201.14 C 618.19 202.99 615.97 205.79 612.85 207.26 C 609.16 206.87 605.42 207.29 601.91 208.51 C 600.63 209.08 599.27 208.47 598.01 208.24 C 598.62 208.16 599.84 208.01 600.46 207.93 C 603.85 206.89 606.40 204.30 609.18 202.22 C 616.46 196.57 623.66 190.83 631.06 185.35 C 631.19 187.14 631.32 188.95 631.38 190.75 C 626.98 191.08 621.41 194.22 622.93 199.42 C 626.34 197.67 629.12 194.95 631.40 191.90 C 631.90 193.07 632.50 194.19 633.11 195.31 C 631.40 197.07 629.51 198.79 628.76 201.21 C 631.32 200.27 633.63 198.80 635.79 197.16 C 635.47 196.66 634.84 195.65 634.52 195.15 C 637.03 190.83 637.00 185.72 637.62 180.90 C 638.30 186.24 635.87 192.19 638.63 197.06 C 636.71 198.53 634.84 200.11 633.52 202.16 C 636.21 201.49 641.79 200.88 640.46 196.82 C 642.51 193.27 644.08 189.46 644.97 185.45 C 648.25 186.50 652.18 188.72 655.46 186.48 C 658.56 184.14 658.53 179.87 658.32 176.36 C 658.31 175.75 658.28 174.51 658.26 173.89 C 658.33 173.06 658.47 171.39 658.54 170.55 C 657.77 170.15 657.01 169.75 656.27 169.35 C 657.99 169.05 659.68 168.62 661.38 168.17 C 660.65 164.58 659.43 161.13 658.16 157.71 Z" />
<path fill="#e2e5f5" opacity="1.00" d=" M 588.89 205.99 C 591.80 206.27 594.66 206.95 597.39 208.03 C 594.44 208.15 591.34 207.76 588.89 205.99 Z" />
</g>
<g id="#b6c7f8ff">
<path fill="#b6c7f8" opacity="1.00" d=" M 540.05 162.49 C 541.30 161.66 542.42 160.42 544.00 160.24 C 547.80 160.24 551.17 162.58 554.98 162.42 C 553.91 163.61 552.91 165.52 551.01 165.19 C 547.28 164.62 543.69 163.42 540.05 162.49 Z" />
</g>
<g id="#cacfe4ff">
<path fill="#cacfe4" opacity="1.00" d=" M 162.75 161.13 C 166.39 161.33 169.96 162.24 173.40 163.40 C 173.54 163.73 173.84 164.38 173.98 164.71 C 170.23 163.84 165.49 164.23 162.75 161.13 Z" />
</g>
<g id="#dde4f4ff">
<path fill="#dde4f4" opacity="1.00" d=" M 614.40 162.33 C 622.18 164.02 629.90 166.01 637.71 167.59 C 637.48 169.00 637.37 170.42 637.24 171.85 C 636.74 171.72 635.72 171.46 635.22 171.33 C 631.25 169.16 626.79 168.26 622.30 168.37 C 621.95 168.08 621.25 167.51 620.91 167.23 C 620.21 167.13 618.82 166.94 618.12 166.84 C 616.25 166.57 614.41 166.20 612.58 165.80 C 613.21 164.65 613.83 163.50 614.40 162.33 Z" />
<path fill="#dde4f4" opacity="1.00" d=" M 562.85 200.06 C 565.58 200.23 568.30 200.59 570.94 201.35 C 576.81 202.95 582.85 203.88 588.60 205.93 C 585.56 206.27 582.66 205.18 579.75 204.52 C 574.11 203.06 568.38 201.91 562.85 200.06 Z" />
</g>
<g id="#91a0caf8">
<path fill="#91a0ca" opacity="0.97" d=" M 200.00 181.05 C 200.98 174.92 199.68 168.59 201.53 162.58 C 201.65 163.97 201.74 165.36 201.82 166.76 C 201.78 172.82 201.42 178.87 200.93 184.91 C 200.70 188.43 200.22 192.04 201.27 195.48 C 200.26 196.27 199.26 197.06 198.28 197.87 C 199.79 192.37 199.11 186.63 200.00 181.05 Z" />
</g>
<g id="#b7c7fbff">
<path fill="#b7c7fb" opacity="1.00" d=" M 535.35 166.07 C 538.24 163.11 542.47 164.25 545.72 165.89 C 543.37 169.51 538.49 167.35 535.35 166.07 Z" />
</g>
<g id="#a7b7edff">
<path fill="#a7b7ed" opacity="1.00" d=" M 550.32 166.55 C 553.05 166.81 555.20 164.94 557.38 163.60 C 558.11 165.28 558.95 166.91 559.92 168.46 C 558.83 170.12 556.36 172.57 558.68 174.34 C 560.26 176.05 562.13 174.01 563.63 173.26 C 566.09 175.95 569.06 178.11 572.13 180.07 C 565.87 179.74 560.03 177.04 553.75 176.98 C 552.50 176.00 551.23 175.04 549.97 174.08 C 550.31 172.70 550.66 171.31 551.01 169.93 C 549.32 169.40 547.62 168.86 545.95 168.30 C 547.21 167.28 548.60 166.34 550.32 166.55 Z" />
</g>
<g id="#2e54a7ff">
<path fill="#2e54a7" opacity="1.00" d=" M 309.08 166.11 C 313.62 168.00 318.45 169.12 323.39 168.78 C 323.36 170.36 323.32 171.95 323.28 173.53 C 321.77 182.71 322.17 192.25 319.65 201.21 C 320.31 201.56 320.98 201.91 321.65 202.25 C 322.09 202.64 322.97 203.43 323.41 203.82 L 322.29 204.04 C 320.51 204.37 318.67 204.81 316.91 204.16 C 318.05 203.58 318.89 202.73 319.44 201.60 C 318.76 201.60 317.39 201.61 316.71 201.62 C 316.11 196.79 314.85 191.94 315.61 187.06 C 316.18 183.01 316.02 178.90 315.49 174.86 C 313.70 179.74 313.07 185.04 310.47 189.61 C 308.81 192.61 307.46 195.79 305.57 198.65 C 304.16 199.62 302.86 197.86 302.35 196.72 C 302.89 191.38 304.76 186.25 307.96 181.93 C 308.54 177.02 308.10 172.06 308.34 167.13 C 308.52 166.88 308.89 166.37 309.08 166.11 Z" />
</g>
<g id="#e5e5f2ff">
<path fill="#e5e5f2" opacity="1.00" d=" M 324.04 168.22 C 324.78 167.15 325.70 166.19 326.86 165.55 C 332.56 167.36 338.44 168.52 344.26 169.91 C 343.34 170.72 342.42 171.53 341.49 172.33 C 340.37 173.16 339.18 173.89 337.98 174.58 C 333.60 172.22 328.30 172.44 323.98 169.88 C 324.00 169.47 324.02 168.64 324.04 168.22 Z" />
</g>
<g id="#abb8edff">
<path fill="#abb8ed" opacity="1.00" d=" M 611.95 166.91 C 612.11 166.63 612.42 166.07 612.58 165.80 C 614.41 166.20 616.25 166.57 618.12 166.84 C 619.41 168.38 619.70 170.10 618.45 171.77 C 619.05 171.88 620.25 172.11 620.84 172.23 C 618.89 174.92 616.79 177.52 614.38 179.83 C 614.96 180.62 615.55 181.41 616.15 182.21 C 615.04 182.77 613.93 183.34 612.81 183.86 C 611.65 183.95 610.51 184.06 609.38 184.20 C 608.90 183.86 607.95 183.17 607.47 182.82 C 607.75 179.35 605.92 176.29 604.55 173.25 C 605.57 172.59 606.60 171.93 607.64 171.28 C 610.50 171.50 611.80 169.51 611.95 166.91 Z" />
</g>
<g id="#c7cde6ff">
<path fill="#c7cde6" opacity="1.00" d=" M 162.52 166.90 C 167.42 167.56 172.20 168.88 177.04 169.88 C 178.47 169.99 179.58 170.84 180.39 171.98 C 176.10 171.72 172.03 170.23 167.81 169.54 C 165.89 169.03 163.40 169.05 162.52 166.90 Z" />
</g>
<g id="#e4e6f2ff">
<path fill="#e4e6f2" opacity="1.00" d=" M 201.82 166.76 C 207.66 167.44 213.24 169.33 218.99 170.40 L 220.01 170.55 C 221.03 171.02 222.07 171.48 223.11 171.94 C 223.37 174.00 223.47 176.08 223.28 178.16 C 215.73 183.64 208.61 189.72 201.27 195.48 C 200.22 192.04 200.70 188.43 200.93 184.91 C 201.42 178.87 201.78 172.82 201.82 166.76 Z" />
<path fill="#e4e6f2" opacity="1.00" d=" M 430.40 167.43 C 436.01 168.49 441.75 169.25 447.00 171.63 C 446.96 172.24 446.88 173.47 446.84 174.08 C 441.49 180.13 434.54 184.45 428.11 189.22 C 420.15 193.03 411.44 189.20 403.36 187.82 C 395.23 185.64 386.82 184.54 378.85 181.78 C 379.92 180.89 380.96 179.98 382.00 179.06 C 388.75 180.43 395.41 182.18 402.12 183.75 C 403.42 184.16 404.76 183.97 406.01 183.44 C 407.36 182.50 408.59 181.40 409.81 180.29 C 411.58 180.60 413.33 180.96 415.09 181.35 C 418.94 182.48 423.52 182.86 426.44 179.55 C 428.54 176.92 428.52 173.49 428.59 170.30 C 429.19 169.34 429.79 168.38 430.40 167.43 Z" />
</g>
<g id="#131f71ff">
<path fill="#131f71" opacity="1.00" d=" M 607.64 171.28 C 609.06 169.81 610.51 168.36 611.95 166.91 C 611.80 169.51 610.50 171.50 607.64 171.28 Z" />
<path fill="#131f71" opacity="1.00" d=" M 598.53 176.07 C 600.49 175.04 602.49 174.08 604.55 173.25 C 605.92 176.29 607.75 179.35 607.47 182.82 C 606.61 182.94 604.89 183.16 604.03 183.28 C 601.94 181.41 600.43 179.03 598.90 176.72 L 598.53 176.07 Z" />
</g>
<g id="#bacaf5ff">
<path fill="#bacaf5" opacity="1.00" d=" M 618.12 166.84 C 618.82 166.94 620.21 167.13 620.91 167.23 C 621.25 167.51 621.95 168.08 622.30 168.37 C 626.79 168.26 631.25 169.16 635.22 171.33 C 633.91 172.04 632.65 172.81 631.40 173.59 C 629.94 173.39 628.48 173.19 627.03 173.01 C 627.50 173.37 628.44 174.08 628.91 174.44 C 625.87 177.08 622.72 179.65 619.03 181.35 C 618.05 182.69 616.79 183.78 615.47 184.76 C 614.80 184.54 613.47 184.08 612.81 183.86 C 613.93 183.34 615.04 182.77 616.15 182.21 C 615.55 181.41 614.96 180.62 614.38 179.83 C 616.79 177.52 618.89 174.92 620.84 172.23 C 620.25 172.11 619.05 171.88 618.45 171.77 C 619.70 170.10 619.41 168.38 618.12 166.84 M 617.22 179.80 L 617.88 180.44 C 620.68 179.81 621.72 176.47 621.92 173.92 C 620.19 175.74 618.44 177.59 617.22 179.80 Z" />
</g>
<g id="#cfd9f5ff">
<path fill="#cfd9f5" opacity="1.00" d=" M 426.56 167.68 C 426.47 171.64 425.99 175.60 426.44 179.55 C 423.52 182.86 418.94 182.48 415.09 181.35 C 415.35 178.28 415.60 175.22 415.85 172.15 C 420.07 173.34 424.15 171.06 426.56 167.68 Z" />
</g>
<g id="#bacbf9ff">
<path fill="#bacbf9" opacity="1.00" d=" M 529.71 170.90 C 530.75 168.54 533.51 166.95 536.05 167.89 C 537.03 168.24 538.77 168.13 538.68 169.61 C 537.53 170.57 536.28 171.40 535.06 172.26 C 533.26 171.82 531.48 171.38 529.71 170.90 Z" />
</g>
<g id="#df5b43ff">
<path fill="#df5b43" opacity="1.00" d=" M 654.06 168.19 C 654.61 168.48 655.72 169.06 656.27 169.35 C 657.01 169.75 657.77 170.15 658.54 170.55 C 658.47 171.39 658.33 173.06 658.26 173.89 C 657.22 174.80 656.18 175.72 655.16 176.65 C 651.53 175.17 648.15 173.13 645.22 170.53 C 644.80 170.17 643.96 169.46 643.54 169.10 L 644.93 168.94 C 647.78 169.77 650.64 170.60 653.60 171.00 C 653.72 170.30 653.94 168.89 654.06 168.19 Z" />
</g>
<g id="#b6caf8ff">
<path fill="#b6caf8" opacity="1.00" d=" M 541.67 169.48 C 544.24 169.37 546.65 170.56 548.98 171.51 C 547.65 172.42 546.33 173.33 545.01 174.25 C 542.58 173.92 540.17 173.51 537.82 172.82 C 538.94 171.55 539.96 169.99 541.67 169.48 Z" />
</g>
<g id="#152170ff">
<path fill="#152170" opacity="1.00" d=" M 558.68 174.34 C 556.36 172.57 558.83 170.12 559.92 168.46 C 561.08 170.12 562.32 171.72 563.63 173.26 C 562.13 174.01 560.26 176.05 558.68 174.34 Z" />
</g>
<g id="#90aaebff">
<path fill="#90aaeb" opacity="1.00" d=" M 344.26 169.91 C 355.92 172.94 367.74 175.34 379.38 178.47 C 378.41 179.28 377.46 180.10 376.50 180.91 C 365.01 177.33 353.00 175.81 341.49 172.33 C 342.42 171.53 343.34 170.72 344.26 169.91 Z" />
</g>
<g id="#b8c2edff">
<path fill="#b8c2ed" opacity="1.00" d=" M 409.81 180.29 C 409.68 177.10 409.95 173.92 410.40 170.76 C 412.21 171.23 414.03 171.73 415.85 172.15 C 415.60 175.22 415.35 178.28 415.09 181.35 C 413.33 180.96 411.58 180.60 409.81 180.29 Z" />
</g>
<g id="#7f99f5ff">
<path fill="#7f99f5" opacity="1.00" d=" M 643.15 171.66 C 643.67 171.38 644.70 170.82 645.22 170.53 C 648.15 173.13 651.53 175.17 655.16 176.65 C 656.18 175.72 657.22 174.80 658.26 173.89 C 658.28 174.51 658.31 175.75 658.32 176.36 C 657.44 177.06 656.57 177.76 655.71 178.47 C 651.27 176.28 646.44 175.12 641.88 173.26 C 642.20 172.86 642.84 172.06 643.15 171.66 Z" />
</g>
<g id="#bfcef5ff">
<path fill="#bfcef5" opacity="1.00" d=" M 337.98 174.58 C 339.18 173.89 340.37 173.16 341.49 172.33 C 353.00 175.81 365.01 177.33 376.50 180.91 C 372.87 183.82 369.31 186.80 365.94 190.01 C 362.68 190.78 359.29 191.82 355.93 191.00 C 347.74 189.31 339.76 186.72 331.55 185.19 C 331.40 185.40 331.10 185.83 330.96 186.04 C 331.05 186.33 331.23 186.91 331.32 187.19 C 335.34 188.79 339.74 189.10 343.70 190.91 C 338.91 191.59 334.41 189.43 329.88 188.24 C 330.35 185.55 330.50 182.81 331.11 180.15 C 333.08 177.95 335.37 175.99 337.98 174.58 Z" />
</g>
<g id="#24386bff">
<path fill="#24386b" opacity="1.00" d=" M 631.40 173.59 C 632.65 172.81 633.91 172.04 635.22 171.33 C 635.72 171.46 636.74 171.72 637.24 171.85 C 638.03 172.06 639.61 172.49 640.39 172.71 C 640.77 172.84 641.51 173.12 641.88 173.26 C 646.44 175.12 651.27 176.28 655.71 178.47 C 656.57 177.76 657.44 177.06 658.32 176.36 C 658.53 179.87 658.56 184.14 655.46 186.48 C 652.18 188.72 648.25 186.50 644.97 185.45 C 644.08 189.46 642.51 193.27 640.46 196.82 C 641.79 200.88 636.21 201.49 633.52 202.16 C 634.84 200.11 636.71 198.53 638.63 197.06 C 635.87 192.19 638.30 186.24 637.62 180.90 C 637.00 185.72 637.03 190.83 634.52 195.15 C 634.84 195.65 635.47 196.66 635.79 197.16 C 633.63 198.80 631.32 200.27 628.76 201.21 C 629.51 198.79 631.40 197.07 633.11 195.31 C 632.50 194.19 631.90 193.07 631.40 191.90 L 631.38 190.75 C 631.32 188.95 631.19 187.14 631.06 185.35 C 631.02 184.77 630.94 183.60 630.89 183.01 C 630.77 179.86 631.08 176.72 631.40 173.59 Z" />
</g>
<g id="#fffffdff">
<path fill="#fffffd" opacity="1.00" d=" M 323.28 173.53 L 323.79 172.29 C 323.74 182.29 322.67 192.34 321.65 202.25 C 320.98 201.91 320.31 201.56 319.65 201.21 C 322.17 192.25 321.77 182.71 323.28 173.53 Z" />
<path fill="#fffffd" opacity="1.00" d=" M 374.41 185.12 C 375.89 184.01 377.39 182.93 378.85 181.78 C 386.82 184.54 395.23 185.64 403.36 187.82 C 401.52 187.95 399.68 188.12 397.98 188.88 C 398.47 191.36 396.72 194.96 399.50 196.44 C 399.29 196.85 398.87 197.67 398.65 198.08 C 398.08 198.10 396.92 198.15 396.34 198.17 C 396.27 196.92 396.23 195.67 396.21 194.42 C 396.25 193.21 396.31 192.01 396.38 190.81 C 395.40 190.53 394.42 190.25 393.45 189.96 C 387.29 187.64 380.74 186.81 374.41 185.12 Z" />
</g>
<g id="#a7b6eaff">
<path fill="#a7b6ea" opacity="1.00" d=" M 617.22 179.80 C 618.44 177.59 620.19 175.74 621.92 173.92 C 621.72 176.47 620.68 179.81 617.88 180.44 L 617.22 179.80 Z" />
</g>
<g id="#b9c9f2ff">
<path fill="#b9c9f2" opacity="1.00" d=" M 553.75 176.98 C 560.03 177.04 565.87 179.74 572.13 180.07 C 576.25 181.41 580.54 182.90 584.94 182.31 C 589.99 181.67 594.49 179.11 598.90 176.72 C 600.43 179.03 601.94 181.41 604.03 183.28 C 604.89 183.16 606.61 182.94 607.47 182.82 C 607.95 183.17 608.90 183.86 609.38 184.20 C 608.16 184.61 606.96 185.04 605.77 185.50 C 607.70 186.41 609.80 187.15 611.30 188.76 C 608.52 188.97 605.78 188.42 603.51 186.78 C 594.67 186.88 585.80 187.10 577.03 185.90 C 573.12 185.29 570.50 188.76 567.55 190.64 C 565.71 192.33 563.14 191.49 561.00 191.04 C 555.58 189.62 550.00 188.91 544.66 187.16 C 548.69 184.22 552.62 179.35 558.21 180.72 C 556.72 179.47 555.25 178.21 553.75 176.98 Z" />
</g>
<g id="#445b9eff">
<path fill="#445b9e" opacity="1.00" d=" M 376.50 180.91 C 377.46 180.10 378.41 179.28 379.38 178.47 C 380.03 178.61 381.34 178.91 382.00 179.06 C 380.96 179.98 379.92 180.89 378.85 181.78 C 377.39 182.93 375.89 184.01 374.41 185.12 C 372.28 186.72 370.31 188.50 368.38 190.33 L 367.38 191.18 C 367.02 190.88 366.30 190.30 365.94 190.01 C 369.31 186.80 372.87 183.82 376.50 180.91 Z" />
<path fill="#445b9e" opacity="1.00" d=" M 382.18 204.98 C 386.95 201.58 390.96 197.12 396.21 194.42 C 396.23 195.67 396.27 196.92 396.34 198.17 C 396.37 199.84 396.57 201.54 396.28 203.20 C 392.22 207.22 387.39 210.38 383.20 214.26 L 382.25 214.44 C 382.19 213.66 382.05 212.08 381.98 211.29 C 376.66 210.12 371.34 208.92 366.01 207.82 C 364.54 207.63 363.39 206.64 362.33 205.71 C 369.06 205.90 375.44 208.60 382.04 209.78 C 386.57 206.31 390.85 202.51 395.56 199.27 C 395.63 198.19 395.71 197.12 395.79 196.04 C 391.32 199.23 387.59 203.38 382.90 206.24 C 379.43 206.21 376.12 205.04 372.75 204.37 C 369.18 203.45 365.21 203.30 362.22 200.89 C 369.05 201.17 375.50 203.70 382.18 204.98 Z" />
</g>
<g id="#e3e5efff">
<path fill="#e3e5ef" opacity="1.00" d=" M 112.41 181.86 C 112.86 183.32 113.28 184.79 113.65 186.27 C 113.50 187.43 113.35 188.58 113.20 189.74 L 113.99 189.84 C 114.72 189.94 116.18 190.13 116.91 190.22 L 117.08 191.00 C 117.50 192.62 117.90 194.23 118.18 195.89 C 115.22 197.15 112.17 198.29 108.89 198.12 C 104.38 199.70 99.48 199.10 94.92 200.45 C 94.56 198.06 92.31 196.56 91.88 194.22 C 92.15 193.57 92.69 192.28 92.96 191.63 C 95.45 191.84 97.64 192.94 99.45 194.63 C 101.21 195.73 103.14 196.52 105.06 197.29 C 104.97 196.79 104.81 195.78 104.73 195.28 C 104.85 194.90 105.09 194.15 105.21 193.78 C 107.47 193.04 109.80 192.49 112.10 191.88 C 111.59 188.54 111.72 185.16 112.41 181.86 M 113.35 194.15 C 113.93 194.72 113.93 194.72 113.35 194.15 Z" />
</g>
<g id="#819bdcff">
<path fill="#819bdc" opacity="1.00" d=" M 502.38 185.54 C 501.18 184.62 502.55 183.57 503.27 182.97 C 520.02 187.50 537.08 190.78 553.90 195.00 C 569.66 198.43 585.31 202.32 601.08 205.70 C 600.84 206.43 600.63 207.17 600.46 207.93 C 599.84 208.01 598.62 208.16 598.01 208.24 L 597.39 208.03 C 594.66 206.95 591.80 206.27 588.89 205.99 L 588.60 205.93 C 582.85 203.88 576.81 202.95 570.94 201.35 C 568.30 200.59 565.58 200.23 562.85 200.06 C 546.78 196.98 531.04 192.40 515.09 188.76 C 510.87 187.62 506.56 186.83 502.38 185.54 Z" />
</g>
<g id="#839edeff">
<path fill="#839ede" opacity="1.00" d=" M 330.96 186.04 C 331.10 185.83 331.40 185.40 331.55 185.19 C 339.76 186.72 347.74 189.31 355.93 191.00 C 359.29 191.82 362.68 190.78 365.94 190.01 C 366.30 190.30 367.02 190.88 367.38 191.18 C 360.56 197.38 351.56 191.95 343.88 190.97 L 343.70 190.91 C 339.74 189.10 335.34 188.79 331.32 187.19 C 331.23 186.91 331.05 186.33 330.96 186.04 Z" />
</g>
<g id="#d9e5ffff">
<path fill="#d9e5ff" opacity="1.00" d=" M 368.38 190.33 C 370.31 188.50 372.28 186.72 374.41 185.12 C 380.74 186.81 387.29 187.64 393.45 189.96 C 391.07 195.09 386.23 198.22 382.19 201.90 C 375.80 199.53 368.92 199.04 362.54 196.66 C 364.30 194.48 368.42 193.50 368.38 190.33 Z" />
</g>
<g id="#192650ff">
<path fill="#192650" opacity="1.00" d=" M 98.50 189.12 C 99.40 186.77 101.28 190.18 98.87 189.91 L 98.50 189.12 Z" />
</g>
<g id="#e3e5f1ff">
<path fill="#e3e5f1" opacity="1.00" d=" M 88.11 189.26 C 88.69 190.91 89.33 192.55 90.16 194.10 C 90.33 194.55 90.66 195.45 90.83 195.90 L 89.13 195.84 C 90.39 196.92 91.94 197.50 93.47 198.11 C 93.41 199.21 93.32 200.31 93.19 201.41 C 89.20 201.29 85.59 199.49 82.79 196.73 C 83.27 194.05 85.63 193.05 87.84 192.01 C 87.90 191.33 88.04 189.95 88.11 189.26 Z" />
</g>
<g id="#87a1eaff">
<path fill="#87a1ea" opacity="1.00" d=" M 393.45 189.96 C 394.42 190.25 395.40 190.53 396.38 190.81 C 396.31 192.01 396.25 193.21 396.21 194.42 C 390.96 197.12 386.95 201.58 382.18 204.98 C 382.18 204.21 382.19 202.67 382.19 201.90 C 386.23 198.22 391.07 195.09 393.45 189.96 Z" />
</g>
<g id="#895866ff">
<path fill="#895866" opacity="1.00" d=" M 99.50 191.21 C 100.22 191.21 101.67 191.20 102.40 191.19 C 102.36 191.54 102.28 192.25 102.24 192.61 C 103.05 193.51 103.91 194.37 104.73 195.28 C 104.81 195.78 104.97 196.79 105.06 197.29 C 103.14 196.52 101.21 195.73 99.45 194.63 C 99.48 193.49 99.52 192.35 99.50 191.21 Z" />
</g>
<g id="#fffff1ff">
<path fill="#fffff1" opacity="1.00" d=" M 343.88 190.97 C 351.56 191.95 360.56 197.38 367.38 191.18 L 368.38 190.33 C 368.42 193.50 364.30 194.48 362.54 196.66 C 362.33 198.06 362.22 199.47 362.22 200.89 C 362.25 202.50 362.33 204.10 362.33 205.71 C 362.32 207.07 362.30 208.44 362.29 209.80 C 368.96 211.29 375.53 213.24 382.25 214.44 L 383.20 214.26 L 382.44 214.86 C 379.72 215.49 377.20 213.69 374.47 213.82 C 373.31 212.70 371.57 213.10 370.15 212.65 C 367.09 212.11 364.12 211.01 361.00 210.90 C 361.00 206.70 361.00 202.50 361.00 198.30 C 356.30 193.71 348.56 195.29 343.88 190.97 Z" />
</g>
<g id="#cbcfefff">
<path fill="#cbcfef" opacity="1.00" d=" M 622.93 199.42 C 621.41 194.22 626.98 191.08 631.38 190.75 L 631.40 191.90 C 629.12 194.95 626.34 197.67 622.93 199.42 Z" />
</g>
<g id="#4a52708a">
<path fill="#4a5270" opacity="0.54" d=" M 155.33 191.87 C 156.54 191.57 157.36 191.93 157.82 192.96 C 156.32 193.75 155.49 193.38 155.33 191.87 Z" />
</g>
<g id="#47547398">
<path fill="#475473" opacity="0.60" d=" M 158.71 193.05 C 161.68 193.20 164.56 193.98 167.39 194.89 C 164.39 194.86 161.49 194.07 158.71 193.05 Z" />
</g>
<g id="#515765ff">
<path fill="#515765" opacity="1.00" d=" M 113.35 194.15 C 113.93 194.72 113.93 194.72 113.35 194.15 Z" />
</g>
<g id="#4d5a6f8a">
<path fill="#4d5a6f" opacity="0.54" d=" M 168.36 194.88 C 169.58 194.60 170.42 194.98 170.87 196.02 C 169.35 196.75 168.51 196.37 168.36 194.88 Z" />
</g>
<g id="#4b526477">
<path fill="#4b5264" opacity="0.47" d=" M 172.29 195.83 C 173.33 195.63 174.21 195.94 174.95 196.77 C 173.39 197.75 172.50 197.43 172.29 195.83 Z" />
</g>
<g id="#7d8cf4ff">
<path fill="#7d8cf4" opacity="1.00" d=" M 382.90 206.24 C 387.59 203.38 391.32 199.23 395.79 196.04 C 395.71 197.12 395.63 198.19 395.56 199.27 C 390.85 202.51 386.57 206.31 382.04 209.78 C 375.44 208.60 369.06 205.90 362.33 205.71 C 362.33 204.10 362.25 202.50 362.22 200.89 C 365.21 203.30 369.18 203.45 372.75 204.37 C 376.12 205.04 379.43 206.21 382.90 206.24 Z" />
</g>
<g id="#555f6a81">
<path fill="#555f6a" opacity="0.51" d=" M 177.16 197.03 C 177.63 197.24 178.59 197.66 179.07 197.87 C 178.62 197.87 177.73 197.89 177.29 197.89 L 177.16 197.03 Z" />
</g>
<g id="#c0cff4ff">
<path fill="#c0cff4" opacity="1.00" d=" M 362.22 200.89 C 362.22 199.47 362.33 198.06 362.54 196.66 C 368.92 199.04 375.80 199.53 382.19 201.90 C 382.19 202.67 382.18 204.21 382.18 204.98 C 375.50 203.70 369.05 201.17 362.22 200.89 Z" />
</g>
<g id="#e4e6f3ff">
<path fill="#e4e6f3" opacity="1.00" d=" M 396.34 198.17 C 396.92 198.15 398.08 198.10 398.65 198.08 C 401.29 198.38 403.66 199.77 405.91 201.10 C 406.76 204.43 402.56 205.33 400.51 206.83 C 397.98 208.84 395.47 210.93 392.36 211.99 C 391.41 213.17 390.28 214.18 389.07 215.07 C 386.86 215.01 384.64 215.03 382.44 214.86 L 383.20 214.26 C 387.39 210.38 392.22 207.22 396.28 203.20 C 396.57 201.54 396.37 199.84 396.34 198.17 Z" />
</g>
<g id="#e6e7f2ff">
<path fill="#e6e7f2" opacity="1.00" d=" M 304.79 203.30 C 305.71 202.46 306.33 200.49 307.93 201.03 C 310.85 201.40 313.76 201.86 316.71 201.62 C 317.39 201.61 318.76 201.60 319.44 201.60 C 318.89 202.73 318.05 203.58 316.91 204.16 C 318.67 204.81 320.51 204.37 322.29 204.04 C 321.45 205.05 320.60 206.06 319.78 207.10 C 318.00 206.99 315.99 207.41 314.58 206.03 C 310.44 207.09 306.17 207.21 301.92 207.06 C 300.77 205.44 299.22 204.03 298.69 202.06 L 299.39 202.11 C 299.99 202.14 301.19 202.22 301.79 202.26 C 302.72 202.78 303.93 204.97 304.79 203.30 Z" />
</g>
<g id="#5070c4ff">
<path fill="#5070c4" opacity="1.00" d=" M 362.29 209.80 C 362.30 208.44 362.32 207.07 362.33 205.71 C 363.39 206.64 364.54 207.63 366.01 207.82 C 371.34 208.92 376.66 210.12 381.98 211.29 C 382.05 212.08 382.19 213.66 382.25 214.44 C 375.53 213.24 368.96 211.29 362.29 209.80 Z" />
</g>
</svg>
