<?xml version="1.0" standalone="no"?>
<!DOCTYPE svg PUBLIC "-//W3C//DTD SVG 20010904//EN"
 "http://www.w3.org/TR/2001/REC-SVG-20010904/DTD/svg10.dtd">
<svg version="1.0" xmlns="http://www.w3.org/2000/svg"
 width="350.000000pt" height="133.000000pt" viewBox="0 0 350.000000 133.000000"
 preserveAspectRatio="xMidYMid meet">
<metadata>
Created by potrace 1.16, written by Peter Selinger 2001-2019
</metadata>
<g transform="translate(0.000000,133.000000) scale(0.100000,-0.100000)"
fill="#000000" stroke="none">
<path d="M1240 676 c0 -223 0 -409 0 -413 0 -5 109 -8 243 -8 l242 0 51 27
c97 51 140 129 132 240 -5 67 -40 125 -93 154 -20 10 -34 21 -32 24 75 126 38
278 -86 346 -52 29 -53 29 -254 32 l-203 3 0 -405z m324 214 c51 -19 60 -97
15 -121 -12 -6 -45 -13 -75 -15 l-54 -5 0 76 0 75 44 0 c25 0 56 -4 70 -10z
m113 -332 c24 -24 23 -86 -2 -104 -13 -10 -50 -14 -122 -14 l-103 0 0 71 0 71
105 -4 c83 -2 108 -7 122 -20z"/>
<path d="M1970 666 l0 -416 110 0 110 0 0 130 0 130 39 0 c38 0 40 -2 132
-130 l94 -129 123 -1 c96 0 122 3 116 13 -12 19 -71 103 -141 199 -35 48 -63
90 -63 93 0 3 17 21 39 40 81 73 108 207 62 310 -28 63 -72 109 -136 143 -49
26 -54 27 -267 30 l-218 3 0 -415z m391 195 c21 -22 29 -39 29 -66 0 -27 -8
-44 -29 -66 -27 -27 -35 -29 -100 -29 l-71 0 0 95 0 95 71 0 c65 0 73 -2 100
-29z"/>
<path d="M2630 980 l0 -100 100 0 100 0 0 -315 0 -316 108 3 107 3 5 313 5
314 95 1 95 2 3 98 3 97 -311 0 -310 0 0 -100z"/>
<path d="M580 340 l0 -90 33 -1 c51 -2 61 1 80 23 35 41 -1 103 -55 95 -26 -3
-28 -1 -28 30 0 23 -5 33 -15 33 -12 0 -15 -17 -15 -90z"/>
<path d="M790 330 c0 -64 3 -80 15 -80 9 0 15 9 15 25 0 15 6 25 15 25 8 0 22
-11 31 -25 9 -14 25 -25 36 -25 20 0 20 1 3 26 -14 21 -15 31 -6 51 24 53 1
83 -65 83 l-44 0 0 -80z"/>
<path d="M1027 398 c-48 -38 -36 -126 20 -146 90 -31 163 68 98 133 -27 28
-89 34 -118 13z"/>
</g>
</svg>
